<svg xmlns="http://www.w3.org/2000/svg" width="198.949" height="20.83" viewBox="0 0 198.949 20.83"><defs><style>.a{fill:#707070;font-size:17px;font-family:ArialMT, Arial;}.b{font-family:AppleSDGothicNeo-Regular, Apple SD Gothic Neo;}.c{fill:#fff;fill-rule:evenodd;}.d,.e{stroke:none;}.e{fill:#ccc;}</style></defs><text class="a" transform="translate(0 15.83)"><tspan x="0" y="0">2020.12.23. </tspan><tspan class="b" y="0">오후</tspan><tspan y="0" xml:space="preserve"> 5:04</tspan></text><g transform="translate(178.518)"><g class="c" transform="translate(0 0)"><path class="d" d="M 4.211531639099121 17.88817596435547 C 4.20985746383667 17.88817596435547 4.208254814147949 17.88816070556641 4.206724166870117 17.88813591003418 C 4.200946807861328 17.87165832519531 4.195961475372314 17.84673881530762 4.195961475372314 17.80878639221191 C 4.195981025695801 17.80833625793457 4.196893215179443 17.77165603637695 4.213795185089111 17.65908813476562 L 5.26828145980835 11.87328624725342 L 5.317751407623291 11.60182571411133 L 5.11445140838623 11.41525650024414 L 0.655371367931366 7.323047637939453 C 0.57778000831604 7.242883682250977 0.5379738807678223 7.185781478881836 0.5179401636123657 7.150967121124268 C 0.5580637454986572 7.132619380950928 0.6319636702537537 7.107145309448242 0.7590702176094055 7.087606430053711 L 6.919301509857178 6.242326259613037 L 7.174591541290283 6.207295894622803 L 7.294201374053955 5.979055881500244 L 10.05697154998779 0.7070960998535156 L 10.06002140045166 0.7012860774993896 L 10.06291198730469 0.6953960657119751 C 10.13281154632568 0.5530460476875305 10.19374179840088 0.4999960660934448 10.21573162078857 0.4999960660934448 C 10.23775196075439 0.4999960660934448 10.29868125915527 0.5529960989952087 10.36846160888672 0.6952260732650757 L 10.37139129638672 0.7011960744857788 L 10.37447166442871 0.7070860862731934 L 13.13710117340088 5.979045867919922 L 13.25671195983887 6.207295894622803 L 13.51201152801514 6.242326259613037 L 19.6720085144043 7.087616443634033 C 19.79926300048828 7.107162952423096 19.87326431274414 7.132650852203369 19.91340827941895 7.150998592376709 C 19.8930778503418 7.184439182281494 19.85214042663574 7.239467144012451 19.77131462097168 7.315939426422119 L 15.31634140014648 11.41571617126465 L 15.11362171173096 11.60227584838867 L 15.16303157806396 11.87329578399658 L 16.21729469299316 17.65705299377441 C 16.21909713745117 17.6713752746582 16.22329139709473 17.71486282348633 16.22329139709473 17.80878639221191 C 16.22329139709473 17.84667205810547 16.21836090087891 17.87156867980957 16.21260452270508 17.88808250427246 C 16.14308929443359 17.88632774353027 16.06020736694336 17.85976409912109 15.9660816192627 17.80904579162598 L 15.95865154266357 17.80504608154297 L 15.95110130310059 17.80129623413086 L 10.43775177001953 15.06661605834961 L 10.21556186676025 14.95641613006592 L 9.993381500244141 15.06662654876709 L 4.480491638183594 17.80130577087402 L 4.476991653442383 17.80304527282715 L 4.473511695861816 17.80483627319336 C 4.332901477813721 17.87734603881836 4.249021530151367 17.88817596435547 4.211531639099121 17.88817596435547 Z"/><path class="e" d="M 10.21571922302246 1.481351852416992 L 7.737061500549316 6.211146354675293 L 7.497841835021973 6.66762638092041 L 6.987261772155762 6.737686157226562 L 1.567392349243164 7.481378555297852 L 5.452531814575195 11.04686546325684 L 5.859121322631836 11.42001628875732 L 5.760171890258789 11.96293640136719 L 4.829366683959961 17.07010841369629 L 9.771191596984863 14.61870574951172 L 10.21555137634277 14.39828586578369 L 10.65992164611816 14.61869621276855 L 15.60205078125 17.07004547119141 L 14.6711311340332 11.962965965271 L 14.57232093811035 11.42090606689453 L 14.97776222229004 11.04780578613281 L 18.85453414916992 7.480129241943359 L 13.44403171539307 6.737686157226562 L 12.93344116210938 6.66761589050293 L 12.6942310333252 6.211126327514648 L 10.21571922302246 1.481351852416992 M 10.21573162078857 -3.814697265625e-06 C 10.46123123168945 -3.814697265625e-06 10.66197109222412 0.1582851409912109 10.81735134124756 0.475006103515625 L 13.57998085021973 5.746966361999512 L 19.74347114562988 6.59273624420166 C 20.20223236083984 6.662276268005371 20.43130111694336 6.839905738830566 20.43130111694336 7.12575626373291 C 20.43130111694336 7.295705795288086 20.32505226135254 7.481156349182129 20.11195182800293 7.681965827941895 L 15.65492153167725 11.78363609313965 L 16.7109317779541 17.57696533203125 C 16.7192211151123 17.63115692138672 16.72329139709473 17.70837593078613 16.72329139709473 17.80878639221191 C 16.72329139709473 17.97105598449707 16.68033218383789 18.10814666748047 16.59458160400391 18.22021675109863 C 16.50868225097656 18.33242607116699 16.38404083251953 18.38817596435547 16.21992111206055 18.38817596435547 C 16.0646915435791 18.38817596435547 15.90103149414062 18.34195518493652 15.72892189025879 18.24922561645508 L 10.21557140350342 15.51454639434814 L 4.702681541442871 18.24922561645508 C 4.522591590881348 18.34209632873535 4.358921051025391 18.38817596435547 4.211530685424805 18.38817596435547 C 4.039571762084961 18.38817596435547 3.910711288452148 18.3322868347168 3.824811935424805 18.22021675109863 C 3.738910675048828 18.10800552368164 3.695960998535156 17.97105598449707 3.695960998535156 17.80878639221191 C 3.695960998535156 17.76256561279297 3.704092025756836 17.68519592285156 3.720521926879883 17.57696533203125 L 4.776381492614746 11.78363609313965 L 0.3069915771484375 7.681965827941895 C 0.1023311614990234 7.473476409912109 1.9073486328125e-06 7.288025856018066 1.9073486328125e-06 7.12575626373291 C 1.9073486328125e-06 6.839905738830566 0.2292308807373047 6.662276268005371 0.6875324249267578 6.59273624420166 L 6.851321220397949 5.746966361999512 L 9.614101409912109 0.475006103515625 C 9.769631385803223 0.1582851409912109 9.970221519470215 -3.814697265625e-06 10.21573162078857 -3.814697265625e-06 Z"/></g></g></svg>