<svg xmlns="http://www.w3.org/2000/svg" width="1750.8" height="46" viewBox="0 0 1750.8 46"><defs><style>.a{fill:#dfdfdf;}.b{fill:#ff6158;}.c{fill:#ffbd2e;}.d{fill:#29cb41;}.e{fill:#f7f7f7;}.f{fill:none;stroke:#707070;}.g{fill:#b9b9b9;opacity:0.591;}.h{opacity:0.449;}.i,.j{fill:#707070;}.j{font-size:16.5px;font-family:AppleSDGothicNeo-Regular, Apple SD Gothic Neo;}</style></defs><g transform="translate(-85.2 -2)"><path class="a" d="M7,0H1743.5a7,7,0,0,1,7,7V46a0,0,0,0,1,0,0H0a0,0,0,0,1,0,0V7A7,7,0,0,1,7,0Z" transform="translate(85.2 2)"/><circle class="b" cx="7.5" cy="7.5" r="7.5" transform="translate(100 18)"/><circle class="c" cx="7.5" cy="7.5" r="7.5" transform="translate(125 18)"/><circle class="d" cx="7.5" cy="7.5" r="7.5" transform="translate(150 18)"/><rect class="e" width="31" height="27" rx="4" transform="translate(181 12)"/><path class="f" d="M199.852,18.894l-6.889,6.529,6.889,6.664"/><rect class="e" width="31" height="27" rx="4" transform="translate(213.2 12)"/><path class="f" d="M192.963,18.894l6.889,6.529-6.889,6.664" transform="translate(32)"/><g transform="translate(-1 -1)"><rect class="g" width="31" height="31" transform="translate(1806 18)"/><path class="f" d="M1814.616,33.5h13.008"/><path class="f" d="M1814.616,33.5h13.008" transform="translate(1854.62 -1787.62) rotate(90)"/></g><g class="h" transform="translate(393.109)"><rect class="e" width="708.5" height="27" rx="4" transform="translate(213.2 12)"/></g><path class="i" d="M10.642,5.682l.564-1.2a6.867,6.867,0,0,0-1.37-.419,7.474,7.474,0,0,0-1.461-.145,6.891,6.891,0,0,0-4.939,2.03A7.026,7.026,0,0,0,1.942,8.177a7.093,7.093,0,0,0,0,5.437,7.134,7.134,0,0,0,1.5,2.229,7.034,7.034,0,0,0,7.657,1.5,7.034,7.034,0,0,0,3.731-3.731,6.86,6.86,0,0,0,.54-2.719.711.711,0,0,0-.739-.739.645.645,0,0,0-.5.208.754.754,0,0,0-.191.531,5.507,5.507,0,0,1-1.623,3.943,5.6,5.6,0,0,1-1.772,1.191,5.474,5.474,0,0,1-2.167.427,5.51,5.51,0,0,1-5.122-3.4,5.777,5.777,0,0,1,0-4.341A5.455,5.455,0,0,1,4.445,6.948,5.579,5.579,0,0,1,6.213,5.757a5.437,5.437,0,0,1,2.162-.432,8.3,8.3,0,0,1,1.245.087A4.5,4.5,0,0,1,10.642,5.682ZM8.135,8.87a.642.642,0,0,0,.5-.2l3.229-3.246a.744.744,0,0,0,.224-.531.726.726,0,0,0-.224-.531L8.633,1.092A.617.617,0,0,0,8.126.868a.65.65,0,0,0-.486.212.71.71,0,0,0-.2.51.691.691,0,0,0,.054.27.783.783,0,0,0,.145.228l2.831,2.781L7.645,7.674a.849.849,0,0,0-.154.228.632.632,0,0,0-.054.261.682.682,0,0,0,.2.5A.672.672,0,0,0,8.135,8.87Z" transform="translate(1293 16)"/><text class="j" transform="translate(927 32)"><tspan x="0" y="0">google.co.kr</tspan></text><path class="i" d="M4.57,16.727h7.1a1.45,1.45,0,0,0,1.094-.375,1.631,1.631,0,0,0,.359-1.164V9.7a1.631,1.631,0,0,0-.359-1.164,1.45,1.45,0,0,0-1.094-.375L4.7,8.18a1.705,1.705,0,0,0-1.16.371A1.449,1.449,0,0,0,3.117,9.7v5.484a1.62,1.62,0,0,0,.363,1.164A1.452,1.452,0,0,0,4.57,16.727ZM4.32,8.68H5.633V6.188a3.036,3.036,0,0,1,.344-1.5,2.325,2.325,0,0,1,.91-.926,2.61,2.61,0,0,1,2.477,0,2.3,2.3,0,0,1,.906.926,3.065,3.065,0,0,1,.34,1.5V8.68h1.313V6.336a4.873,4.873,0,0,0-.312-1.824A3.576,3.576,0,0,0,9.531,2.445a3.985,3.985,0,0,0-2.82,0,3.592,3.592,0,0,0-1.219.773,3.679,3.679,0,0,0-.855,1.293A4.819,4.819,0,0,0,4.32,6.336Z" transform="translate(907 16)"/></g></svg>