<svg xmlns="http://www.w3.org/2000/svg" width="723" height="394" viewBox="0 0 723 394"><defs><style>.a,.e{fill:none;}.a{stroke:#dfe1e6;}.b{fill:#9aa0a6;}.c{fill:#7b7b7b;}.d{stroke:none;}</style></defs><g class="a"><rect class="d" width="723" height="394" rx="28"/><rect class="e" x="0.5" y="0.5" width="722" height="393" rx="27.5"/></g><path class="b" d="M9.316,16.129a5.275,5.275,0,0,0,2.109-.425,5.469,5.469,0,0,0,1.733-1.177,5.584,5.584,0,0,0,1.172-1.733,5.413,5.413,0,0,0,0-4.2,5.562,5.562,0,0,0-2.905-2.92,5.38,5.38,0,0,0-4.214,0A5.549,5.549,0,0,0,4.3,8.59a5.413,5.413,0,0,0,0,4.2,5.584,5.584,0,0,0,1.172,1.733A5.454,5.454,0,0,0,7.212,15.7,5.286,5.286,0,0,0,9.316,16.129Zm0,1.748a7.025,7.025,0,0,1-2.788-.557,7.188,7.188,0,0,1-2.295-1.553,7.3,7.3,0,0,1-1.548-2.295,7.261,7.261,0,0,1,0-5.576,7.2,7.2,0,0,1,1.553-2.29A7.37,7.37,0,0,1,6.533,4.054a6.938,6.938,0,0,1,2.783-.562,6.972,6.972,0,0,1,2.788.562A7.284,7.284,0,0,1,15.947,7.9a7.249,7.249,0,0,1,0,5.571A7.3,7.3,0,0,1,14.4,15.768,7.188,7.188,0,0,1,12.1,17.32,7.025,7.025,0,0,1,9.316,17.877Zm9.121,3.291a1.314,1.314,0,0,1-.459-.083,1.048,1.048,0,0,1-.4-.269l-4.863-4.854,1.748-1.709L19.3,19.107a1.014,1.014,0,0,1,.259.391,1.314,1.314,0,0,1,.083.459,1.277,1.277,0,0,1-.151.62,1.091,1.091,0,0,1-.425.435A1.237,1.237,0,0,1,18.438,21.168Z" transform="translate(19 21.572)"/><path class="c" d="M5.332,19.723H22.793a3.045,3.045,0,0,0,2.227-.742,2.957,2.957,0,0,0,.752-2.2V7.867a2.957,2.957,0,0,0-.752-2.2,3.045,3.045,0,0,0-2.227-.742H5.332A3.042,3.042,0,0,0,3.1,5.67a2.969,2.969,0,0,0-.747,2.2v8.916a2.969,2.969,0,0,0,.747,2.2A3.042,3.042,0,0,0,5.332,19.723Zm.068-1.67A1.378,1.378,0,0,1,4.39,17.7a1.406,1.406,0,0,1-.356-1.045V7.994a1.389,1.389,0,0,1,.356-1.04A1.39,1.39,0,0,1,5.4,6.607H22.715a1.387,1.387,0,0,1,1.016.347,1.4,1.4,0,0,1,.352,1.04v8.662A1.418,1.418,0,0,1,23.73,17.7a1.375,1.375,0,0,1-1.016.352Zm.869-7.842h.84a.376.376,0,0,0,.43-.42v-.85a.376.376,0,0,0-.43-.42H6.27a.376.376,0,0,0-.43.42v.85A.376.376,0,0,0,6.27,10.211Zm2.939,0h.85a.371.371,0,0,0,.42-.42v-.85a.371.371,0,0,0-.42-.42h-.85a.371.371,0,0,0-.42.42v.85A.371.371,0,0,0,9.209,10.211Zm2.939,0H13a.371.371,0,0,0,.42-.42v-.85a.371.371,0,0,0-.42-.42h-.85a.371.371,0,0,0-.42.42v.85A.371.371,0,0,0,12.148,10.211Zm2.949,0h.84a.371.371,0,0,0,.42-.42v-.85a.371.371,0,0,0-.42-.42H15.1a.376.376,0,0,0-.43.42v.85A.376.376,0,0,0,15.1,10.211Zm2.949,0h.83a.376.376,0,0,0,.43-.42v-.85a.376.376,0,0,0-.43-.42h-.83q-.439,0-.439.42v.85Q17.607,10.211,18.047,10.211Zm2.93,0h.85a.371.371,0,0,0,.42-.42v-.85a.371.371,0,0,0-.42-.42h-.85a.371.371,0,0,0-.42.42v.85A.371.371,0,0,0,20.977,10.211ZM6.27,13.16h.84a.376.376,0,0,0,.43-.42v-.85a.376.376,0,0,0-.43-.42H6.27a.376.376,0,0,0-.43.42v.85A.376.376,0,0,0,6.27,13.16Zm2.939,0h.85a.371.371,0,0,0,.42-.42v-.85a.371.371,0,0,0-.42-.42h-.85a.371.371,0,0,0-.42.42v.85A.371.371,0,0,0,9.209,13.16Zm2.939,0H13a.371.371,0,0,0,.42-.42v-.85a.371.371,0,0,0-.42-.42h-.85a.371.371,0,0,0-.42.42v.85A.371.371,0,0,0,12.148,13.16Zm2.949,0h.84a.371.371,0,0,0,.42-.42v-.85a.371.371,0,0,0-.42-.42H15.1a.376.376,0,0,0-.43.42v.85A.376.376,0,0,0,15.1,13.16Zm2.949,0h.83a.376.376,0,0,0,.43-.42v-.85a.376.376,0,0,0-.43-.42h-.83q-.439,0-.439.42v.85Q17.607,13.16,18.047,13.16Zm2.93,0h.85a.371.371,0,0,0,.42-.42v-.85a.371.371,0,0,0-.42-.42h-.85a.371.371,0,0,0-.42.42v.85A.371.371,0,0,0,20.977,13.16ZM6.27,16.129h.84a.384.384,0,0,0,.43-.439v-.84a.38.38,0,0,0-.43-.43H6.27a.38.38,0,0,0-.43.43v.84A.384.384,0,0,0,6.27,16.129Zm3.018,0H18.8a.453.453,0,0,0,.508-.518v-.684a.449.449,0,0,0-.508-.508H9.287a.445.445,0,0,0-.5.508v.684Q8.789,16.129,9.287,16.129Zm11.689,0h.85q.42,0,.42-.439v-.84a.376.376,0,0,0-.42-.43h-.85a.376.376,0,0,0-.42.43v.84Q20.557,16.129,20.977,16.129Z" transform="translate(674 22.041)"/></svg>