<svg xmlns="http://www.w3.org/2000/svg" width="368" height="56" viewBox="0 0 368 56"><defs><style>.a,.e,.f,.g{fill:#707070;}.a{font-size:18px;font-family:AppleSDGothicNeo-Bold, Apple SD Gothic Neo;font-weight:700;}.b,.c,.d{fill:#000;}.c{font-family:Arial-BoldMT, Arial;}.d,.e{font-size:17px;font-family:ArialMT, Arial;font-weight:400;}.f{font-size:16px;font-family:AppleSDGothicNeo-Regular, Apple SD Gothic Neo;}.g{fill-rule:evenodd;}.h{fill:#f4f4f4;stroke:#d8d8d8;}.i{fill:#ccc;}.j{stroke:none;}.k{fill:none;}</style></defs><g transform="translate(63.548 5)"><text class="a" transform="translate(0.452 15)"><tspan class="b" x="0" y="0">제우</tspan><tspan class="c" y="0"> </tspan><tspan class="b" y="0">인사팀</tspan><tspan class="d" y="0"> </tspan><tspan class="e" y="0">&lt;jewoo_recruit@gmail.com&gt;</tspan></text><text class="f" transform="translate(0.452 43)"><tspan x="0" y="0">나에게</tspan></text><g transform="translate(39.457 30.274)"><path class="g" d="M581.081-12.884,585.162-17H577Z" transform="translate(-564.687 23.77)"/></g></g><g class="h"><circle class="j" cx="28" cy="28" r="28"/><circle class="k" cx="28" cy="28" r="27.5"/></g><g transform="translate(-4 1)"><circle class="i" cx="5" cy="5" r="5" transform="translate(27 15)"/><path class="i" d="M4,0H18a4,4,0,0,1,4,4V9a0,0,0,0,1,0,0H0A0,0,0,0,1,0,9V4A4,4,0,0,1,4,0Z" transform="translate(21 29)"/></g></svg>