<svg xmlns="http://www.w3.org/2000/svg" width="354" height="56" viewBox="0 0 354 56"><defs><style>.a,.c,.d,.e{fill:#707070;}.a{font-size:17px;font-family:ArialMT, Arial;}.b{fill:#000;}.d{font-size:16px;font-family:AppleSDGothicNeo-Regular, Apple SD Gothic Neo;}.e{fill-rule:evenodd;}.f{fill:#f4f4f4;stroke:#d8d8d8;}.g{fill:#ccc;}.h{stroke:none;}.i{fill:none;}</style></defs><g transform="translate(63.548 5)"><text class="a" transform="translate(0.452 15)"><tspan class="b" x="0" y="0">Emily Cho </tspan><tspan class="c" y="0">&lt;yoonha_cho@gmail.com&gt;</tspan></text><text class="d" transform="translate(0.452 43)"><tspan x="0" y="0">나에게</tspan></text><g transform="translate(39.457 30.274)"><path class="e" d="M581.081-12.884,585.162-17H577Z" transform="translate(-564.687 23.77)"/></g></g><g class="f"><circle class="h" cx="28" cy="28" r="28"/><circle class="i" cx="28" cy="28" r="27.5"/></g><g transform="translate(-4 1)"><circle class="g" cx="5" cy="5" r="5" transform="translate(27 15)"/><path class="g" d="M4,0H18a4,4,0,0,1,4,4V9a0,0,0,0,1,0,0H0A0,0,0,0,1,0,9V4A4,4,0,0,1,4,0Z" transform="translate(21 29)"/></g></svg>