<svg xmlns="http://www.w3.org/2000/svg" viewBox="0 0 475.55 170.6"><defs><style>.cls-1{fill:#fff;}.cls-2,.cls-6{fill:#f6f6f6;}.cls-2{stroke:#b5b5b5;stroke-width:0.25px;}.cls-2,.cls-3,.cls-4,.cls-5,.cls-7,.cls-9{stroke-miterlimit:10;}.cls-3,.cls-4,.cls-5,.cls-7{fill:none;}.cls-3,.cls-4,.cls-5{stroke:#7b7b7b;}.cls-3{stroke-width:0.75px;}.cls-4,.cls-9{stroke-width:0.5px;}.cls-7{stroke:#6a6a6a;}.cls-8{fill:#7b7b7b;}.cls-9{fill:#f7f7f7;stroke:#ddd;}.cls-10,.cls-11{isolation:isolate;}.cls-11{font-size:15px;fill:#bababa;font-family:AppleSDGothicNeo-Regular-KSCpc-EUC-H, Apple SD Gothic Neo;letter-spacing:0.08em;}</style></defs><g id="Layer_2" data-name="Layer 2"><g id="Layer_1-2" data-name="Layer 1"><path id="패스_72" data-name="패스 72" class="cls-1" d="M.35,42.56v119.3a8.74,8.74,0,0,0,8.74,8.74H466.78a8.75,8.75,0,0,0,8.66-8.74V42.56Z"/><rect id="사각형_266" data-name="사각형 266" class="cls-2" x="0.13" y="0.13" width="475.3" height="45.87"/><path id="패스_73" data-name="패스 73" class="cls-3" d="M16.16,24.55c0,1.75,2.5,3.3,5.58,3.3"/><circle id="타원_79" data-name="타원 79" class="cls-3" cx="21.25" cy="23.21" r="10.46"/><ellipse id="타원_80" data-name="타원 80" class="cls-3" cx="16.72" cy="20.71" rx="0.4" ry="0.84"/><ellipse id="타원_81" data-name="타원 81" class="cls-3" cx="24.92" cy="20.43" rx="0.4" ry="0.84"/><path id="패스_74" data-name="패스 74" class="cls-4" d="M21.77,20.6a2.25,2.25,0,0,0-1.26.86,1.21,1.21,0,0,0,0,1.36c.23.37.25.49.53.67s.77.3,1,.15l.18-.14"/><path id="패스_75" data-name="패스 75" class="cls-3" d="M26,24.38a4,4,0,0,1-4.27,3.5"/><rect id="사각형_267" data-name="사각형 267" class="cls-4" x="109.52" y="15.27" width="18.17" height="16.67" rx="0.16"/><line id="선_20" data-name="선 20" class="cls-4" x1="114.73" y1="12.73" x2="114.73" y2="14.9"/><line id="선_21" data-name="선 21" class="cls-4" x1="121.45" y1="12.31" x2="121.52" y2="14.69"/><line id="선_22" data-name="선 22" class="cls-4" x1="114.89" y1="23.49" x2="117.55" y2="25.86"/><line id="선_23" data-name="선 23" class="cls-4" x1="121.88" y1="21.53" x2="117.55" y2="25.87"/><path id="패스_76" data-name="패스 76" class="cls-3" d="M79.64,20.55,68.54,31.39a11.9,11.9,0,0,1-2.37,1.75c-.89.39-1.2.7-3-.14s-2.93-1.64-3.32-2.92a6,6,0,0,1-.31-3.5,5.84,5.84,0,0,1,1.75-2.74l11.1-10.5a2.36,2.36,0,0,1,2.16-.52c1.21.38,1.75.45,2.23,1.08s1.15,1,1.08,2,0,1.4-.63,2-1.92,2.22-2.31,2.49-8.1,8.16-8.1,8.16a8.88,8.88,0,0,1-1.59,1.14c-.31,0-1.08.72-1.54.14s-.89-.7-.82-1.54.31-1,.89-1.47S65.12,25.2,65.52,25s6.24-6.19,6.24-6.19"/><circle id="타원_82" data-name="타원 82" class="cls-5" cx="404.53" cy="22.33" r="9.58"/><circle id="타원_83" data-name="타원 83" class="cls-5" cx="404.32" cy="22.52" r="5.07"/><path id="패스_77" data-name="패스 77" class="cls-6" d="M404.46,20l5.81,13H398.66Z"/><line id="선_24" data-name="선 24" class="cls-7" x1="404.29" y1="22.84" x2="404.41" y2="34.91"/><path id="패스_78" data-name="패스 78" class="cls-8" d="M459.32,29.26l-2.19-3a1.64,1.64,0,0,0-2.29-.33l-1.13.86a1.78,1.78,0,0,0-.32.35l-4.46-6.7.82-.54h.13l1-.74a1.6,1.6,0,0,0,.34-2.25l0,0L449,14a1.64,1.64,0,0,0-2.29-.32l-1.12.84a1.83,1.83,0,0,0-.43.49h0c-1.38,2.12-.3,6.8,2.76,11.23,2.88,4.16,6.61,6.77,9.09,6.59h0a1.79,1.79,0,0,0,.84-.28L459,31.7a1.65,1.65,0,0,0,.5-2.27l-.13-.17Z"/><rect id="사각형_268" data-name="사각형 268" class="cls-9" x="368.29" y="62.88" width="95.98" height="81.54" rx="2.93"/><g id="전송" class="cls-10"><text class="cls-11" transform="translate(402.66 110.63)">전송</text></g></g></g></svg>