<svg xmlns="http://www.w3.org/2000/svg" width="475.054" height="108.521" viewBox="0 0 475.054 108.521">
  <g id="그룹_561" data-name="그룹 561" transform="translate(-4851.053 -37.367)">
    <g id="레이어_2" data-name="레이어 2" transform="translate(4850.87 37)">
      <g id="레이어_1" data-name="레이어 1" transform="translate(0.13)">
        <path id="패스_66" data-name="패스 66" d="M475.215,108.731V8.866A8.743,8.743,0,0,0,466.576.21H8.8A8.743,8.743,0,0,0,.16,8.953v99.778Z" transform="translate(-0.108 0.157)" fill="#f9f9f9"/>
        <line id="선_18" data-name="선 18" y1="0.245" x2="36.914" transform="translate(412.978 47.825)" fill="none" stroke="#6d6d6d" stroke-miterlimit="10" stroke-width="1.4"/>
        <circle id="타원_72" data-name="타원 72" cx="6.697" cy="6.697" r="6.697" transform="translate(450.136 40.708)" fill="#fff" stroke="#bfbfbf" stroke-miterlimit="10" stroke-width="0.75"/>
        <circle id="타원_73" data-name="타원 73" cx="14.112" cy="14.112" r="14.112" transform="translate(368.23 65.871)" fill="none" stroke="#e0e0e0" stroke-miterlimit="10" stroke-width="0.75"/>
        <rect id="사각형_261" data-name="사각형 261" width="10.055" height="16.262" rx="2.88" transform="translate(378.25 73.006)" fill="none"/>
        <circle id="타원_74" data-name="타원 74" cx="14.112" cy="14.112" r="14.112" transform="translate(332.942 66.099)" fill="none" stroke="#e0e0e0" stroke-miterlimit="10" stroke-width="0.75"/>
        <circle id="타원_75" data-name="타원 75" cx="4.774" cy="4.774" r="4.774" transform="translate(340.391 72.779)" fill="none" stroke="#989898" stroke-miterlimit="10" stroke-width="0.75"/>
        <line id="선_19" data-name="선 19" x1="3.742" y1="3.095" transform="translate(348.453 81.872)" fill="none" stroke="#989898" stroke-miterlimit="10" stroke-width="0.75"/>
        <path id="패스_69" data-name="패스 69" d="M228.941,53.3l-2.168-3.165v-3.5a5.036,5.036,0,0,0-10.072,0v3.83l-1.941,2.868h4.949a2.03,2.03,0,0,0,0,.315,2.081,2.081,0,1,0,4.162,0,2.033,2.033,0,0,0,0-.315Z" transform="translate(160.552 31.144)" fill="#a2a2a2"/>
        <circle id="타원_76" data-name="타원 76" cx="14.112" cy="14.112" r="14.112" transform="translate(403.465 65.802)" fill="none" stroke="#e0e0e0" stroke-miterlimit="10" stroke-width="0.75"/>
        <rect id="사각형_262" data-name="사각형 262" width="9.46" height="1.661" transform="translate(412.785 72.604)" fill="#939392"/>
        <path id="패스_70" data-name="패스 70" d="M247.957,43.55H236.014a1.294,1.294,0,0,0-1.294,1.294V51.7a1.294,1.294,0,0,0,1.294,1.294h11.943a1.311,1.311,0,0,0,1.311-1.294V44.844a1.311,1.311,0,0,0-1.311-1.294Zm-2.2,3.5v1.067h-7.4V47.047h0V45.858h1.119v1.189h5.141V45.858H245.7Z" transform="translate(175.495 32.604)" fill="#939392"/>
        <circle id="타원_77" data-name="타원 77" cx="14.112" cy="14.112" r="14.112" transform="translate(438.595 66.029)" fill="none" stroke="#e0e0e0" stroke-miterlimit="10" stroke-width="0.75"/>
        <rect id="사각형_263" data-name="사각형 263" width="12.013" height="1.591" transform="translate(446.604 74.999)" fill="#959595"/>
        <rect id="사각형_264" data-name="사각형 264" width="12.013" height="1.591" transform="translate(446.761 79.319)" fill="#959595"/>
        <rect id="사각형_265" data-name="사각형 265" width="12.013" height="1.591" transform="translate(446.622 83.778)" fill="#959595"/>
        <circle id="타원_78" data-name="타원 78" cx="3.76" cy="3.76" r="3.76" transform="translate(80.763 74.098)" fill="#7c7c7c"/>
        <path id="패스_71" data-name="패스 71" d="M59.01,53.189c-.367-2.588-3.148-4.6-6.54-4.6s-6.173,2.011-6.54,4.6Z" transform="translate(32.158 33.377)" fill="#7c7c7c"/>
      </g>
    </g>
    <text id="최수진" transform="translate(4927 92)" fill="#222" font-size="18" font-family="AppleSDGothicNeo-SemiBold, Apple SD Gothic Neo" font-weight="600"><tspan x="0" y="0">최수진</tspan></text>
    <text id="_2" data-name="2" transform="translate(4947 123)" fill="#393939" font-size="14" font-family="AppleSDGothicNeo-Medium, Apple SD Gothic Neo" font-weight="500"><tspan x="0" y="0">2</tspan></text>
  </g>
</svg>
