<svg xmlns="http://www.w3.org/2000/svg" width="45" height="45" viewBox="0 0 45 45"><defs><style>.a{fill:#00005b;}.b{fill:#99f;}</style></defs><g transform="translate(-256.323 -178)"><rect class="a" width="45" height="45" rx="10" transform="translate(256.323 178)"/><path class="b" d="M286.121,229.484h-6.858l-1.395,4.521a.351.351,0,0,1-.357.267h-3.475q-.3,0-.207-.326l5.939-16.86q.088-.267.178-.609a6.37,6.37,0,0,0,.119-1.2.184.184,0,0,1,.208-.208h4.72c.138,0,.217.05.237.148l6.739,18.759q.088.3-.178.3h-3.859a.274.274,0,0,1-.3-.208Zm-5.789-3.159h4.69c-.119-.4-.258-1.208-.416-1.7s-.326-1.024-.5-1.588l-.534-1.692q-.267-.846-.491-1.633c-.15-.524-.281-1-.4-1.439h-.03a24.083,24.083,0,0,1-.624,2.375q-.416,1.336-.846,2.731C280.892,224.306,280.609,225.534,280.332,226.325Z" transform="translate(-11.349 -24.055)"/><path class="b" d="M338.128,235.593H332.28a4.521,4.521,0,0,0,.6,1.7,3.051,3.051,0,0,0,1.35,1.113,5.832,5.832,0,0,0,2.408.511,8.107,8.107,0,0,0,1.658-.13,8,8,0,0,0,1.737-.519q.147-.118.148.148v2.82a.443.443,0,0,1-.045.223.426.426,0,0,1-.134.134,8.319,8.319,0,0,1-1.931.638,11.921,11.921,0,0,1-2.4.094,8.47,8.47,0,0,1-3.533-.653,6.294,6.294,0,0,1-2.317-1.752,6.857,6.857,0,0,1-1.276-2.419,9.522,9.522,0,0,1-.386-2.687,9.345,9.345,0,0,1,.46-2.924,7.625,7.625,0,0,1,1.38-2.523,6.625,6.625,0,0,1,2.229-1.752,6.958,6.958,0,0,1,3.089-.638,7.431,7.431,0,0,1,3.019.6,5.182,5.182,0,0,1,1.944,1.529,6.762,6.762,0,0,1,1.1,2.093,7.468,7.468,0,0,1,.357,2.256q0,.653-.045,1.187a5.113,5.113,0,0,1-.114.63.268.268,0,0,1-.267.238c-.118,0-.322.015-.608.045s-.8.018-1.222.028S338.6,235.594,338.128,235.593Zm-5.865-2.358h3.887q.713,0,1.053-.015a2.09,2.09,0,0,0,.431-.045V233a5.024,5.024,0,0,0-.062-1.062,2.425,2.425,0,0,0-2.4-1.692,2.58,2.58,0,0,0-2.449,1.4A6.223,6.223,0,0,0,332.263,233.235Z" transform="translate(-46.623 -31.784)"/></g></svg>