<svg xmlns="http://www.w3.org/2000/svg" width="44" height="44" viewBox="0 0 44 44"><defs><style>.a{fill:#300;}.b{fill:#ff9a00;}</style></defs><g transform="translate(-1920.323 -178)"><rect class="a" width="44" height="44" rx="10" transform="translate(1920.323 178)"/><path class="b" d="M1959.794,229.088h-6.766l-1.383,4.52a.345.345,0,0,1-.351.264h-3.429q-.293,0-.205-.322l5.843-16.87q.088-.263.176-.6a4.087,4.087,0,0,0,.117-1,.181.181,0,0,1,.153-.205.184.184,0,0,1,.052,0h4.657c.136,0,.215.049.234.146l6.667,18.561q.087.294-.176.293h-3.808a.271.271,0,0,1-.293-.205Zm-5.75-3.117H1959c-.117-.39-.52-1.293-.676-1.781s-.371-.876-.546-1.433l-.527-1.669q-.263-.835-.485-1.611c-.148-.517-.277-.991-.4-1.42h-.029a23.644,23.644,0,0,1-.615,2.343q-.411,1.318-.835,2.7c-.282.917-.574,2.1-.848,2.876Z" transform="translate(-17.856 -24.099)"/><path class="b" d="M2006.61,215.07a2.125,2.125,0,0,1-1.611-.645,2.316,2.316,0,0,1-.616-1.67,2.146,2.146,0,0,1,.658-1.626,2.262,2.262,0,0,1,1.625-.63,2.179,2.179,0,0,1,1.655.63,2.264,2.264,0,0,1,.6,1.626,2.289,2.289,0,0,1-.63,1.67A2.247,2.247,0,0,1,2006.61,215.07Zm-1.9,15.652V217.329c0-.176.078-.264.235-.264h3.327q.234,0,.234.264v13.393q0,.294-.234.293h-3.3Q2004.713,231.015,2004.713,230.722Z" transform="translate(-54.944 -21.241)"/></g></svg>