<svg xmlns="http://www.w3.org/2000/svg" width="44" height="44" viewBox="0 0 44 44"><defs><style>.a{fill:#00005b;}.b{fill:#99f;}</style></defs><g transform="translate(-3792.323 -178)"><rect class="a" width="44" height="44" rx="10" transform="translate(3792.323 178)"/><path class="b" d="M3822.506,232.777V214.2c0-.157.079-.236.157-.236h4.093c.551,0,1.259.157,1.81.157a11.7,11.7,0,0,1,3.7.551,6.034,6.034,0,0,1,2.44,1.5,6.162,6.162,0,0,1,1.339,2.047,8.263,8.263,0,0,1,.394,2.361,6.285,6.285,0,0,1-1.1,3.857,5.8,5.8,0,0,1-2.912,2.2,12.1,12.1,0,0,1-4.093.708h-.867c-.157,0-.866-.157-1.259-.157v5.746a.209.209,0,0,1-.177.236.215.215,0,0,1-.06,0h-3.306C3822.584,233.013,3822.506,232.934,3822.506,232.777Zm3.778-15.35v6.061c.236,0,.945.157,1.181.157h.945a5.874,5.874,0,0,0,2.047-.315,3.044,3.044,0,0,0,1.5-.945,2.69,2.69,0,0,0,.551-1.889,3.59,3.59,0,0,0-.394-1.574,2.618,2.618,0,0,0-1.259-1.023,6.755,6.755,0,0,0-2.126-.394h-1.26A4.528,4.528,0,0,1,3826.284,217.427Z" transform="translate(-19.789 -23.579)"/><path class="b" d="M3869.829,227.059h3.15a.524.524,0,0,1,.394.315c.079.157.157.236.157.394a1.34,1.34,0,0,1,.079.551v.63a6.444,6.444,0,0,1,1.968-1.574,4.161,4.161,0,0,1,2.519-.63c.157,0,.236.079.236.157v3.621c0,.157-.079.236-.315.236a4.2,4.2,0,0,0-1.732.157,4.74,4.74,0,0,0-1.5.472,3.631,3.631,0,0,0-1.181.708v9.21a.209.209,0,0,1-.177.236.212.212,0,0,1-.059,0h-3.306c-.157,0-.236-.079-.315-.236V229.893a8.594,8.594,0,0,0-.079-1.417c0-.394-.079-.787-.079-1.181,0-.079,0-.079.079-.157C3869.672,227.059,3869.75,227.059,3869.829,227.059Z" transform="translate(-50.66 -31.951)"/></g></svg>