<svg xmlns="http://www.w3.org/2000/svg" width="16" height="16" viewBox="0 0 16 16"><defs><style>.a{fill:#9aa0a6;}</style></defs><path class="a" d="M5.659,11.751H9.642a.575.575,0,0,0,.424-.169.565.565,0,0,0,.169-.416V6a.555.555,0,0,0-.169-.407.575.575,0,0,0-.424-.169A.576.576,0,0,0,9.066,6v4.584H5.659a.584.584,0,1,0,0,1.169ZM9.65,18.838a7.678,7.678,0,0,0,3.095-.63,8.2,8.2,0,0,0,4.28-4.28,7.948,7.948,0,0,0,0-6.181,8.2,8.2,0,0,0-4.288-4.284,7.927,7.927,0,0,0-6.173,0A8.2,8.2,0,0,0,2.276,7.747a7.924,7.924,0,0,0,0,6.181,8.224,8.224,0,0,0,4.284,4.28A7.658,7.658,0,0,0,9.65,18.838Zm0-1.473a6.386,6.386,0,0,1-2.535-.506,6.511,6.511,0,0,1-3.473-3.477,6.672,6.672,0,0,1,0-5.078A6.536,6.536,0,0,1,7.111,4.817a6.356,6.356,0,0,1,2.531-.506,6.4,6.4,0,0,1,2.547.506A6.577,6.577,0,0,1,15.671,8.3a6.386,6.386,0,0,1,.506,2.535,6.264,6.264,0,0,1-.5,2.543,6.635,6.635,0,0,1-1.4,2.078,6.5,6.5,0,0,1-2.074,1.4A6.427,6.427,0,0,1,9.65,17.365Z" transform="translate(-1.65 -2.838)"/></svg>