<svg xmlns="http://www.w3.org/2000/svg" width="879" height="722" viewBox="0 0 879 722"><defs><style>.a{fill:#fff;stroke:#707070;}.b,.c,.d,.h{fill:#fefefe;}.b{font-size:28px;}.b,.c,.e,.f,.g,.h{font-family:AppleSDGothicNeo-Bold, Apple SD Gothic Neo;font-weight:700;}.c{font-size:26px;}.d{font-size:27px;font-family:AppleSDGothicNeo-ExtraBold, Apple SD Gothic Neo;font-weight:800;}.e{font-size:21px;}.f,.k{font-size:22px;}.g{font-size:20px;}.h{font-size:18px;}.i{font-size:16px;}.j{fill:#ffe5e5;}.l{stroke:none;}.m{fill:none;}</style></defs><g transform="translate(-541 -182.028)"><g class="a" transform="translate(541 182.028)"><rect class="l" width="879" height="722" rx="70"/><rect class="m" x="0.5" y="0.5" width="878" height="721" rx="69.5"/></g><text class="b" transform="translate(942 232.028)"><tspan x="0" y="0">About</tspan></text><text class="c" transform="translate(958 869.028)"><tspan x="0" y="0">닫기</tspan></text><text class="d" transform="translate(632 287.028)"><tspan x="-95.053" y="24">임소희 @lsh_623</tspan><tspan class="e"><tspan x="0" y="51"></tspan></tspan><tspan class="f"><tspan x="-280.775" y="77">‘임소희 @lsh_623’은 소희의 행방을 찾기 위해 노트북을 살펴보며 </tspan><tspan x="-173.327" y="104">소희의 다양한 모습과 생각을 읽어나가는 </tspan><tspan x="-163.68" y="131">스토리텔링 형식의 웹 추리게임입니다.</tspan></tspan><tspan class="g"><tspan x="0" y="156"></tspan><tspan x="0" y="180"></tspan><tspan x="0" y="204"></tspan><tspan x="-45.88" y="228">만든 사람들</tspan><tspan x="0" y="252"></tspan></tspan><tspan class="f"><tspan x="-150.81" y="278" xml:space="preserve">Storyteller, Developer     김유진</tspan><tspan x="0" y="305"></tspan><tspan x="-183.579" y="332" xml:space="preserve">Storyteller, Designer       김효진, 남로아</tspan></tspan></text><text class="h" transform="translate(645 670.028)"><tspan x="176.339" y="16">Special Thanks to 김상용 교수님, Group B</tspan><tspan x="335" y="32"></tspan><tspan x="180.56" y="48">Sogang University 2020-2 Visual Story</tspan><tspan class="i"><tspan x="335" y="64"></tspan><tspan x="335" y="80"></tspan><tspan x="335" y="96"></tspan><tspan x="335" y="112"></tspan></tspan><tspan class="j"><tspan x="199.553" y="128" xml:space="preserve">DM us on Instagram    </tspan><tspan class="k" y="128">@lsh_623</tspan></tspan></text></g></svg>