<svg xmlns="http://www.w3.org/2000/svg" width="18" height="18" viewBox="0 0 18 18"><defs><style>.a{fill:#707070;}</style></defs><path class="a" d="M35.547,28.694a7.919,7.919,0,0,0,.063-.894,8.47,8.47,0,0,0-.063-.894l1.966-1.479a.457.457,0,0,0,.127-.586L35.8,21.728a.464.464,0,0,0-.571-.185l-2.315.894a7.759,7.759,0,0,0-1.554-.894l-.349-2.373a.441.441,0,0,0-.444-.37H26.828a.441.441,0,0,0-.444.37l-.349,2.373a5.95,5.95,0,0,0-1.554.894l-2.315-.894a.464.464,0,0,0-.571.185l-1.839,3.113a.437.437,0,0,0,.127.586l1.966,1.479a7.918,7.918,0,0,0-.063.894,8.468,8.468,0,0,0,.063.894l-1.966,1.479a.457.457,0,0,0-.127.586L21.6,33.872a.452.452,0,0,0,.571.185l2.315-.894a7.759,7.759,0,0,0,1.554.894l.349,2.373a.441.441,0,0,0,.444.37h3.71a.441.441,0,0,0,.444-.37l.349-2.373a5.95,5.95,0,0,0,1.554-.894l2.315.894a.464.464,0,0,0,.571-.185l1.839-3.113a.472.472,0,0,0-.127-.586Zm-6.88,2.25A3.145,3.145,0,1,1,31.9,27.8,3.2,3.2,0,0,1,28.667,30.944Z" transform="translate(-19.692 -18.8)"/></svg>