<svg xmlns="http://www.w3.org/2000/svg" width="37.87" height="28.409" viewBox="0 0 37.87 28.409"><defs><style>.a{fill:#4285f4;}.b{fill:#34a853;}.c{fill:#fbbc04;}.d{fill:#ea4335;}.e{fill:#c5221f;}</style></defs><g transform="translate(0 0)"><path class="a" d="M2.582,38.1H8.607V23.471L0,17.016v18.5A2.581,2.581,0,0,0,2.582,38.1Z" transform="translate(0 -9.693)"/><path class="b" d="M68,38.1h6.025a2.581,2.581,0,0,0,2.582-2.582v-18.5L68,23.471Z" transform="translate(-38.737 -9.693)"/><path class="c" d="M68,2.589V13.778l8.607-6.455V3.88a3.873,3.873,0,0,0-6.2-3.1Z" transform="translate(-38.737 0)"/><path class="d" d="M20,17.2V6.016l10.328,7.746L40.656,6.016V17.2L30.328,24.951Z" transform="translate(-11.393 -3.427)"/><path class="e" d="M0,3.88V7.323l8.607,6.455V2.589L6.2.782A3.873,3.873,0,0,0,0,3.88Z" transform="translate(0 0)"/></g></svg>