<svg xmlns="http://www.w3.org/2000/svg" width="336.878" height="110.893" viewBox="0 0 336.878 110.893"><defs><style>.a{fill:#ea4335;}.b{fill:#fbbc05;}.c{fill:#4285f4;}.d{fill:#34a853;}</style></defs><path class="a" d="M552.752,199.741a27.8,27.8,0,0,1-55.6,0c0-16.067,12.481-27.711,27.8-27.711S552.752,183.674,552.752,199.741Zm-12.169,0c0-9.97-7.234-16.791-15.63-16.791s-15.629,6.822-15.629,16.791c0,9.87,7.234,16.791,15.629,16.791S540.583,209.6,540.583,199.741Z" transform="translate(-408.588 -141.383)"/><path class="b" d="M889.379,199.741a27.8,27.8,0,0,1-55.6,0c0-16.054,12.481-27.711,27.8-27.711S889.379,183.674,889.379,199.741Zm-12.169,0c0-9.97-7.234-16.791-15.63-16.791s-15.629,6.822-15.629,16.791c0,9.87,7.234,16.791,15.629,16.791S877.21,209.6,877.21,199.741Z" transform="translate(-685.245 -141.383)"/><path class="c" d="M1223.391,173.7v49.75c0,20.465-12.069,28.823-26.337,28.823a26.389,26.389,0,0,1-24.563-16.329l10.595-4.41c1.886,4.51,6.509,9.833,13.955,9.833,9.133,0,14.792-5.635,14.792-16.242v-3.985h-.425c-2.724,3.361-7.971,6.3-14.593,6.3-13.855,0-26.549-12.069-26.549-27.6,0-15.642,12.693-27.811,26.549-27.811,6.609,0,11.856,2.936,14.593,6.2h.425v-4.51h11.557ZM1212.7,199.841c0-9.758-6.509-16.891-14.793-16.891-8.4,0-15.429,7.134-15.429,16.891,0,9.658,7.034,16.691,15.429,16.691C1206.188,216.533,1212.7,209.5,1212.7,199.841Z" transform="translate(-961.787 -141.383)"/><path class="d" d="M1520.657,17.743V98.952h-11.869V17.743Z" transform="translate(-1240 -14.582)"/><path class="a" d="M1645.238,208.8l9.445,6.3a27.582,27.582,0,0,1-23.088,12.281c-15.742,0-27.5-12.169-27.5-27.711,0-16.479,11.857-27.711,26.137-27.711,14.38,0,21.414,11.444,23.713,17.628l1.262,3.148-37.044,15.342c2.836,5.56,7.246,8.4,13.431,8.4S1642.089,213.426,1645.238,208.8Zm-29.073-9.97,24.762-10.282c-1.362-3.461-5.46-5.872-10.282-5.872A15.2,15.2,0,0,0,1616.165,198.834Z" transform="translate(-1318.329 -141.326)"/><path class="c" d="M43.64,51.149V39.392H83.257a38.954,38.954,0,0,1,.587,7.1c0,8.82-2.411,19.727-10.182,27.5C66.1,81.858,56.446,86.056,43.653,86.056,19.94,86.056,0,66.741,0,43.028S19.94,0,43.653,0A41,41,0,0,1,73.138,11.856l-8.3,8.3a29.968,29.968,0,0,0-21.2-8.4c-17.316,0-30.859,13.955-30.859,31.272S26.324,74.3,43.64,74.3c11.232,0,17.628-4.51,21.726-8.608,3.323-3.323,5.51-8.071,6.372-14.555Z"/></svg>