<svg xmlns="http://www.w3.org/2000/svg" width="258" height="19" viewBox="0 0 258 19"><defs><style>.a,.b,.c{fill:#fefefe;}.a{font-size:16px;}.a,.b{font-family:AppleSDGothicNeo-Bold, Apple SD Gothic Neo;font-weight:700;}.b{font-size:14px;}</style></defs><g transform="translate(-1650 -5)"><text class="a" transform="translate(1845 19)"><tspan x="0" y="0">오전 3:26</tspan></text><text class="b" transform="translate(1723 19)"><tspan x="0" y="0">100%</tspan></text><text class="b" transform="translate(1650 19)"><tspan x="0" y="0">ABC</tspan></text><path class="c" d="M28.418,14.762a1.437,1.437,0,0,0,.786-.327,2.444,2.444,0,0,0,.684-.85,2.71,2.71,0,0,0,.278-1.255,2.68,2.68,0,0,0-.278-1.25,2.455,2.455,0,0,0-.684-.845,1.437,1.437,0,0,0-.786-.327ZM7.109,17.271a7.165,7.165,0,0,1-1.367-.127A1.866,1.866,0,0,1,4.16,15.567,7.142,7.142,0,0,1,4.033,14.2V10.484A7.2,7.2,0,0,1,4.16,9.1a1.979,1.979,0,0,1,.527-1.05,2.014,2.014,0,0,1,1.06-.532,7.033,7.033,0,0,1,1.382-.132h6.289l1.357-1.68H7.344a10.752,10.752,0,0,0-2.192.205,3.25,3.25,0,0,0-1.685.918,3.218,3.218,0,0,0-.913,1.68,10.932,10.932,0,0,0-.2,2.188v3.242a11.367,11.367,0,0,0,.2,2.217,3.159,3.159,0,0,0,.918,1.68,3.315,3.315,0,0,0,1.689.913,10.686,10.686,0,0,0,2.217.21h3.486l.615-1.689ZM26.016,6.832a3.357,3.357,0,0,0-1.7-.918,10.787,10.787,0,0,0-2.207-.205h-3.5l-.625,1.68h4.375a6.908,6.908,0,0,1,1.367.132,1.956,1.956,0,0,1,1.045.532A2,2,0,0,1,25.308,9.1a6.865,6.865,0,0,1,.132,1.377V14.2a6.886,6.886,0,0,1-.132,1.372,2.008,2.008,0,0,1-.532,1.05,1.929,1.929,0,0,1-1.045.527,7.165,7.165,0,0,1-1.367.127H16.055l-1.348,1.689h7.4a10.615,10.615,0,0,0,2.212-.21,3.369,3.369,0,0,0,1.694-.913,3.218,3.218,0,0,0,.9-1.68,11.367,11.367,0,0,0,.2-2.217V10.729a11.367,11.367,0,0,0-.2-2.217A3.218,3.218,0,0,0,26.016,6.832ZM6.836,16.07H11.8l.5-1.357h-1.25a1.624,1.624,0,0,1-.967-.278,1.586,1.586,0,0,1-.566-.723,1.785,1.785,0,0,1-.1-.947,1.887,1.887,0,0,1,.469-.952L12.451,8.59H6.836a3.109,3.109,0,0,0-.752.073,1.014,1.014,0,0,0-.747.747,3.057,3.057,0,0,0-.073.742v4.365a3.057,3.057,0,0,0,.073.742,1.026,1.026,0,0,0,.269.479A.991.991,0,0,0,6.084,16,3.322,3.322,0,0,0,6.836,16.07Zm10.186,0h5.635A3.213,3.213,0,0,0,23.389,16a.991.991,0,0,0,.479-.264,1.026,1.026,0,0,0,.269-.479,3.057,3.057,0,0,0,.073-.742V10.152a3.057,3.057,0,0,0-.073-.742,1.014,1.014,0,0,0-.747-.747,3.007,3.007,0,0,0-.732-.073h-4.99l-.488,1.367h1.26a1.629,1.629,0,0,1,.962.278,1.548,1.548,0,0,1,.566.718,1.8,1.8,0,0,1,.093.942,1.977,1.977,0,0,1-.459.962Zm-6.3-3.037a.57.57,0,0,1,.166-.381L16,6.275a.55.55,0,0,1,.449-.244.454.454,0,0,1,.376.2.561.561,0,0,1,.024.513l-1.67,4.463h3.115a.47.47,0,0,1,.332.117.393.393,0,0,1,.127.3.563.563,0,0,1-.156.381l-5.107,6.387a.55.55,0,0,1-.449.244.463.463,0,0,1-.381-.205.527.527,0,0,1-.02-.508l1.67-4.463H11.182a.468.468,0,0,1-.322-.122A.4.4,0,0,1,10.723,13.033Z" transform="translate(1760 1)"/><path class="c" d="M12.451,20.084a.675.675,0,0,0,.332-.093,2.4,2.4,0,0,0,.439-.356l2.266-2.178a.459.459,0,0,0,.137-.273.355.355,0,0,0-.088-.283,4.1,4.1,0,0,0-1.294-1.03,3.914,3.914,0,0,0-3.613.015,3.933,3.933,0,0,0-1.294,1.074.32.32,0,0,0-.049.254.459.459,0,0,0,.146.244l2.256,2.178a2.816,2.816,0,0,0,.439.352A.635.635,0,0,0,12.451,20.084ZM7,15.006a.452.452,0,0,0,.352.142.5.5,0,0,0,.332-.171A6.546,6.546,0,0,1,9.8,13.453a6.087,6.087,0,0,1,2.651-.586,6.01,6.01,0,0,1,2.671.6A6.933,6.933,0,0,1,17.246,15a.411.411,0,0,0,.317.156A.471.471,0,0,0,17.9,15l1.436-1.416a.4.4,0,0,0,.137-.273.421.421,0,0,0-.1-.293,7.446,7.446,0,0,0-1.782-1.533,9.686,9.686,0,0,0-5.142-1.455A9.686,9.686,0,0,0,7.314,11.48a7.41,7.41,0,0,0-1.787,1.533.407.407,0,0,0-.1.283.462.462,0,0,0,.137.283ZM3.164,11.158a.43.43,0,0,0,.327.132.449.449,0,0,0,.327-.151A11.6,11.6,0,0,1,7.729,8.395a11.927,11.927,0,0,1,4.722-.937,11.933,11.933,0,0,1,4.736.942A11.582,11.582,0,0,1,21.1,11.158a.458.458,0,0,0,.322.127.416.416,0,0,0,.322-.156L23.037,9.85a.442.442,0,0,0,.132-.288.436.436,0,0,0-.1-.288A11.354,11.354,0,0,0,20.3,6.861,14.766,14.766,0,0,0,16.611,5.2a14.612,14.612,0,0,0-8.325,0A14.785,14.785,0,0,0,4.6,6.861,11.354,11.354,0,0,0,1.836,9.273a.461.461,0,0,0-.093.288.442.442,0,0,0,.132.288Z" transform="translate(1810 1)"/><path class="c" d="M5.332,19.723H22.793a3.045,3.045,0,0,0,2.227-.742,2.957,2.957,0,0,0,.752-2.2V7.867a2.957,2.957,0,0,0-.752-2.2,3.045,3.045,0,0,0-2.227-.742H5.332A3.042,3.042,0,0,0,3.1,5.67a2.969,2.969,0,0,0-.747,2.2v8.916a2.969,2.969,0,0,0,.747,2.2A3.042,3.042,0,0,0,5.332,19.723Zm.068-1.67A1.378,1.378,0,0,1,4.39,17.7a1.406,1.406,0,0,1-.356-1.045V7.994a1.389,1.389,0,0,1,.356-1.04A1.39,1.39,0,0,1,5.4,6.607H22.715a1.387,1.387,0,0,1,1.016.347,1.4,1.4,0,0,1,.352,1.04v8.662A1.418,1.418,0,0,1,23.73,17.7a1.375,1.375,0,0,1-1.016.352Zm.869-7.842h.84a.376.376,0,0,0,.43-.42v-.85a.376.376,0,0,0-.43-.42H6.27a.376.376,0,0,0-.43.42v.85A.376.376,0,0,0,6.27,10.211Zm2.939,0h.85a.371.371,0,0,0,.42-.42v-.85a.371.371,0,0,0-.42-.42h-.85a.371.371,0,0,0-.42.42v.85A.371.371,0,0,0,9.209,10.211Zm2.939,0H13a.371.371,0,0,0,.42-.42v-.85a.371.371,0,0,0-.42-.42h-.85a.371.371,0,0,0-.42.42v.85A.371.371,0,0,0,12.148,10.211Zm2.949,0h.84a.371.371,0,0,0,.42-.42v-.85a.371.371,0,0,0-.42-.42H15.1a.376.376,0,0,0-.43.42v.85A.376.376,0,0,0,15.1,10.211Zm2.949,0h.83a.376.376,0,0,0,.43-.42v-.85a.376.376,0,0,0-.43-.42h-.83q-.439,0-.439.42v.85Q17.607,10.211,18.047,10.211Zm2.93,0h.85a.371.371,0,0,0,.42-.42v-.85a.371.371,0,0,0-.42-.42h-.85a.371.371,0,0,0-.42.42v.85A.371.371,0,0,0,20.977,10.211ZM6.27,13.16h.84a.376.376,0,0,0,.43-.42v-.85a.376.376,0,0,0-.43-.42H6.27a.376.376,0,0,0-.43.42v.85A.376.376,0,0,0,6.27,13.16Zm2.939,0h.85a.371.371,0,0,0,.42-.42v-.85a.371.371,0,0,0-.42-.42h-.85a.371.371,0,0,0-.42.42v.85A.371.371,0,0,0,9.209,13.16Zm2.939,0H13a.371.371,0,0,0,.42-.42v-.85a.371.371,0,0,0-.42-.42h-.85a.371.371,0,0,0-.42.42v.85A.371.371,0,0,0,12.148,13.16Zm2.949,0h.84a.371.371,0,0,0,.42-.42v-.85a.371.371,0,0,0-.42-.42H15.1a.376.376,0,0,0-.43.42v.85A.376.376,0,0,0,15.1,13.16Zm2.949,0h.83a.376.376,0,0,0,.43-.42v-.85a.376.376,0,0,0-.43-.42h-.83q-.439,0-.439.42v.85Q17.607,13.16,18.047,13.16Zm2.93,0h.85a.371.371,0,0,0,.42-.42v-.85a.371.371,0,0,0-.42-.42h-.85a.371.371,0,0,0-.42.42v.85A.371.371,0,0,0,20.977,13.16ZM6.27,16.129h.84a.384.384,0,0,0,.43-.439v-.84a.38.38,0,0,0-.43-.43H6.27a.38.38,0,0,0-.43.43v.84A.384.384,0,0,0,6.27,16.129Zm3.018,0H18.8a.453.453,0,0,0,.508-.518v-.684a.449.449,0,0,0-.508-.508H9.287a.445.445,0,0,0-.5.508v.684Q8.789,16.129,9.287,16.129Zm11.689,0h.85q.42,0,.42-.439v-.84a.376.376,0,0,0-.42-.43h-.85a.376.376,0,0,0-.42.43v.84Q20.557,16.129,20.977,16.129Z" transform="translate(1679 1)"/></g></svg>