<svg xmlns="http://www.w3.org/2000/svg" xmlns:xlink="http://www.w3.org/1999/xlink" width="40" height="40" viewBox="0 0 40 40"><defs><style>.a{fill:url(#a);}.b{fill:#381e1f;}</style><linearGradient id="a" y1="0.5" x2="1" y2="0.5" gradientUnits="objectBoundingBox"><stop offset="0" stop-color="#e5dd4a"/><stop offset="0.024" stop-color="#e4dc47"/><stop offset="0.178" stop-color="#e4d83b"/><stop offset="0.396" stop-color="#e4d534"/><stop offset="1" stop-color="#e4d533"/></linearGradient></defs><g transform="translate(-436.435 -286.357)"><rect class="a" width="40" height="40" rx="4" transform="translate(436.435 286.357)"/><g transform="translate(441.761 293.029)"><path class="b" d="M466.817,305.309c-8.061,0-14.595,5.166-14.595,11.538,0,4.148,2.769,7.783,6.924,9.817-.305,1.14-1.105,4.129-1.265,4.768-.2.794.29.784.611.57.251-.167,4-2.716,5.616-3.816a18.473,18.473,0,0,0,2.709.2c8.061,0,14.595-5.166,14.595-11.538S474.878,305.309,466.817,305.309Z" transform="translate(-452.222 -305.309)"/><g transform="translate(3.823 9.025)"><g transform="translate(0 0)"><path class="a" d="M466.364,326.194c-1.065,0-4.626.078-4.626.078-.892,0-.89,1.566,0,1.566h1.522s.009,4.07,0,5.044c0,.71,1.582.666,1.58-.044l.007-5.134s.51-.01,1.514-.01A.752.752,0,0,0,466.364,326.194Z" transform="translate(-461.069 -326.194)"/></g><g transform="translate(4.779)"><path class="a" d="M476.207,326.651c-.228-.487-1.528-.72-1.856,0-.375.824-1.726,4.718-2.175,5.75-.325.746,1.075,1.355,1.4.608l.3-1.065h2.784s-.1.044.274,1.019c.3.79,1.745.242,1.445-.548C477.955,331.288,476.477,327.226,476.207,326.651Zm-1.825,3.894.918-2.652.847,2.652Z" transform="translate(-472.128 -326.194)"/></g><g transform="translate(11.566 0.002)"><path class="a" d="M491.5,331.8c-.715,0-2.02-.007-2.02-.007s.006-3.944,0-4.9c0-.929-1.649-.925-1.646,0,0,1.324.007,5.587.007,5.587s-.121.848.6.848,2.339-.008,3.054-.008S492.212,331.8,491.5,331.8Z" transform="translate(-487.834 -326.198)"/></g><g transform="translate(16.12 0.005)"><path class="a" d="M503.673,332.242l-2.13-2.8s1.445-1.563,2.016-2.13c.333-.331-.7-1.367-1.029-1.037s-2.586,2.586-2.586,2.586.02-1.423,0-2.21c-.016-.618-1.569-.576-1.552.042.016.58-.019,5.826-.019,6.216,0,.613,1.562.612,1.562,0,0-.713,0-2.064,0-2.064l.459-.368,2.006,2.736C502.8,333.744,504.079,332.777,503.673,332.242Z" transform="translate(-498.372 -326.205)"/></g></g></g></g></svg>