<svg xmlns="http://www.w3.org/2000/svg" width="44" height="44" viewBox="0 0 44 44"><defs><style>.a{fill:#001e36;}.b{fill:#31a8ff;}</style></defs><g transform="translate(-3378.323 -179)"><rect class="a" width="44" height="44" rx="10" transform="translate(3378.323 179)"/><path class="b" d="M3404.9,234.092v-19.7c0-.144.062-.216.185-.216q.493,0,1.172-.015l1.464-.031,1.665-.031q.879-.016,1.742-.015a11.582,11.582,0,0,1,3.945.586,6.848,6.848,0,0,1,2.574,1.572,6.035,6.035,0,0,1,1.4,2.173,7.238,7.238,0,0,1,.431,2.482,6.856,6.856,0,0,1-1.141,4.069,6.441,6.441,0,0,1-3.083,2.327,12.268,12.268,0,0,1-4.315.725q-.679,0-.955-.015t-.832-.015v6.073a.245.245,0,0,1-.277.277h-3.763Q3404.9,234.339,3404.9,234.092Zm4.255-16.215v6.381q.4.031.74.031h1.017a7.271,7.271,0,0,0,2.2-.308,3.324,3.324,0,0,0,1.573-1.017,2.961,2.961,0,0,0,.6-1.973,3.121,3.121,0,0,0-.447-1.7,2.88,2.88,0,0,0-1.341-1.094,5.713,5.713,0,0,0-2.25-.386q-.739,0-1.31.015T3409.156,217.878Z" transform="translate(-18.161 -23.93)"/><path class="b" d="M3459.626,230.87a10.876,10.876,0,0,0-2.221-.647,9.721,9.721,0,0,0-2.142-.247,3.992,3.992,0,0,0-1.156.139,1.039,1.039,0,0,0-.6.385.97.97,0,0,0-.154.524.817.817,0,0,0,.185.493,2.1,2.1,0,0,0,.648.51,12.879,12.879,0,0,0,1.356.632,13.446,13.446,0,0,1,2.944,1.4,4.486,4.486,0,0,1,1.51,1.587,4.235,4.235,0,0,1,.447,1.973,4.429,4.429,0,0,1-.74,2.543,4.86,4.86,0,0,1-2.142,1.711,8.626,8.626,0,0,1-3.468.616,12.55,12.55,0,0,1-2.6-.247,9.546,9.546,0,0,1-2.081-.616.4.4,0,0,1-.216-.37v-3.329a.182.182,0,0,1,.077-.169.149.149,0,0,1,.169.015,9.008,9.008,0,0,0,2.5.94,9.782,9.782,0,0,0,2.25.292,3.459,3.459,0,0,0,1.588-.277.871.871,0,0,0,.51-.8,1.021,1.021,0,0,0-.462-.771,7.675,7.675,0,0,0-1.881-.894,11.337,11.337,0,0,1-2.728-1.387,4.689,4.689,0,0,1-1.448-1.618,4.24,4.24,0,0,1-.448-1.957,4.408,4.408,0,0,1,.648-2.312,4.7,4.7,0,0,1,2-1.757,6.353,6.353,0,0,1,3.116-.778,19.512,19.512,0,0,1,2.6.036,8.864,8.864,0,0,1,2.035.679.279.279,0,0,1,.185.17.859.859,0,0,1,.031.231v3.116a.209.209,0,0,1-.093.185.2.2,0,0,1-.216,0Z" transform="translate(-46.307 -31.775)"/></g></svg>