<svg xmlns="http://www.w3.org/2000/svg" width="1339.949" height="113.296" viewBox="0 0 1339.949 113.296">
  <defs>
    <style>
      .cls-1, .cls-3 {
        fill: #707070;
      }

      .cls-2 {
        fill: #fff;
      }

      .cls-2, .cls-3 {
        fill-rule: evenodd;
      }

      .cls-4 {
        fill: #f4f4f4;
        stroke: #d8d8d8;
      }

      .cls-5, .cls-7 {
        fill: #ccc;
      }

      .cls-6, .cls-7 {
        stroke: none;
      }

      .cls-8 {
        fill: none;
      }
    </style>
  </defs>
  <g id="그룹_8531" data-name="그룹 8531" transform="translate(-2706 -1153.704)">
    <path id="패스_2184" data-name="패스 2184" d="M12.082-2.027V0H.727A3.731,3.731,0,0,1,.973-1.465,7.749,7.749,0,0,1,2.361-3.75a21.756,21.756,0,0,1,2.76-2.6A23.4,23.4,0,0,0,8.906-9.99a4.357,4.357,0,0,0,.984-2.537,2.819,2.819,0,0,0-.9-2.115A3.234,3.234,0,0,0,6.656-15.5a3.294,3.294,0,0,0-2.437.914,3.459,3.459,0,0,0-.926,2.531l-2.168-.223a5.337,5.337,0,0,1,1.676-3.7A5.716,5.716,0,0,1,6.7-17.25a5.445,5.445,0,0,1,3.914,1.371,4.5,4.5,0,0,1,1.441,3.4,5.154,5.154,0,0,1-.422,2.027,7.868,7.868,0,0,1-1.4,2.1A34.116,34.116,0,0,1,6.984-5.332Q5.086-3.738,4.547-3.17a6.936,6.936,0,0,0-.891,1.143Zm2.262-6.445a15.721,15.721,0,0,1,.627-4.9,6.1,6.1,0,0,1,1.863-2.865,4.763,4.763,0,0,1,3.111-1.008,5.076,5.076,0,0,1,2.426.557,4.637,4.637,0,0,1,1.723,1.605,8.613,8.613,0,0,1,1.066,2.555,16.973,16.973,0,0,1,.387,4.061,15.765,15.765,0,0,1-.621,4.881A6.1,6.1,0,0,1,23.068-.721,4.763,4.763,0,0,1,19.945.293a4.714,4.714,0,0,1-3.9-1.781Q14.344-3.633,14.344-8.473Zm2.168,0q0,4.23.99,5.631a2.918,2.918,0,0,0,2.443,1.4,2.915,2.915,0,0,0,2.443-1.406q.99-1.406.99-5.625,0-4.242-.99-5.637A2.939,2.939,0,0,0,19.922-15.5a2.7,2.7,0,0,0-2.32,1.23Q16.512-12.7,16.512-8.473ZM38.777-2.027V0H27.422a3.731,3.731,0,0,1,.246-1.465A7.749,7.749,0,0,1,29.057-3.75a21.756,21.756,0,0,1,2.76-2.6A23.4,23.4,0,0,0,35.6-9.99a4.357,4.357,0,0,0,.984-2.537,2.819,2.819,0,0,0-.9-2.115,3.234,3.234,0,0,0-2.338-.861,3.294,3.294,0,0,0-2.437.914,3.459,3.459,0,0,0-.926,2.531l-2.168-.223a5.337,5.337,0,0,1,1.676-3.7,5.716,5.716,0,0,1,3.9-1.271,5.445,5.445,0,0,1,3.914,1.371,4.5,4.5,0,0,1,1.441,3.4,5.154,5.154,0,0,1-.422,2.027,7.868,7.868,0,0,1-1.4,2.1A34.116,34.116,0,0,1,33.68-5.332q-1.9,1.594-2.437,2.162a6.936,6.936,0,0,0-.891,1.143Zm2.262-6.445a15.721,15.721,0,0,1,.627-4.9,6.1,6.1,0,0,1,1.863-2.865,4.763,4.763,0,0,1,3.111-1.008,5.076,5.076,0,0,1,2.426.557,4.637,4.637,0,0,1,1.723,1.605,8.613,8.613,0,0,1,1.066,2.555,16.973,16.973,0,0,1,.387,4.061,15.765,15.765,0,0,1-.621,4.881A6.1,6.1,0,0,1,49.764-.721,4.763,4.763,0,0,1,46.641.293a4.714,4.714,0,0,1-3.9-1.781Q41.039-3.633,41.039-8.473Zm2.168,0q0,4.23.99,5.631a2.918,2.918,0,0,0,2.443,1.4,2.915,2.915,0,0,0,2.443-1.406q.99-1.406.99-5.625,0-4.242-.99-5.637A2.939,2.939,0,0,0,46.617-15.5a2.7,2.7,0,0,0-2.32,1.23Q43.207-12.7,43.207-8.473ZM72.063,1.056V-.456H59.775V-5.112H57.951V1.056Zm-2.448-15.84v2.5H62.943v1.464h6.672V-4.08h1.824V-19.3H69.615v3.048H62.943v1.464ZM66.255-9.1a51.335,51.335,0,0,1-9.048.744V-17.88h-1.8V-6.792h1.56a57.8,57.8,0,0,0,9.456-.768ZM92.9-2.027V0H81.545a3.731,3.731,0,0,1,.246-1.465A7.749,7.749,0,0,1,83.18-3.75a21.756,21.756,0,0,1,2.76-2.6A23.4,23.4,0,0,0,89.725-9.99a4.357,4.357,0,0,0,.984-2.537,2.819,2.819,0,0,0-.9-2.115,3.234,3.234,0,0,0-2.338-.861,3.294,3.294,0,0,0-2.437.914,3.459,3.459,0,0,0-.926,2.531l-2.168-.223a5.337,5.337,0,0,1,1.676-3.7,5.716,5.716,0,0,1,3.9-1.271,5.445,5.445,0,0,1,3.914,1.371,4.5,4.5,0,0,1,1.441,3.4,5.154,5.154,0,0,1-.422,2.027,7.868,7.868,0,0,1-1.4,2.1A34.116,34.116,0,0,1,87.8-5.332Q85.9-3.738,85.365-3.17a6.936,6.936,0,0,0-.891,1.143Zm21.5-9.589v-1.536h-3.192V-19.3h-1.824V-6.288h1.824v-5.328ZM104.03-17.28v-1.56H97.982v1.56Zm2.976,2.976v-1.512H94.982V-14.3ZM105.734-9.84c0-2.136-2.04-3.48-4.776-3.48-2.76,0-4.776,1.344-4.776,3.48,0,2.112,2.04,3.48,4.776,3.48S105.734-7.752,105.734-9.84Zm-1.824,0c0,1.248-1.344,2.016-2.952,2.016-1.56,0-2.976-.768-2.976-2.016s1.392-2.016,2.976-2.016C102.566-11.856,103.91-11.088,103.91-9.84Zm-6.288,4.7v1.512h11.76v5.3h1.824V-5.136ZM132.974,1.68V-19.3H131.15V1.68Zm-6.168-18.744h-9.984v1.536h8.04a14.163,14.163,0,0,1-8.808,11.616l1.056,1.44A16.336,16.336,0,0,0,126.806-17.064Zm35.78,5.448v-1.536h-3.192V-19.3H157.57V-6.288h1.824v-5.328ZM152.218-17.28v-1.56H146.17v1.56Zm2.976,2.976v-1.512H143.17V-14.3ZM153.922-9.84c0-2.136-2.04-3.48-4.776-3.48-2.76,0-4.776,1.344-4.776,3.48,0,2.112,2.04,3.48,4.776,3.48S153.922-7.752,153.922-9.84Zm-1.824,0c0,1.248-1.344,2.016-2.952,2.016-1.56,0-2.976-.768-2.976-2.016s1.392-2.016,2.976-2.016C150.754-11.856,152.1-11.088,152.1-9.84Zm-6.288,4.7v1.512h11.76v5.3h1.824V-5.136Zm30.648.528a10.515,10.515,0,0,1-5.448-8.832v-2.112h4.848v-1.536H164.266v1.536h4.848v2.16a11.332,11.332,0,0,1-5.52,9.288l1.2,1.368a13.481,13.481,0,0,0,5.28-6.888c.744,2.5,3.312,5.136,5.28,6.384Zm7.1-4.632v-1.536h-3.408V-19.3H178.33V1.68h1.824V-9.24Zm17.88,10.488v-7.3H187.066v7.3Zm-.192-19.3H187.21v1.512h12.168a34.206,34.206,0,0,1-.648,6.36H184.786V-8.64h18.936v-1.536H200.53A38.429,38.429,0,0,0,201.25-18.048ZM199.618-.264H188.89V-4.536h10.728ZM223.234,1.68V-19.3h-1.8v8.256h-2.808v-7.752H216.85V.6h1.776V-9.5h2.808V1.68ZM208.018-5.3v-9.888h6.312v-1.536h-8.136V-3.72h1.392a51.919,51.919,0,0,0,8.256-.624l-.168-1.488a40.653,40.653,0,0,1-7.032.528Zm35.616,6.6V-.12H230.458v-1.8h12.408V-6.336H236.65V-8.064h8.592V-9.552H226.306v1.488h8.52v1.728h-6.24V-4.92h12.456v1.656H228.61V1.3Zm.6-13.272c-3.024-.216-6.528-1.248-7.344-2.88h6.288v-1.488H228.37v1.488h6.288c-.744,1.656-4.032,2.688-7.3,2.9l.792,1.488c3.24-.336,6.408-1.416,7.608-3.288,1.248,1.872,4.68,2.928,7.68,3.288Zm-5.112-5.76V-19.2H232.4v1.464ZM270.87-8.568V-19.3h-1.824V-8.568Zm-4.608-1.848c-2.592-.936-5.352-2.976-5.352-6.36v-1.8h-1.848V-16.7c0,3.36-2.664,5.88-5.376,6.96l1.008,1.392c2.52-1.2,4.7-3.24,5.352-5.4A9.633,9.633,0,0,0,265.23-9Zm5.4,11.856V-.048h-12.6V-2.4H270.87V-7.416H257.19v1.488h11.856v2.16H257.238V1.44Zm20.472-3.384c0-2.184-2.616-3.552-7.056-3.552-4.416,0-7.032,1.368-7.032,3.552,0,2.232,2.616,3.6,7.032,3.6C289.518,1.656,292.134.288,292.134-1.944Zm.048-3.6V-19.3h-1.824v6.048h-2.544v-5.664h-1.776v12.6h1.776v-5.424h2.544v6.192Zm-7.752-4.1c0-2.088-1.968-3.288-4.536-3.288s-4.536,1.2-4.536,3.288c0,2.064,1.968,3.24,4.536,3.24S284.43-7.584,284.43-9.648Zm.648,5.688c3.216,0,5.208.792,5.208,2.04S288.294.12,285.078.12s-5.184-.792-5.184-2.04S281.862-3.96,285.078-3.96Zm-.072-9.912V-15.36H274.3v1.488ZM282.63-9.648c0,1.056-1.2,1.8-2.736,1.8-1.512,0-2.736-.744-2.736-1.8,0-1.1,1.224-1.824,2.736-1.824S282.63-10.752,282.63-9.648Zm-.144-7.2v-1.584h-5.448v1.584Zm30.476,7.656v-8.592h-10.08v8.592ZM320.426.6c-2.688-.264-6.264-1.776-6.84-3.672h6.144V-4.584h-14.3v1.512H311.5c-.528,1.9-3.864,3.408-6.864,3.648l.744,1.44c2.928-.264,6.072-1.7,7.152-3.6,1.176,1.872,4.032,3.264,7.008,3.624Zm-9.264-11.3h-6.48V-16.3h6.48Zm7.944,2.832V-19.3h-1.824V-7.872Zm-3.24,1.56v-1.56h-6.648v1.56Zm31.172-.024V-19.3h-1.824v6.024H342.67v-5.64h-1.776v12.36h1.776V-11.76h2.544v5.424Zm-8.064-3.672c0-2.016-1.872-3.216-4.344-3.216-2.5,0-4.368,1.2-4.368,3.216,0,2.04,1.872,3.24,4.368,3.24C337.1-6.768,338.974-7.968,338.974-10.008ZM347.038,1.68V-5.28H332.95v1.488h12.24V1.68ZM339.91-14.112V-15.6H329.254v1.488Zm-2.664,4.1c0,1.1-1.152,1.776-2.616,1.776-1.488,0-2.616-.672-2.616-1.776s1.128-1.752,2.616-1.752C336.07-11.76,337.246-11.112,337.246-10.008Zm.048-7.08v-1.536h-5.376v1.536Zm30.024,9.72V-19.3h-1.824V-7.368ZM362.59-9.6c-2.376-.84-5.208-3.432-5.208-6.792v-1.92h-1.848v1.992c0,3.336-2.376,6-5.3,7.344l1.128,1.416C354-9,355.87-10.944,356.518-13.1a10.454,10.454,0,0,0,4.992,4.968Zm4.752,10.992V-6.1H353.518V1.392ZM365.518-.12H355.366V-4.584h10.152Zm20.664-13.464v5.112h1.824V-19.3h-1.824v4.176h-4.3v1.536Zm-3.144,3.1c-2.232-.744-5.184-2.952-5.184-6.36v-1.728h-1.848v1.8c0,3.36-2.544,5.832-5.3,6.912L371.83-8.5c2.5-1.176,4.488-3.072,5.112-5.232a9.557,9.557,0,0,0,5.064,4.656ZM388.8,1.536V.024h-12.5v-2.28H388.03V-7.32H374.35v1.512h11.856v2.16H374.47V1.536ZM408.934-2.3c0-2.472-2.592-4.032-7.128-4.032-4.584,0-7.152,1.56-7.152,4.032,0,2.448,2.568,3.984,7.152,3.984C406.342,1.68,408.934.144,408.934-2.3Zm-7.128-2.472c3.312,0,5.256.888,5.256,2.472,0,1.56-1.944,2.448-5.256,2.448S396.55-.744,396.55-2.3C396.55-3.888,398.494-4.776,401.806-4.776Zm1.368-9.624h3.768v2.808H403.15v1.512h3.792v3.84h1.824V-19.3h-1.824v3.384h-3.768Zm-1.008,6.312v-9.6h-9.6v9.6Zm-1.848-1.488H394.39v-6.6h5.928ZM429.6,1.68V-19.3h-1.824v7.488h-4.9v1.536h4.9V1.68Zm-4.656-6.408a10.774,10.774,0,0,1-5.376-8.928v-3.816h-1.9v3.888a11.733,11.733,0,0,1-5.472,9.36l1.2,1.368a13.912,13.912,0,0,0,5.232-6.96,14.568,14.568,0,0,0,5.184,6.48Zm34.2-6.888v-1.536h-3.192V-19.3h-1.824v15.24h1.824v-7.56ZM456.714.96V-.552h-12.1V-5.544h-1.824V.96ZM445.65-17.76a5.248,5.248,0,0,0-5.544,5.3c0,3.168,2.4,5.232,5.568,5.232a5.2,5.2,0,0,0,5.544-5.256A5.249,5.249,0,0,0,445.65-17.76Zm0,1.56a3.578,3.578,0,0,1,3.744,3.744,3.541,3.541,0,0,1-3.72,3.672,3.62,3.62,0,0,1-3.744-3.7A3.62,3.62,0,0,1,445.65-16.2ZM478.266,1.68V-19.3h-1.8v8.352h-2.76v-7.848H471.93V.6h1.776V-9.408h2.76V1.68ZM470.514-6.1a33.97,33.97,0,0,1-7.2.648V-16.992H461.49V-3.864H463.1a39.826,39.826,0,0,0,7.632-.7Z" transform="translate(2709 1173)"/>
    <g id="Date_Star" data-name="Date Star" transform="translate(3847.513 1218.17)">
      <path id="패스_2183" data-name="패스 2183" class="cls-1" d="M8.558-1.436V0H.515A2.643,2.643,0,0,1,.689-1.038a5.489,5.489,0,0,1,.984-1.619A15.411,15.411,0,0,1,3.627-4.5,16.571,16.571,0,0,0,6.309-7.076a3.086,3.086,0,0,0,.7-1.8,2,2,0,0,0-.635-1.5,2.291,2.291,0,0,0-1.656-.61,2.333,2.333,0,0,0-1.727.647,2.45,2.45,0,0,0-.656,1.793L.8-8.7a3.78,3.78,0,0,1,1.187-2.619,4.049,4.049,0,0,1,2.764-.9,3.857,3.857,0,0,1,2.772.971A3.188,3.188,0,0,1,8.542-8.84a3.651,3.651,0,0,1-.3,1.436,5.573,5.573,0,0,1-.992,1.486,24.165,24.165,0,0,1-2.3,2.142Q3.6-2.648,3.221-2.245a4.913,4.913,0,0,0-.631.809ZM10.16-6A11.136,11.136,0,0,1,10.6-9.475a4.321,4.321,0,0,1,1.32-2.03,3.374,3.374,0,0,1,2.2-.714,3.6,3.6,0,0,1,1.718.394,3.285,3.285,0,0,1,1.22,1.137,6.1,6.1,0,0,1,.755,1.81A12.023,12.023,0,0,1,18.1-6a11.167,11.167,0,0,1-.44,3.457A4.322,4.322,0,0,1,16.34-.51a3.374,3.374,0,0,1-2.212.718,3.339,3.339,0,0,1-2.764-1.262Q10.16-2.573,10.16-6ZM11.7-6q0,3,.7,3.989a2.067,2.067,0,0,0,1.731.992,2.065,2.065,0,0,0,1.731-1q.7-1,.7-3.984,0-3-.7-3.993a2.082,2.082,0,0,0-1.747-.988,1.915,1.915,0,0,0-1.644.872A7.718,7.718,0,0,0,11.7-6ZM27.467-1.436V0H19.424A2.643,2.643,0,0,1,19.6-1.038a5.489,5.489,0,0,1,.984-1.619A15.411,15.411,0,0,1,22.537-4.5a16.571,16.571,0,0,0,2.681-2.577,3.086,3.086,0,0,0,.7-1.8,2,2,0,0,0-.635-1.5,2.291,2.291,0,0,0-1.656-.61,2.333,2.333,0,0,0-1.727.647,2.45,2.45,0,0,0-.656,1.793L19.706-8.7a3.78,3.78,0,0,1,1.187-2.619,4.049,4.049,0,0,1,2.764-.9,3.857,3.857,0,0,1,2.772.971A3.188,3.188,0,0,1,27.451-8.84a3.651,3.651,0,0,1-.3,1.436,5.573,5.573,0,0,1-.992,1.486,24.165,24.165,0,0,1-2.3,2.142Q22.512-2.648,22.13-2.245a4.913,4.913,0,0,0-.631.809ZM29.069-6a11.136,11.136,0,0,1,.444-3.474,4.321,4.321,0,0,1,1.32-2.03,3.374,3.374,0,0,1,2.2-.714,3.6,3.6,0,0,1,1.718.394,3.285,3.285,0,0,1,1.22,1.137,6.1,6.1,0,0,1,.755,1.81A12.023,12.023,0,0,1,37-6a11.167,11.167,0,0,1-.44,3.457A4.322,4.322,0,0,1,35.249-.51a3.374,3.374,0,0,1-2.212.718,3.339,3.339,0,0,1-2.764-1.262Q29.069-2.573,29.069-6ZM30.6-6q0,3,.7,3.989a2.067,2.067,0,0,0,1.731.992,2.065,2.065,0,0,0,1.731-1q.7-1,.7-3.984,0-3-.7-3.993a2.082,2.082,0,0,0-1.747-.988,1.915,1.915,0,0,0-1.644.872A7.718,7.718,0,0,0,30.6-6Zm8.757,6V-1.7h1.7V0Zm9.513,0H47.381V-9.521a7.722,7.722,0,0,1-1.415,1.029,10.032,10.032,0,0,1-1.573.772V-9.164a9.023,9.023,0,0,0,2.191-1.428,5.616,5.616,0,0,0,1.328-1.627h.963Zm8.193,0H55.574V-9.521a7.722,7.722,0,0,1-1.415,1.029,10.032,10.032,0,0,1-1.573.772V-9.164a9.023,9.023,0,0,0,2.191-1.428A5.616,5.616,0,0,0,56.1-12.219h.963Zm4.665,0V-1.7h1.7V0Zm9.513,0H69.751V-9.521a7.722,7.722,0,0,1-1.415,1.029,10.033,10.033,0,0,1-1.573.772V-9.164a9.024,9.024,0,0,0,2.191-1.428,5.616,5.616,0,0,0,1.328-1.627h.963Zm3.827-3.187,1.569-.133A2.813,2.813,0,0,0,77.45-1.6a2.2,2.2,0,0,0,1.531.577,2.385,2.385,0,0,0,1.826-.813,3.066,3.066,0,0,0,.747-2.158,2.771,2.771,0,0,0-.718-2.017,2.5,2.5,0,0,0-1.88-.739,2.605,2.605,0,0,0-1.3.328,2.531,2.531,0,0,0-.913.851l-1.4-.183L76.517-12h6.051v1.428H77.712L77.056-7.3a3.96,3.96,0,0,1,2.3-.764,3.642,3.642,0,0,1,2.689,1.1,3.858,3.858,0,0,1,1.1,2.839,4.432,4.432,0,0,1-.963,2.855,3.857,3.857,0,0,1-3.2,1.478,3.937,3.937,0,0,1-2.71-.93A3.628,3.628,0,0,1,75.072-3.187Zm26.171-5.5c0-2.448-2.125-4.046-5.372-4.046-3.2,0-5.338,1.6-5.338,4.046,0,2.278,1.853,3.808,4.692,4.012v2.822H89.19V-.765H102.6V-1.853H96.517V-4.675C99.373-4.862,101.243-6.409,101.243-8.687ZM100-8.67c0,1.785-1.632,2.958-4.131,2.958-2.465,0-4.08-1.173-4.08-2.958s1.615-2.975,4.08-2.975C98.387-11.645,100-10.455,100-8.67Zm15.181,1.462c0-1.564-1.938-2.278-4.573-2.278-2.618,0-4.573.714-4.573,2.278,0,1.53,1.955,2.261,4.573,2.261C113.245-4.947,115.183-5.678,115.183-7.208Zm-3.944,8.415v-4.25h6.069V-4.131H103.9v1.088h6.052v4.25Zm5.355-11.339V-11.22H104.66v1.088ZM113.84-7.208c0,.867-1.734,1.19-3.23,1.19-1.462,0-3.23-.323-3.23-1.19,0-.918,1.768-1.207,3.23-1.207C112.106-8.415,113.84-8.126,113.84-7.208Zm-.748-5.134v-1.105h-4.964v1.105ZM131.236-1.436V0h-8.043a2.643,2.643,0,0,1,.174-1.038,5.489,5.489,0,0,1,.984-1.619A15.411,15.411,0,0,1,126.305-4.5a16.571,16.571,0,0,0,2.681-2.577,3.086,3.086,0,0,0,.7-1.8,2,2,0,0,0-.635-1.5,2.291,2.291,0,0,0-1.656-.61,2.333,2.333,0,0,0-1.727.647,2.45,2.45,0,0,0-.656,1.793L123.474-8.7a3.78,3.78,0,0,1,1.187-2.619,4.049,4.049,0,0,1,2.764-.9,3.857,3.857,0,0,1,2.772.971,3.188,3.188,0,0,1,1.021,2.407,3.651,3.651,0,0,1-.3,1.436,5.573,5.573,0,0,1-.992,1.486,24.167,24.167,0,0,1-2.3,2.142Q126.28-2.648,125.9-2.245a4.913,4.913,0,0,0-.631.809Zm2.432-5.678v-1.7h1.7v1.7Zm0,7.114V-1.7h1.7V0Zm9.521,0h-1.494V-9.521a7.722,7.722,0,0,1-1.415,1.029,10.032,10.032,0,0,1-1.573.772V-9.164a9.023,9.023,0,0,0,2.191-1.428,5.616,5.616,0,0,0,1.328-1.627h.963Zm3.827-6a11.135,11.135,0,0,1,.444-3.474,4.321,4.321,0,0,1,1.32-2.03,3.374,3.374,0,0,1,2.2-.714,3.6,3.6,0,0,1,1.718.394,3.285,3.285,0,0,1,1.22,1.137,6.1,6.1,0,0,1,.755,1.81A12.023,12.023,0,0,1,154.951-6a11.167,11.167,0,0,1-.44,3.457A4.322,4.322,0,0,1,153.2-.51a3.374,3.374,0,0,1-2.212.718,3.339,3.339,0,0,1-2.764-1.262Q147.015-2.573,147.015-6Zm1.536,0q0,3,.7,3.989a2.067,2.067,0,0,0,1.731.992,2.065,2.065,0,0,0,1.731-1q.7-1,.7-3.984,0-3-.7-3.993a2.082,2.082,0,0,0-1.747-.988,1.915,1.915,0,0,0-1.644.872A7.718,7.718,0,0,0,148.551-6Z" transform="translate(-0.513 15.83)"/>
      <g id="_14" data-name="14" transform="translate(178.005)">
        <g id="_14-2" data-name="14" class="cls-2" transform="translate(0 0)">
          <path class="cls-6" d="M 4.211531639099121 17.88817596435547 C 4.20985746383667 17.88817596435547 4.208254814147949 17.88816070556641 4.206724166870117 17.88813591003418 C 4.200946807861328 17.87165832519531 4.195961475372314 17.84673881530762 4.195961475372314 17.80878639221191 C 4.195981025695801 17.80833625793457 4.196893215179443 17.77165603637695 4.213795185089111 17.65908813476562 L 5.26828145980835 11.87328624725342 L 5.317751407623291 11.60182571411133 L 5.11445140838623 11.41525650024414 L 0.655371367931366 7.323047637939453 C 0.57778000831604 7.242883682250977 0.5379738807678223 7.185781478881836 0.5179401636123657 7.150967121124268 C 0.5580637454986572 7.132619380950928 0.6319636702537537 7.107145309448242 0.7590702176094055 7.087606430053711 L 6.919301509857178 6.242326259613037 L 7.174591541290283 6.207295894622803 L 7.294201374053955 5.979055881500244 L 10.05697154998779 0.7070960998535156 L 10.06002140045166 0.7012860774993896 L 10.06291198730469 0.6953960657119751 C 10.13281154632568 0.5530460476875305 10.19374179840088 0.4999960660934448 10.21573162078857 0.4999960660934448 C 10.23775196075439 0.4999960660934448 10.29868125915527 0.5529960989952087 10.36846160888672 0.6952260732650757 L 10.37139129638672 0.7011960744857788 L 10.37447166442871 0.7070860862731934 L 13.13710117340088 5.979045867919922 L 13.25671195983887 6.207295894622803 L 13.51201152801514 6.242326259613037 L 19.6720085144043 7.087616443634033 C 19.79926300048828 7.107162952423096 19.87326431274414 7.132650852203369 19.91340827941895 7.150998592376709 C 19.8930778503418 7.184439182281494 19.85214042663574 7.239467144012451 19.77131462097168 7.315939426422119 L 15.31634140014648 11.41571617126465 L 15.11362171173096 11.60227584838867 L 15.16303157806396 11.87329578399658 L 16.21729469299316 17.65705299377441 C 16.21909713745117 17.6713752746582 16.22329139709473 17.71486282348633 16.22329139709473 17.80878639221191 C 16.22329139709473 17.84667205810547 16.21836090087891 17.87156867980957 16.21260452270508 17.88808250427246 C 16.14308929443359 17.88632774353027 16.06020736694336 17.85976409912109 15.9660816192627 17.80904579162598 L 15.95865154266357 17.80504608154297 L 15.95110130310059 17.80129623413086 L 10.43775177001953 15.06661605834961 L 10.21556186676025 14.95641613006592 L 9.993381500244141 15.06662654876709 L 4.480491638183594 17.80130577087402 L 4.476991653442383 17.80304527282715 L 4.473511695861816 17.80483627319336 C 4.332901477813721 17.87734603881836 4.249021530151367 17.88817596435547 4.211531639099121 17.88817596435547 Z"/>
          <path class="cls-7" d="M 10.21571922302246 1.481351852416992 L 7.737061500549316 6.211146354675293 L 7.497841835021973 6.66762638092041 L 6.987261772155762 6.737686157226562 L 1.567392349243164 7.481378555297852 L 5.452531814575195 11.04686546325684 L 5.859121322631836 11.42001628875732 L 5.760171890258789 11.96293640136719 L 4.829366683959961 17.07010841369629 L 9.771191596984863 14.61870574951172 L 10.21555137634277 14.39828586578369 L 10.65992164611816 14.61869621276855 L 15.60205078125 17.07004547119141 L 14.6711311340332 11.962965965271 L 14.57232093811035 11.42090606689453 L 14.97776222229004 11.04780578613281 L 18.85453414916992 7.480129241943359 L 13.44403171539307 6.737686157226562 L 12.93344116210938 6.66761589050293 L 12.6942310333252 6.211126327514648 L 10.21571922302246 1.481351852416992 M 10.21573162078857 -3.814697265625e-06 C 10.46123123168945 -3.814697265625e-06 10.66197109222412 0.1582851409912109 10.81735134124756 0.475006103515625 L 13.57998085021973 5.746966361999512 L 19.74347114562988 6.59273624420166 C 20.20223236083984 6.662276268005371 20.43130111694336 6.839905738830566 20.43130111694336 7.12575626373291 C 20.43130111694336 7.295705795288086 20.32505226135254 7.481156349182129 20.11195182800293 7.681965827941895 L 15.65492153167725 11.78363609313965 L 16.7109317779541 17.57696533203125 C 16.7192211151123 17.63115692138672 16.72329139709473 17.70837593078613 16.72329139709473 17.80878639221191 C 16.72329139709473 17.97105598449707 16.68033218383789 18.10814666748047 16.59458160400391 18.22021675109863 C 16.50868225097656 18.33242607116699 16.38404083251953 18.38817596435547 16.21992111206055 18.38817596435547 C 16.0646915435791 18.38817596435547 15.90103149414062 18.34195518493652 15.72892189025879 18.24922561645508 L 10.21557140350342 15.51454639434814 L 4.702681541442871 18.24922561645508 C 4.522591590881348 18.34209632873535 4.358921051025391 18.38817596435547 4.211530685424805 18.38817596435547 C 4.039571762084961 18.38817596435547 3.910711288452148 18.3322868347168 3.824811935424805 18.22021675109863 C 3.738910675048828 18.10800552368164 3.695960998535156 17.97105598449707 3.695960998535156 17.80878639221191 C 3.695960998535156 17.76256561279297 3.704092025756836 17.68519592285156 3.720521926879883 17.57696533203125 L 4.776381492614746 11.78363609313965 L 0.3069915771484375 7.681965827941895 C 0.1023311614990234 7.473476409912109 1.9073486328125e-06 7.288025856018066 1.9073486328125e-06 7.12575626373291 C 1.9073486328125e-06 6.839905738830566 0.2292308807373047 6.662276268005371 0.6875324249267578 6.59273624420166 L 6.851321220397949 5.746966361999512 L 9.614101409912109 0.475006103515625 C 9.769631385803223 0.1582851409912109 9.970221519470215 -3.814697265625e-06 10.21573162078857 -3.814697265625e-06 Z"/>
        </g>
      </g>
    </g>
    <g id="Sender" transform="translate(2706 1211)">
      <g id="그룹_8438" data-name="그룹 8438" transform="translate(63.548 5)">
        <path id="패스_2181" data-name="패스 2181" class="cls-1" d="M9.72-10.1v-1.638H.414V-10.1ZM8.946-6.7c0-1.692-1.62-2.952-3.78-2.952C2.952-9.648,1.35-8.388,1.35-6.7c0,1.71,1.62,2.916,3.816,2.916C7.326-3.78,8.946-4.986,8.946-6.7Zm-6.156-5.8H7.56v-1.6H2.79Zm10.3-2.124H10.98V-2.7h2.106V-7.686h2.232V-9.432H13.086Zm.378,15.66V-.63H4.626V-3.186H2.5v4.23ZM3.438-6.7c0-.756.792-1.278,1.728-1.278.918,0,1.728.522,1.728,1.278,0,.72-.81,1.224-1.728,1.224C4.23-5.472,3.438-5.976,3.438-6.7ZM17.856-4.212v1.674h8.8V1.44h2.088V-4.212H24.408V-6.948H30.6V-8.622H28.26a27.794,27.794,0,0,0,.486-5.436H17.964v1.692H26.64a20.634,20.634,0,0,1-.378,3.744H16.11v1.674H22.3v2.736ZM44.442-1.818c0-2-2.052-3.222-5.6-3.222s-5.58,1.224-5.58,3.222c0,1.98,2.034,3.222,5.58,3.222S44.442.162,44.442-1.818ZM31.9-11.772h3.2a5.4,5.4,0,0,1-3.852,4.788L32.49-5.346a6.339,6.339,0,0,0,3.726-3.6A6.8,6.8,0,0,0,39.69-5.8l1.152-1.656a4.977,4.977,0,0,1-3.546-4.32h3.042V-13.5H31.9ZM46.512-9.054v-1.728H44.226v-3.834H42.1v9.378h2.124V-9.054ZM38.844-3.348c2.232,0,3.474.558,3.474,1.53S41.076-.27,38.844-.27c-2.2,0-3.456-.576-3.456-1.548S36.648-3.348,38.844-3.348Zm23.2-5v-1.692H59.8v-4.572H57.672V-4.464H59.8V-8.352ZM49.23-3.69v1.674h8.46V1.44H59.8V-3.69Zm7.2-6.678v-1.638H47.124v1.638Zm-6.984-2.34H54.2v-1.638H49.446ZM55.62-7.182c0-1.656-1.62-2.772-3.8-2.772-2.214,0-3.852,1.116-3.852,2.772s1.656,2.79,3.852,2.79C54-4.392,55.62-5.526,55.62-7.182Zm-5.544,0c0-.7.774-1.17,1.746-1.17.936,0,1.728.468,1.728,1.17s-.792,1.188-1.728,1.188C50.868-5.994,50.076-6.48,50.076-7.182Zm26.388,8.6V-14.616h-2v6.3h-1.3v-6.012H71.208V.684H73.17V-6.624h1.3V1.422ZM70.7-3.816C68.8-4.932,67.77-7.218,67.77-10.35v-.666h2.5V-12.69H63.036v1.674h2.7v.7c0,3.168-1.044,5.472-3.312,6.984l1.278,1.4a7.539,7.539,0,0,0,3.024-4.086,7.66,7.66,0,0,0,2.808,3.726Zm22.5-4.7v-1.728H90.918v-4.374H88.794V-3.042h2.124V-8.514ZM91.3.954V-.738h-8.55v-3.42H80.64V.954ZM81-7.416v-4.23h5.058V-13.3H78.912v7.578h1.566a35.057,35.057,0,0,0,7.092-.558c-.108-.522-.216-1.062-.288-1.6A33.623,33.623,0,0,1,81-7.416Zm18.073,2.1V-6.715l8.06-3.4v1.486L100.741-6.01l6.392,2.648v1.486ZM109.2,0V-12.169h1.494v6.939l3.536-3.586h1.934l-3.37,3.271L116.5,0h-1.843l-2.914-4.507-1.054,1.013V0Zm7.936-4.408A4.544,4.544,0,0,1,118.5-8.035a4.1,4.1,0,0,1,2.772-.979,3.955,3.955,0,0,1,2.972,1.191,4.532,4.532,0,0,1,1.154,3.291,5.832,5.832,0,0,1-.51,2.677A3.614,3.614,0,0,1,123.4-.34a4.326,4.326,0,0,1-2.129.54,3.963,3.963,0,0,1-2.992-1.187A4.741,4.741,0,0,1,117.135-4.408Zm1.536,0a3.755,3.755,0,0,0,.739,2.536,2.368,2.368,0,0,0,1.859.843,2.354,2.354,0,0,0,1.851-.847,3.844,3.844,0,0,0,.739-2.582,3.642,3.642,0,0,0-.743-2.478,2.363,2.363,0,0,0-1.847-.843,2.373,2.373,0,0,0-1.859.838A3.738,3.738,0,0,0,118.671-4.408Zm7.877,1.776,1.478-.232a2.065,2.065,0,0,0,.693,1.361,2.416,2.416,0,0,0,1.59.473,2.335,2.335,0,0,0,1.527-.419,1.254,1.254,0,0,0,.5-.984.907.907,0,0,0-.44-.8,6.48,6.48,0,0,0-1.527-.506,13.937,13.937,0,0,1-2.279-.718,2.207,2.207,0,0,1-.963-.838,2.221,2.221,0,0,1-.328-1.183,2.27,2.27,0,0,1,.27-1.092A2.419,2.419,0,0,1,127.8-8.4a3.08,3.08,0,0,1,.95-.436,4.52,4.52,0,0,1,1.291-.178,5.1,5.1,0,0,1,1.822.3,2.478,2.478,0,0,1,1.158.809,3.162,3.162,0,0,1,.515,1.365l-1.461.2A1.6,1.6,0,0,0,131.5-7.4a2.11,2.11,0,0,0-1.349-.382,2.443,2.443,0,0,0-1.469.34.991.991,0,0,0-.44.8.825.825,0,0,0,.183.523,1.318,1.318,0,0,0,.573.4q.224.083,1.32.382a18.373,18.373,0,0,1,2.212.693,2.244,2.244,0,0,1,.984.784,2.19,2.19,0,0,1,.357,1.278,2.509,2.509,0,0,1-.436,1.407,2.817,2.817,0,0,1-1.258,1.021A4.578,4.578,0,0,1,130.317.2,4.142,4.142,0,0,1,127.7-.515,3.32,3.32,0,0,1,126.548-2.631ZM141.4-1.087a5.564,5.564,0,0,1-1.6,1A4.617,4.617,0,0,1,138.153.2a3.2,3.2,0,0,1-2.233-.71,2.343,2.343,0,0,1-.78-1.814,2.412,2.412,0,0,1,.295-1.183,2.44,2.44,0,0,1,.772-.859,3.63,3.63,0,0,1,1.075-.49,10.676,10.676,0,0,1,1.328-.224,13.657,13.657,0,0,0,2.665-.515q.008-.307.008-.39a1.65,1.65,0,0,0-.423-1.287,2.5,2.5,0,0,0-1.7-.506,2.639,2.639,0,0,0-1.556.369,2.257,2.257,0,0,0-.743,1.307L135.4-6.3a3.62,3.62,0,0,1,.656-1.515,2.874,2.874,0,0,1,1.32-.888,5.887,5.887,0,0,1,2-.311,5.3,5.3,0,0,1,1.834.266,2.417,2.417,0,0,1,1.038.668,2.35,2.35,0,0,1,.465,1.017,8.413,8.413,0,0,1,.075,1.378v1.992a21.144,21.144,0,0,0,.1,2.635A3.325,3.325,0,0,0,143.258,0H141.7A3.168,3.168,0,0,1,141.4-1.087Zm-.125-3.337a10.962,10.962,0,0,1-2.44.564,5.645,5.645,0,0,0-1.3.3,1.3,1.3,0,0,0-.589.486,1.276,1.276,0,0,0-.208.71,1.273,1.273,0,0,0,.452,1,1.946,1.946,0,0,0,1.324.4,3.081,3.081,0,0,0,1.536-.378,2.326,2.326,0,0,0,.988-1.033,3.609,3.609,0,0,0,.241-1.494ZM145.458,0V-7.653h-1.32V-8.815h1.32v-.938a4.107,4.107,0,0,1,.158-1.32,1.91,1.91,0,0,1,.76-.942,2.737,2.737,0,0,1,1.523-.361,7.314,7.314,0,0,1,1.395.149l-.224,1.3a5.014,5.014,0,0,0-.88-.083,1.309,1.309,0,0,0-.963.291,1.575,1.575,0,0,0-.282,1.087v.813h1.718v1.162h-1.718V0ZM158.34-1.353a4.575,4.575,0,0,1-1.208,1,2.7,2.7,0,0,1-1.341.378,2.694,2.694,0,0,1-1.436-.432,3.1,3.1,0,0,1-1.133-1.328,4.439,4.439,0,0,1-.436-1.967,5.767,5.767,0,0,1,.677-2.644,5.079,5.079,0,0,1,1.681-1.988A3.543,3.543,0,0,1,157.1-9a2.721,2.721,0,0,1,1.378.378,3.237,3.237,0,0,1,1.129,1.15l.282-1.287h1.486l-1.2,5.57q-.249,1.162-.249,1.287a.515.515,0,0,0,.17.386.575.575,0,0,0,.411.162,2.219,2.219,0,0,0,1.154-.506,4.638,4.638,0,0,0,1.5-1.781,5.139,5.139,0,0,0,.552-2.3,5.012,5.012,0,0,0-.71-2.59,5.059,5.059,0,0,0-2.117-1.926,6.707,6.707,0,0,0-3.109-.722,7.08,7.08,0,0,0-3.549.909,6.223,6.223,0,0,0-2.49,2.606,7.766,7.766,0,0,0-.884,3.64,6.668,6.668,0,0,0,.884,3.5,5.269,5.269,0,0,0,2.557,2.171,9.493,9.493,0,0,0,3.706.7,8.143,8.143,0,0,0,3.644-.73,5.7,5.7,0,0,0,2.2-1.776h1.5a5.886,5.886,0,0,1-1.453,1.776,7.754,7.754,0,0,1-2.449,1.432,9.85,9.85,0,0,1-3.42.527,11.642,11.642,0,0,1-3.4-.473,7.169,7.169,0,0,1-2.652-1.424,6.3,6.3,0,0,1-1.652-2.187,8.244,8.244,0,0,1-.7-3.387,9.258,9.258,0,0,1,.83-3.86,7.738,7.738,0,0,1,2.876-3.445,8.2,8.2,0,0,1,4.52-1.2,7.972,7.972,0,0,1,3.7.843,6.174,6.174,0,0,1,2.586,2.511,6.276,6.276,0,0,1,.805,3.121,6.183,6.183,0,0,1-1.693,4.275,4.414,4.414,0,0,1-3.3,1.677,2.1,2.1,0,0,1-.926-.174,1.12,1.12,0,0,1-.519-.5A2.141,2.141,0,0,1,158.34-1.353ZM154.323-3.6a2.638,2.638,0,0,0,.54,1.768A1.6,1.6,0,0,0,156.1-1.2a2.066,2.066,0,0,0,.979-.278,3.515,3.515,0,0,0,.984-.826,4.352,4.352,0,0,0,.768-1.39,5.024,5.024,0,0,0,.3-1.689,2.527,2.527,0,0,0-.56-1.751,1.769,1.769,0,0,0-1.365-.623,1.974,1.974,0,0,0-1,.27,3.08,3.08,0,0,0-.909.867,4.866,4.866,0,0,0-.706,1.453A5.324,5.324,0,0,0,154.323-3.6ZM167.089,0V-12.169h1.494v6.939l3.536-3.586h1.934l-3.37,3.271L174.394,0h-1.843l-2.914-4.507-1.054,1.013V0Zm7.936-4.408a4.544,4.544,0,0,1,1.361-3.627,4.1,4.1,0,0,1,2.772-.979,3.955,3.955,0,0,1,2.972,1.191,4.532,4.532,0,0,1,1.154,3.291,5.832,5.832,0,0,1-.51,2.677A3.614,3.614,0,0,1,181.288-.34a4.326,4.326,0,0,1-2.129.54,3.963,3.963,0,0,1-2.992-1.187A4.741,4.741,0,0,1,175.025-4.408Zm1.536,0a3.755,3.755,0,0,0,.739,2.536,2.368,2.368,0,0,0,1.859.843,2.354,2.354,0,0,0,1.851-.847,3.844,3.844,0,0,0,.739-2.582,3.642,3.642,0,0,0-.743-2.478,2.363,2.363,0,0,0-1.847-.843,2.373,2.373,0,0,0-1.859.838A3.738,3.738,0,0,0,176.561-4.408Zm7.877,1.776,1.478-.232a2.065,2.065,0,0,0,.693,1.361,2.416,2.416,0,0,0,1.59.473,2.335,2.335,0,0,0,1.527-.419,1.254,1.254,0,0,0,.5-.984.907.907,0,0,0-.44-.8,6.48,6.48,0,0,0-1.527-.506,13.937,13.937,0,0,1-2.279-.718,2.207,2.207,0,0,1-.963-.838,2.221,2.221,0,0,1-.328-1.183,2.27,2.27,0,0,1,.27-1.092,2.419,2.419,0,0,1,.735-.834,3.08,3.08,0,0,1,.95-.436,4.52,4.52,0,0,1,1.291-.178,5.1,5.1,0,0,1,1.822.3,2.478,2.478,0,0,1,1.158.809,3.162,3.162,0,0,1,.515,1.365l-1.461.2a1.6,1.6,0,0,0-.577-1.062,2.11,2.11,0,0,0-1.349-.382,2.443,2.443,0,0,0-1.469.34.991.991,0,0,0-.44.8.825.825,0,0,0,.183.523,1.318,1.318,0,0,0,.573.4q.224.083,1.32.382a18.373,18.373,0,0,1,2.212.693,2.244,2.244,0,0,1,.984.784,2.19,2.19,0,0,1,.357,1.278,2.509,2.509,0,0,1-.436,1.407,2.817,2.817,0,0,1-1.258,1.021A4.578,4.578,0,0,1,188.207.2a4.142,4.142,0,0,1-2.619-.714A3.32,3.32,0,0,1,184.438-2.631Zm14.85,1.544a5.564,5.564,0,0,1-1.6,1A4.617,4.617,0,0,1,196.043.2a3.2,3.2,0,0,1-2.233-.71,2.343,2.343,0,0,1-.78-1.814,2.412,2.412,0,0,1,.295-1.183,2.44,2.44,0,0,1,.772-.859,3.63,3.63,0,0,1,1.075-.49A10.676,10.676,0,0,1,196.5-5.08a13.657,13.657,0,0,0,2.665-.515q.008-.307.008-.39a1.65,1.65,0,0,0-.423-1.287,2.5,2.5,0,0,0-1.7-.506,2.639,2.639,0,0,0-1.556.369,2.257,2.257,0,0,0-.743,1.307l-1.461-.2a3.62,3.62,0,0,1,.656-1.515,2.874,2.874,0,0,1,1.32-.888,5.887,5.887,0,0,1,2-.311,5.3,5.3,0,0,1,1.834.266,2.417,2.417,0,0,1,1.038.668,2.35,2.35,0,0,1,.465,1.017,8.413,8.413,0,0,1,.075,1.378v1.992a21.144,21.144,0,0,0,.1,2.635A3.325,3.325,0,0,0,201.148,0h-1.561A3.168,3.168,0,0,1,199.288-1.087Zm-.125-3.337a10.962,10.962,0,0,1-2.44.564,5.645,5.645,0,0,0-1.3.3,1.3,1.3,0,0,0-.589.486,1.276,1.276,0,0,0-.208.71,1.273,1.273,0,0,0,.452,1,1.946,1.946,0,0,0,1.324.4,3.081,3.081,0,0,0,1.536-.378,2.326,2.326,0,0,0,.988-1.033,3.609,3.609,0,0,0,.241-1.494ZM203.347,0V-7.653h-1.32V-8.815h1.32v-.938a4.107,4.107,0,0,1,.158-1.32,1.91,1.91,0,0,1,.76-.942,2.737,2.737,0,0,1,1.523-.361,7.314,7.314,0,0,1,1.395.149l-.224,1.3a5.014,5.014,0,0,0-.88-.083,1.309,1.309,0,0,0-.963.291,1.575,1.575,0,0,0-.282,1.087v.813h1.718v1.162h-1.718V0Zm4.79,0V-1.7h1.7V0Zm4.026.73,1.453.216a1.384,1.384,0,0,0,.506.979,2.488,2.488,0,0,0,1.519.415,2.668,2.668,0,0,0,1.6-.415,2.043,2.043,0,0,0,.764-1.162,9.543,9.543,0,0,0,.108-1.917A3.073,3.073,0,0,1,215.674,0a3.327,3.327,0,0,1-2.814-1.312,5.051,5.051,0,0,1-1-3.146,5.855,5.855,0,0,1,.457-2.328,3.653,3.653,0,0,1,1.324-1.648,3.575,3.575,0,0,1,2.038-.581,3.16,3.16,0,0,1,2.573,1.262V-8.815h1.378V-1.2a7.227,7.227,0,0,1-.419,2.918,3.066,3.066,0,0,1-1.328,1.357,4.6,4.6,0,0,1-2.237.5,4.219,4.219,0,0,1-2.548-.71A2.4,2.4,0,0,1,212.163.73Zm1.237-5.3a3.824,3.824,0,0,0,.689,2.532,2.188,2.188,0,0,0,1.727.8,2.208,2.208,0,0,0,1.727-.793,3.7,3.7,0,0,0,.7-2.486,3.615,3.615,0,0,0-.718-2.44,2.22,2.22,0,0,0-1.731-.822,2.157,2.157,0,0,0-1.693.809A3.594,3.594,0,0,0,213.4-4.565Zm7.936.158A4.544,4.544,0,0,1,222.7-8.035a4.1,4.1,0,0,1,2.772-.979,3.955,3.955,0,0,1,2.972,1.191,4.532,4.532,0,0,1,1.154,3.291,5.832,5.832,0,0,1-.51,2.677A3.614,3.614,0,0,1,227.6-.34a4.326,4.326,0,0,1-2.129.54,3.963,3.963,0,0,1-2.992-1.187A4.741,4.741,0,0,1,221.335-4.408Zm1.536,0a3.755,3.755,0,0,0,.739,2.536,2.368,2.368,0,0,0,1.859.843,2.354,2.354,0,0,0,1.851-.847,3.844,3.844,0,0,0,.739-2.582,3.642,3.642,0,0,0-.743-2.478,2.363,2.363,0,0,0-1.847-.843,2.373,2.373,0,0,0-1.859.838A3.738,3.738,0,0,0,222.871-4.408ZM231.769,0V-1.7h1.7V0Zm4.308,0V-12.169h1.494v6.939l3.536-3.586h1.934l-3.37,3.271L243.382,0h-1.843l-2.914-4.507-1.054,1.013V0Zm8.475,0V-8.815H245.9v1.336a3.647,3.647,0,0,1,.95-1.237,1.659,1.659,0,0,1,.959-.3,2.914,2.914,0,0,1,1.536.481l-.515,1.386a2.138,2.138,0,0,0-1.1-.324,1.423,1.423,0,0,0-.88.295,1.6,1.6,0,0,0-.556.818,5.82,5.82,0,0,0-.249,1.743V0ZM258.1-5.321l-8.06,3.445V-3.362l6.383-2.648-6.383-2.623v-1.486l8.06,3.4Z" transform="translate(0.452 15)"/>
        <path id="패스_2182" data-name="패스 2182" class="cls-1" d="M8.944-4.08a34.5,34.5,0,0,1-6.656.592v-7.984H1.072v9.056H1.92a40.034,40.034,0,0,0,7.2-.64Zm2.4-8.784H10.128V1.12h1.216V-6.272h2.288v-1.04H11.344Zm6.4,1.216c-2.032,0-3.072,1.984-3.072,4.784,0,2.816,1.04,4.784,3.072,4.784,1.92,0,2.944-1.712,3.072-4.24h1.5V.448H23.5v-13.04H22.32v5.264h-1.5C20.72-9.872,19.68-11.648,17.744-11.648Zm1.872,4.784c0,2.272-.736,3.712-1.872,3.712-1.12,0-1.84-1.44-1.84-3.712,0-2.256.72-3.712,1.84-3.712C18.88-10.576,19.616-9.12,19.616-6.864ZM26.24,1.12V-12.864h-1.2V1.12Zm13.84,0V-12.864h-1.2V1.12Zm-2.72-.7V-12.528H36.192v5.1H33.84V-6.4h2.352V.416ZM34.192-11.232h-5.5v1.024h4.256a9.286,9.286,0,0,1-4.8,7.44l.832.9A10.821,10.821,0,0,0,34.192-11.232Z" transform="translate(0.452 43)"/>
        <g id="그룹_8437" data-name="그룹 8437" transform="translate(39.457 30.274)">
          <path id="Triangle" class="cls-3" d="M581.081-12.884,585.162-17H577Z" transform="translate(-564.687 23.77)"/>
        </g>
      </g>
      <g id="타원_1362" data-name="타원 1362" class="cls-4">
        <circle class="cls-6" cx="28" cy="28" r="28"/>
        <circle class="cls-8" cx="28" cy="28" r="27.5"/>
      </g>
      <g id="그룹_8505" data-name="그룹 8505" transform="translate(-4 1)">
        <circle id="타원_1351" data-name="타원 1351" class="cls-5" cx="5" cy="5" r="5" transform="translate(27 15)"/>
        <path id="사각형_16768" data-name="사각형 16768" class="cls-5" d="M4,0H18a4,4,0,0,1,4,4V9a0,0,0,0,1,0,0H0A0,0,0,0,1,0,9V4A4,4,0,0,1,4,0Z" transform="translate(21 29)"/>
      </g>
    </g>
  </g>
</svg>
