<svg xmlns="http://www.w3.org/2000/svg" xmlns:xlink="http://www.w3.org/1999/xlink" viewBox="0 0 287.6 683"><defs><style>.cls-1,.cls-13,.cls-15,.cls-8{fill:none;}.cls-2{fill:#fff;}.cls-3{clip-path:url(#clip-path);}.cls-4{fill:#322924;}.cls-5{fill:#847f7c;}.cls-6{fill:#837e7b;}.cls-7{fill:#f5f5f5;stroke:#020202;}.cls-13,.cls-15,.cls-7,.cls-8{stroke-miterlimit:10;}.cls-13,.cls-15,.cls-7{stroke-width:0.75px;}.cls-8{stroke:#565656;stroke-width:0.5px;}.cls-9{font-size:9px;fill:#b8b8b8;font-family:AppleSDGothicNeo-Medium-KSCpc-EUC-H, Apple SD Gothic Neo;}.cls-10{font-size:11px;font-family:AppleSDGothicNeo-Bold-KSCpc-EUC-H, Apple SD Gothic Neo;font-weight:700;}.cls-11{fill:#c2bfbe;}.cls-12{fill:#fc4747;}.cls-13{stroke:#000;}.cls-14{fill:#fdb225;}.cls-15{stroke:#864604;}.cls-16{fill:#29c432;}.cls-17{fill:#0c5502;}.cls-18{fill:#4c4c4c;}.cls-19{fill:#a6a6a6;}</style><clipPath id="clip-path"><rect class="cls-1" x="15.12" y="21.5" width="284.76" height="575" rx="4.95" ry="4.95"/></clipPath></defs><title>자산 16채팅</title><g id="레이어_2" data-name="레이어 2"><g id="레이어_1-2" data-name="레이어 1"><rect class="cls-2" x="15.92" y="21.78" width="271.68" height="575" rx="4.95" ry="4.95"/><g class="cls-3"><rect class="cls-4" width="63.63" height="683" rx="12" ry="12"/></g><circle class="cls-5" cx="40.23" cy="67.97" r="4"/><path class="cls-5" d="M46.8,78.44c-.38-2.75-3.34-4.9-6.95-4.9s-6.58,2.15-7,4.9Z"/><path class="cls-2" d="M40.32,100.93c-3.69,0-6.68,2.57-6.68,5.75a5.47,5.47,0,0,0,2.39,4.4l0,2.62a.51.51,0,0,0,.77.44l3-1.73.5,0c3.69,0,6.68-2.58,6.68-5.75S44,100.93,40.32,100.93Z"/><circle class="cls-5" cx="34.62" cy="143.83" r="1.64"/><circle class="cls-5" cx="40.51" cy="143.94" r="1.64"/><circle class="cls-5" cx="46.4" cy="143.96" r="1.64"/><path class="cls-6" d="M42,575.28a.72.72,0,0,1,.31-.56l.93-.62a.72.72,0,0,1,.64-.07l.66.25a5.84,5.84,0,0,0,1.5-2.48l-.57-.41a.7.7,0,0,1-.29-.56v-1.12a.7.7,0,0,1,.29-.57l.57-.42h0a5.72,5.72,0,0,0-1.41-2.52l-.1.07-.64.29a.72.72,0,0,1-.64,0l-1-.56a.74.74,0,0,1-.35-.54l-.07-.71s0-.07,0-.1a5.57,5.57,0,0,0-1.36-.17,5.87,5.87,0,0,0-1.52.21l0,.48a.77.77,0,0,1-.35.54l-1,.56a.72.72,0,0,1-.64,0l-.46-.21A5.69,5.69,0,0,0,35,568.7l.43.31a.71.71,0,0,1,.3.57v1.12a.68.68,0,0,1-.3.57l-.44.32a5.72,5.72,0,0,0,1.53,2.67l.53-.24a.72.72,0,0,1,.64,0l1,.56a.69.69,0,0,1,.34.54l.06.55a5.92,5.92,0,0,0,1.47.2,5.55,5.55,0,0,0,1.43-.19Zm-3.71-5.11a2.25,2.25,0,1,1,2.25,2.25A2.25,2.25,0,0,1,38.3,570.17Z"/><rect class="cls-7" x="72.99" y="59.58" width="207.88" height="13.56" rx="3.39" ry="3.39"/><circle class="cls-8" cx="129.55" cy="65.99" r="3.3"/><line class="cls-8" x1="134.45" y1="71.02" x2="132.03" y2="68.48"/><text class="cls-9" transform="translate(137.15 69.87)">채팅방 이름, 참여자 검색</text><text class="cls-10" transform="translate(73.61 41.85)">채팅</text><path class="cls-11" d="M35.22,544.83l9-9-.46-.47-1.35,1.35a3.87,3.87,0,0,0-2-.58,3.78,3.78,0,0,0-3.82,3.71v2.56l-.36.51-1.47,1.47.46.47Z"/><path class="cls-11" d="M45.43,544.26l-1.22-1.71v-2.72a3.58,3.58,0,0,0-.81-2.25l-6.69,6.68H39v.09a1.52,1.52,0,0,0,3,0s0-.06,0-.09Z"/><circle class="cls-12" cx="26.49" cy="29.7" r="4.26"/><line class="cls-13" x1="24.28" y1="27.75" x2="28.6" y2="31.7"/><line class="cls-13" x1="28.62" y1="27.7" x2="24.3" y2="31.65"/><circle class="cls-14" cx="40.5" cy="29.52" r="4.18"/><line class="cls-15" x1="37.39" y1="29.65" x2="43.51" y2="29.48"/><circle class="cls-16" cx="54.62" cy="29.44" r="4.06"/><path class="cls-17" d="M52.49,28.18V31a.63.63,0,0,0,.63.63H56Z"/><path class="cls-17" d="M56.8,30.81V28a.63.63,0,0,0-.63-.63H53.31Z"/><path class="cls-18" d="M265.51,32.67c-3.24,0-5.86,2.29-5.86,5.11a4.89,4.89,0,0,0,2.09,3.91l0,2.32a.44.44,0,0,0,.67.39l2.63-1.54.45,0c3.23,0,5.85-2.28,5.85-5.1S268.74,32.67,265.51,32.67Z"/><polygon class="cls-18" points="277.1 33.95 275.04 33.95 275.04 31.84 273.74 31.84 273.74 33.95 271.79 33.95 271.79 35.2 273.74 35.2 273.74 37.26 275.04 37.26 275.04 35.2 277.1 35.2 277.1 33.95"/><polygon class="cls-19" points="98.03 38.51 95.41 35.92 100.64 35.92 98.03 38.51"/></g></g></svg>