<svg xmlns="http://www.w3.org/2000/svg" xmlns:xlink="http://www.w3.org/1999/xlink" width="1920" height="1080" viewBox="0 0 1920 1080">
  <defs>
    <style>
      .cls-1 {
        clip-path: url(#clip-캘린더_5);
      }

      .cls-12, .cls-2, .cls-3 {
        fill: #fff;
      }

      .cls-2 {
        opacity: 0.359;
      }

      .cls-4 {
        fill: #707070;
      }

      .cls-5 {
        fill: #f5f5f5;
      }

      .cls-6 {
        fill: #c6c6c6;
      }

      .cls-17, .cls-7, .cls-8 {
        fill: none;
      }

      .cls-7 {
        stroke: #bfbfbf;
      }

      .cls-8 {
        stroke: #e6e5e6;
      }

      .cls-9 {
        fill: #d0ebfe;
      }

      .cls-10 {
        fill: #505050;
      }

      .cls-11 {
        fill: #f0d8f6;
      }

      .cls-12 {
        stroke: #dfdfdf;
      }

      .cls-13 {
        fill: #bf57d7;
      }

      .cls-14 {
        fill: #8b8b8b;
      }

      .cls-15 {
        fill: #f93b2f;
      }

      .cls-16 {
        stroke: none;
      }
    </style>
    <clipPath id="clip-캘린더_5">
      <rect width="1920" height="1080"/>
    </clipPath>
  </defs>
  <g id="캘린더_5" data-name="캘린더 – 5" class="cls-1">
    <rect class="cls-3" width="1920" height="1080"/>
    <g id="그룹_8530" data-name="그룹 8530">
      <path id="bg_white" class="cls-2" d="M0,0H1029V732a6,6,0,0,1-6,6H6a6,6,0,0,1-6-6Z" transform="translate(434 182)"/>
      <path id="head" class="cls-3" d="M0,0H1029V87H0Z" transform="translate(434 182)"/>
      <path id="패스_1984" data-name="패스 1984" class="cls-4" d="M2.2-17.175H6.99a4.446,4.446,0,0,1,.5-2.136A3.568,3.568,0,0,1,8.9-20.756a4.341,4.341,0,0,1,2.17-.521,4.065,4.065,0,0,1,2.059.487,3.387,3.387,0,0,1,1.3,1.3,3.706,3.706,0,0,1,.453,1.837,4.508,4.508,0,0,1-.291,1.606,6.392,6.392,0,0,1-1.1,1.743q-.812.974-2.35,2.478L2.5-3.469V0H20.286V-4.153H9.451V-4.46l5.127-4.888A38.922,38.922,0,0,0,17.8-12.723a10.056,10.056,0,0,0,1.658-2.692,7.448,7.448,0,0,0,.487-2.7,6.673,6.673,0,0,0-1.051-3.708,7.1,7.1,0,0,0-2.982-2.546,10.443,10.443,0,0,0-4.546-.923A10.6,10.6,0,0,0,6.6-24.268a7.878,7.878,0,0,0-3.23,2.854A7.731,7.731,0,0,0,2.2-17.175ZM33.376.632A8.892,8.892,0,0,0,38.632-.914,9.7,9.7,0,0,0,42-5.366a18.7,18.7,0,0,0,1.171-6.99,18.387,18.387,0,0,0-1.188-6.981,9.725,9.725,0,0,0-3.375-4.426,8.894,8.894,0,0,0-5.229-1.53,8.943,8.943,0,0,0-5.229,1.53,9.63,9.63,0,0,0-3.384,4.418,18.439,18.439,0,0,0-1.179,6.973,18.64,18.64,0,0,0,1.179,7A9.775,9.775,0,0,0,28.13-.914,8.853,8.853,0,0,0,33.376.632Zm0-4.084a3.36,3.36,0,0,1-2.427-1,6.558,6.558,0,0,1-1.581-2.982,18.62,18.62,0,0,1-.555-4.939,18.346,18.346,0,0,1,.555-4.9,6.421,6.421,0,0,1,1.581-2.948,3.39,3.39,0,0,1,2.427-.983,3.381,3.381,0,0,1,2.435.983,6.464,6.464,0,0,1,1.572,2.939,18.326,18.326,0,0,1,.555,4.913,18.62,18.62,0,0,1-.555,4.939,6.607,6.607,0,0,1-1.572,2.982A3.351,3.351,0,0,1,33.376-3.452ZM46.758-17.175h4.785a4.446,4.446,0,0,1,.5-2.136,3.568,3.568,0,0,1,1.418-1.444,4.341,4.341,0,0,1,2.17-.521,4.065,4.065,0,0,1,2.059.487,3.387,3.387,0,0,1,1.3,1.3,3.706,3.706,0,0,1,.453,1.837,4.508,4.508,0,0,1-.291,1.606,6.392,6.392,0,0,1-1.1,1.743q-.812.974-2.35,2.478L47.048-3.469V0H64.839V-4.153H54V-4.46l5.127-4.888a38.922,38.922,0,0,0,3.221-3.375,10.056,10.056,0,0,0,1.658-2.692,7.448,7.448,0,0,0,.487-2.7,6.673,6.673,0,0,0-1.051-3.708,7.1,7.1,0,0,0-2.982-2.546,10.443,10.443,0,0,0-4.546-.923,10.6,10.6,0,0,0-4.768,1.025,7.878,7.878,0,0,0-3.23,2.854A7.731,7.731,0,0,0,46.758-17.175ZM77.93.632A8.892,8.892,0,0,0,83.185-.914a9.7,9.7,0,0,0,3.367-4.452,18.7,18.7,0,0,0,1.171-6.99,18.387,18.387,0,0,0-1.188-6.981,9.725,9.725,0,0,0-3.375-4.426,8.894,8.894,0,0,0-5.229-1.53,8.943,8.943,0,0,0-5.229,1.53,9.63,9.63,0,0,0-3.384,4.418,18.439,18.439,0,0,0-1.179,6.973,18.64,18.64,0,0,0,1.179,7,9.775,9.775,0,0,0,3.367,4.46A8.853,8.853,0,0,0,77.93.632Zm0-4.084a3.36,3.36,0,0,1-2.427-1,6.558,6.558,0,0,1-1.581-2.982,18.62,18.62,0,0,1-.555-4.939,18.346,18.346,0,0,1,.555-4.9A6.421,6.421,0,0,1,75.5-20.226a3.39,3.39,0,0,1,2.427-.983,3.381,3.381,0,0,1,2.435.983,6.464,6.464,0,0,1,1.572,2.939,18.326,18.326,0,0,1,.555,4.913,18.62,18.62,0,0,1-.555,4.939,6.607,6.607,0,0,1-1.572,2.982A3.351,3.351,0,0,1,77.93-3.452Zm38.823,5.377V-1.33H99.637v-6.2h-4.06v9.45Zm-9.59-16.17a44.7,44.7,0,0,1-11.27.945V-26.425h-4.06V-9.87h3.115a66.61,66.61,0,0,0,12.705-1.085Zm4.83-7.42v2.275h-7.735v3.15h7.735V-5.81h4.1V-28.42h-4.1v3.57h-7.735v3.185ZM135.309,0h5.161V-24.661h-5.144q-.325.239-.966.684t-1.436.983q-.795.538-1.581,1.085l-1.427.991q-.641.444-.966.684v4.648q.308-.222.914-.649t1.359-.94l1.5-1.025q.752-.513,1.359-.931T135-19.79h.308Zm10.92-17.175h4.785a4.446,4.446,0,0,1,.5-2.136,3.568,3.568,0,0,1,1.418-1.444,4.341,4.341,0,0,1,2.17-.521,4.065,4.065,0,0,1,2.059.487,3.387,3.387,0,0,1,1.3,1.3,3.706,3.706,0,0,1,.453,1.837,4.508,4.508,0,0,1-.291,1.606,6.392,6.392,0,0,1-1.1,1.743q-.812.974-2.35,2.478L146.52-3.469V0h17.791V-4.153H153.476V-4.46L158.6-9.348a38.922,38.922,0,0,0,3.221-3.375,10.056,10.056,0,0,0,1.658-2.692,7.448,7.448,0,0,0,.487-2.7,6.673,6.673,0,0,0-1.051-3.708,7.1,7.1,0,0,0-2.982-2.546,10.443,10.443,0,0,0-4.546-.923,10.6,10.6,0,0,0-4.768,1.025,7.878,7.878,0,0,0-3.23,2.854A7.731,7.731,0,0,0,146.23-17.175ZM193.892,2.87V-.07H175.657V-1.5h17.185v-7H171.527v2.94h17.22v1.4H171.562V2.87ZM168.727-22.82c0,3.115,3.465,5.18,7.77,5.18,4.235,0,7.63-2.065,7.63-5.11,0-3.15-3.395-5.215-7.63-5.215C172.192-27.965,168.727-25.9,168.727-22.82Zm13.825,12.355h6.265v.805h4.06V-28.42h-4.06v15.26h-6.265Zm-4.515.84V-13.58c3.115-.175,6.44-.455,8.89-.805l-.315-3.045c-2.765.35-5.775.595-10.115.805-3.465.14-6.58.175-10.115.175l.56,3.255c2.135,0,4.305-.105,7-.21v3.78Zm-5.18-13.16c0-1.33,1.435-2.24,3.64-2.24,2.135,0,3.64.91,3.64,2.24s-1.505,2.2-3.64,2.2C174.292-20.58,172.857-21.455,172.857-22.785Z" transform="translate(450 224)"/>
      <g id="그룹_8482" data-name="그룹 8482">
        <rect id="사각형_16805" data-name="사각형 16805" class="cls-5" width="147" height="108" transform="translate(434 269)"/>
        <path id="패스_2124" data-name="패스 2124" class="cls-6" d="M1.125-8.008H2.781A2.207,2.207,0,0,1,3.043-9.1a1.872,1.872,0,0,1,.738-.734A2.241,2.241,0,0,1,4.891-10.1a2.127,2.127,0,0,1,1.07.254,1.752,1.752,0,0,1,.684.688,2.018,2.018,0,0,1,.238.988,2.333,2.333,0,0,1-.152.848,3.431,3.431,0,0,1-.547.883Q5.789-5.953,5.078-5.2L1.219-1.187V0H8.813V-1.492h-5.2v-.133l2.484-2.5A21.425,21.425,0,0,0,7.633-5.816,5.093,5.093,0,0,0,8.414-7.1a3.414,3.414,0,0,0,.227-1.242,2.974,2.974,0,0,0-.469-1.648,3.23,3.23,0,0,0-1.289-1.141A4.123,4.123,0,0,0,5-11.547a4.335,4.335,0,0,0-2.008.449,3.406,3.406,0,0,0-1.371,1.25A3.421,3.421,0,0,0,1.125-8.008ZM14.586.266A4.024,4.024,0,0,0,17-.449a4.471,4.471,0,0,0,1.527-2.074A9,9,0,0,0,19.055-5.8a8.762,8.762,0,0,0-.32-2.5,5.158,5.158,0,0,0-.906-1.8,3.815,3.815,0,0,0-1.391-1.09,4.241,4.241,0,0,0-1.781-.367,4.32,4.32,0,0,0-2.113.5A3.747,3.747,0,0,0,11.1-9.652a3.89,3.89,0,0,0-.527,2.027,3.852,3.852,0,0,0,.48,1.934,3.534,3.534,0,0,0,1.32,1.336,3.73,3.73,0,0,0,1.91.488,3.653,3.653,0,0,0,1.234-.2,3.171,3.171,0,0,0,1.012-.582,2.862,2.862,0,0,0,.707-.918h.133a8.719,8.719,0,0,1-.207,1.859,4.436,4.436,0,0,1-.547,1.371,2.459,2.459,0,0,1-.859.844,2.3,2.3,0,0,1-1.152.285,2.274,2.274,0,0,1-1.336-.4A1.926,1.926,0,0,1,12.5-2.7H10.734a3.518,3.518,0,0,0,.7,1.57A3.584,3.584,0,0,0,12.777-.1,4.325,4.325,0,0,0,14.586.266Zm.078-5.539a2.427,2.427,0,0,1-1.223-.3,2.129,2.129,0,0,1-.832-.852,2.578,2.578,0,0,1-.3-1.25,2.424,2.424,0,0,1,.309-1.227,2.333,2.333,0,0,1,.848-.859,2.325,2.325,0,0,1,1.211-.32,2.283,2.283,0,0,1,1.207.324,2.346,2.346,0,0,1,.844.875,2.521,2.521,0,0,1,.309,1.254,2.412,2.412,0,0,1-.3,1.215,2.2,2.2,0,0,1-.84.84A2.443,2.443,0,0,1,14.664-5.273Zm17.142-.471v-7.12H30.383v7.12Zm.5,6.768V-.144H24.127V-1.52h7.68v-3.5H22.671v1.152h7.712v1.3H22.719v3.6ZM24.3-12.4a3.32,3.32,0,0,0-3.584,3.2c0,1.9,1.616,3.088,3.584,3.088,2,0,3.568-1.232,3.568-3.1A3.293,3.293,0,0,0,24.3-12.4Zm0,1.216a1.968,1.968,0,0,1,2.176,1.968A1.978,1.978,0,0,1,24.3-7.3a2,2,0,0,1-2.192-1.92A2.044,2.044,0,0,1,24.3-11.184Z" transform="translate(535 292)"/>
      </g>
      <g id="그룹_8482-2" data-name="그룹 8482" transform="translate(147)">
        <rect id="사각형_16805-2" data-name="사각형 16805" class="cls-3" width="147" height="108" transform="translate(434 269)"/>
        <path id="패스_2125" data-name="패스 2125" class="cls-6" d="M3.711-5.1H5.117a2.657,2.657,0,0,1,1.738.523,1.752,1.752,0,0,1,.637,1.43,1.762,1.762,0,0,1-.3,1.023,2.006,2.006,0,0,1-.832.684A2.869,2.869,0,0,1,5.141-1.2,3.072,3.072,0,0,1,3.93-1.418a2.019,2.019,0,0,1-.836-.633,1.858,1.858,0,0,1-.367-.965H1.047a3.166,3.166,0,0,0,.574,1.73A3.473,3.473,0,0,0,3.063-.137a5.086,5.086,0,0,0,2.1.41A4.934,4.934,0,0,0,7.273-.16,3.709,3.709,0,0,0,8.746-1.344a2.844,2.844,0,0,0,.543-1.711,2.646,2.646,0,0,0-.672-1.883,2.991,2.991,0,0,0-1.8-.891v-.133a3.064,3.064,0,0,0,1.051-.512,2.462,2.462,0,0,0,.719-.871,2.727,2.727,0,0,0,.27-1.2,2.742,2.742,0,0,0-.426-1.484,3.079,3.079,0,0,0-1.238-1.1,4.28,4.28,0,0,0-1.977-.418,4.652,4.652,0,0,0-2.055.422A3.358,3.358,0,0,0,1.8-9.965a3.346,3.346,0,0,0-.547,1.7H2.914a2.107,2.107,0,0,1,.332-1A1.762,1.762,0,0,1,4-9.895a2.7,2.7,0,0,1,1.117-.215A2.305,2.305,0,0,1,6.2-9.871a1.7,1.7,0,0,1,.691.641,1.737,1.737,0,0,1,.238.9,1.785,1.785,0,0,1-.262.961,1.775,1.775,0,0,1-.727.656,2.355,2.355,0,0,1-1.074.234H3.711ZM15.133.273a3.637,3.637,0,0,0,2.242-.7A4.317,4.317,0,0,0,18.8-2.437a9.151,9.151,0,0,0,.492-3.187,9.119,9.119,0,0,0-.5-3.191,4.392,4.392,0,0,0-1.426-2.027,3.6,3.6,0,0,0-2.234-.7,3.645,3.645,0,0,0-2.242.7,4.342,4.342,0,0,0-1.434,2.02,9.06,9.06,0,0,0-.5,3.18,9.145,9.145,0,0,0,.5,3.2A4.366,4.366,0,0,0,12.883-.426,3.636,3.636,0,0,0,15.133.273Zm0-1.453a1.819,1.819,0,0,1-1.3-.516,3.277,3.277,0,0,1-.82-1.508,9.1,9.1,0,0,1-.281-2.445,8.866,8.866,0,0,1,.285-2.426,3.273,3.273,0,0,1,.824-1.5,1.817,1.817,0,0,1,1.3-.512,1.811,1.811,0,0,1,1.293.508,3.239,3.239,0,0,1,.816,1.5,9.017,9.017,0,0,1,.281,2.434A9.141,9.141,0,0,1,17.242-3.2a3.291,3.291,0,0,1-.812,1.508A1.8,1.8,0,0,1,15.133-1.18ZM32.088-5.744v-7.12H30.664v7.12Zm.5,6.768V-.144H24.408V-1.52h7.68v-3.5H22.952v1.152h7.712v1.3H23v3.6Zm-8-13.424A3.32,3.32,0,0,0,21-9.2c0,1.9,1.616,3.088,3.584,3.088,2,0,3.568-1.232,3.568-3.1A3.293,3.293,0,0,0,24.584-12.4Zm0,1.216A1.968,1.968,0,0,1,26.76-9.216,1.978,1.978,0,0,1,24.584-7.3a2,2,0,0,1-2.192-1.92A2.044,2.044,0,0,1,24.584-11.184Z" transform="translate(535 292)"/>
      </g>
      <g id="그룹_8482-3" data-name="그룹 8482" transform="translate(294)">
        <rect id="사각형_16805-3" data-name="사각형 16805" class="cls-3" width="147" height="108" transform="translate(434 269)"/>
        <path id="패스_2126" data-name="패스 2126" class="cls-4" d="M3.922,0h1.75V-11.273H3.93q-.242.18-.543.391l-.621.438-.645.453q-.324.227-.621.438t-.539.391v1.719q.234-.18.516-.379l.59-.418q.309-.219.617-.434t.59-.418l.516-.375h.133ZM8.539-8.008H10.2A2.207,2.207,0,0,1,10.457-9.1a1.872,1.872,0,0,1,.738-.734A2.241,2.241,0,0,1,12.3-10.1a2.127,2.127,0,0,1,1.07.254,1.752,1.752,0,0,1,.684.688,2.018,2.018,0,0,1,.238.988,2.333,2.333,0,0,1-.152.848,3.431,3.431,0,0,1-.547.883Q13.2-5.953,12.492-5.2L8.633-1.187V0h7.594V-1.492h-5.2v-.133l2.484-2.5a21.425,21.425,0,0,0,1.539-1.691A5.093,5.093,0,0,0,15.828-7.1a3.414,3.414,0,0,0,.227-1.242,2.974,2.974,0,0,0-.469-1.648A3.23,3.23,0,0,0,14.3-11.133a4.123,4.123,0,0,0-1.883-.414,4.335,4.335,0,0,0-2.008.449,3.406,3.406,0,0,0-1.371,1.25A3.421,3.421,0,0,0,8.539-8.008ZM29.7,1.1V.032h-8.64V-.944h8.112V-3.92H19.632v1.056H27.76v.944H19.632V1.1Zm-4.24-11.328c0-1.472-1.5-2.32-3.472-2.32s-3.488.88-3.488,2.3c0,1.472,1.52,2.32,3.488,2.32S25.456-8.768,25.456-10.224ZM29.168-4.48v-8.384H27.776v6.816H24.784V-5.04h2.992v.56Zm-6.544.016V-6.256c1.5-.1,3.136-.224,4.112-.352l-.128-1.056c-1.328.16-2.7.24-4.5.32-1.536.064-3.024.08-4.64.08L17.68-6.1c1.152-.016,2.272-.048,3.536-.08v1.712Zm1.408-5.76c0,.784-.88,1.184-2.048,1.184s-2.032-.4-2.032-1.184.848-1.216,2.032-1.216C23.2-11.44,24.032-11.008,24.032-10.224ZM38.817,0h1.75V-11.273H38.824q-.242.18-.543.391l-.621.438-.645.453q-.324.227-.621.438t-.539.391v1.719q.234-.18.516-.379l.59-.418q.309-.219.617-.434t.59-.418l.516-.375h.133ZM54.389-5.744v-7.12H52.965v7.12Zm.5,6.768V-.144H46.709V-1.52h7.68v-3.5H45.253v1.152h7.712v1.3H45.3v3.6Zm-8-13.424A3.32,3.32,0,0,0,43.3-9.2c0,1.9,1.616,3.088,3.584,3.088,2,0,3.568-1.232,3.568-3.1A3.293,3.293,0,0,0,46.885-12.4Zm0,1.216a1.968,1.968,0,0,1,2.176,1.968A1.978,1.978,0,0,1,46.885-7.3a2,2,0,0,1-2.192-1.92A2.044,2.044,0,0,1,46.885-11.184Z" transform="translate(512 292)"/>
      </g>
      <g id="그룹_8482-4" data-name="그룹 8482" transform="translate(441)">
        <rect id="사각형_16805-4" data-name="사각형 16805" class="cls-3" width="147" height="108" transform="translate(434 269)"/>
        <path id="패스_2127" data-name="패스 2127" class="cls-4" d="M1.125-8.008H2.781A2.207,2.207,0,0,1,3.043-9.1a1.872,1.872,0,0,1,.738-.734A2.241,2.241,0,0,1,4.891-10.1a2.127,2.127,0,0,1,1.07.254,1.752,1.752,0,0,1,.684.688,2.018,2.018,0,0,1,.238.988,2.333,2.333,0,0,1-.152.848,3.431,3.431,0,0,1-.547.883Q5.789-5.953,5.078-5.2L1.219-1.187V0H8.813V-1.492h-5.2v-.133l2.484-2.5A21.425,21.425,0,0,0,7.633-5.816,5.093,5.093,0,0,0,8.414-7.1a3.414,3.414,0,0,0,.227-1.242,2.974,2.974,0,0,0-.469-1.648,3.23,3.23,0,0,0-1.289-1.141A4.123,4.123,0,0,0,5-11.547a4.335,4.335,0,0,0-2.008.449,3.406,3.406,0,0,0-1.371,1.25A3.421,3.421,0,0,0,1.125-8.008ZM21.658-5.744v-7.12H20.234v7.12Zm.5,6.768V-.144H13.978V-1.52h7.68v-3.5H12.522v1.152h7.712v1.3H12.57v3.6Zm-8-13.424A3.32,3.32,0,0,0,10.57-9.2c0,1.9,1.616,3.088,3.584,3.088,2,0,3.568-1.232,3.568-3.1A3.293,3.293,0,0,0,14.154-12.4Zm0,1.216A1.968,1.968,0,0,1,16.33-9.216,1.978,1.978,0,0,1,14.154-7.3a2,2,0,0,1-2.192-1.92A2.044,2.044,0,0,1,14.154-11.184Z" transform="translate(546 292)"/>
      </g>
      <g id="그룹_8482-5" data-name="그룹 8482" transform="translate(588)">
        <rect id="사각형_16805-5" data-name="사각형 16805" class="cls-3" width="147" height="108" transform="translate(434 269)"/>
        <path id="패스_2128" data-name="패스 2128" class="cls-4" d="M3.711-5.1H5.117a2.657,2.657,0,0,1,1.738.523,1.752,1.752,0,0,1,.637,1.43,1.762,1.762,0,0,1-.3,1.023,2.006,2.006,0,0,1-.832.684A2.869,2.869,0,0,1,5.141-1.2,3.072,3.072,0,0,1,3.93-1.418a2.019,2.019,0,0,1-.836-.633,1.858,1.858,0,0,1-.367-.965H1.047a3.166,3.166,0,0,0,.574,1.73A3.473,3.473,0,0,0,3.063-.137a5.086,5.086,0,0,0,2.1.41A4.934,4.934,0,0,0,7.273-.16,3.709,3.709,0,0,0,8.746-1.344a2.844,2.844,0,0,0,.543-1.711,2.646,2.646,0,0,0-.672-1.883,2.991,2.991,0,0,0-1.8-.891v-.133a3.064,3.064,0,0,0,1.051-.512,2.462,2.462,0,0,0,.719-.871,2.727,2.727,0,0,0,.27-1.2,2.742,2.742,0,0,0-.426-1.484,3.079,3.079,0,0,0-1.238-1.1,4.28,4.28,0,0,0-1.977-.418,4.652,4.652,0,0,0-2.055.422A3.358,3.358,0,0,0,1.8-9.965a3.346,3.346,0,0,0-.547,1.7H2.914a2.107,2.107,0,0,1,.332-1A1.762,1.762,0,0,1,4-9.895a2.7,2.7,0,0,1,1.117-.215A2.305,2.305,0,0,1,6.2-9.871a1.7,1.7,0,0,1,.691.641,1.737,1.737,0,0,1,.238.9,1.785,1.785,0,0,1-.262.961,1.775,1.775,0,0,1-.727.656,2.355,2.355,0,0,1-1.074.234H3.711Zm18.33-.642v-7.12H20.617v7.12Zm.5,6.768V-.144H14.361V-1.52h7.68v-3.5H12.9v1.152h7.712v1.3H12.953v3.6Zm-8-13.424a3.32,3.32,0,0,0-3.584,3.2c0,1.9,1.616,3.088,3.584,3.088,2,0,3.568-1.232,3.568-3.1A3.293,3.293,0,0,0,14.537-12.4Zm0,1.216a1.968,1.968,0,0,1,2.176,1.968A1.978,1.978,0,0,1,14.537-7.3a2,2,0,0,1-2.192-1.92A2.044,2.044,0,0,1,14.537-11.184Z" transform="translate(546 292)"/>
      </g>
      <g id="그룹_8482-6" data-name="그룹 8482" transform="translate(735)">
        <rect id="사각형_16805-6" data-name="사각형 16805" class="cls-3" width="147" height="108" transform="translate(434 269)"/>
        <path id="패스_2129" data-name="패스 2129" class="cls-4" d="M6.406,0H8.094V-2.242H9.648V-3.727H8.094v-7.547H5.6q-.469.7-.945,1.441T3.7-8.336q-.477.758-.949,1.527T1.816-5.266q-.465.773-.91,1.539v1.484h5.5ZM2.586-3.8Q2.93-4.4,3.3-5.012t.754-1.23q.383-.617.766-1.227t.762-1.2q.379-.586.746-1.133h.1v6.1H2.586ZM22.322-5.744v-7.12H20.9v7.12Zm.5,6.768V-.144H14.642V-1.52h7.68v-3.5H13.186v1.152H20.9v1.3H13.234v3.6Zm-8-13.424a3.32,3.32,0,0,0-3.584,3.2c0,1.9,1.616,3.088,3.584,3.088,2,0,3.568-1.232,3.568-3.1A3.293,3.293,0,0,0,14.818-12.4Zm0,1.216a1.968,1.968,0,0,1,2.176,1.968A1.978,1.978,0,0,1,14.818-7.3a2,2,0,0,1-2.192-1.92A2.044,2.044,0,0,1,14.818-11.184Z" transform="translate(545 292)"/>
      </g>
      <g id="그룹_8482-7" data-name="그룹 8482" transform="translate(882)">
        <rect id="사각형_16805-7" data-name="사각형 16805" class="cls-5" width="147" height="108" transform="translate(434 269)"/>
        <path id="패스_2130" data-name="패스 2130" class="cls-4" d="M5.156.273a4.252,4.252,0,0,0,2.1-.5,3.582,3.582,0,0,0,1.4-1.391,4.1,4.1,0,0,0,.5-2.055A3.944,3.944,0,0,0,8.7-5.633a3.385,3.385,0,0,0-1.258-1.3A3.391,3.391,0,0,0,5.7-7.391a3.656,3.656,0,0,0-1.48.273A2.515,2.515,0,0,0,3.2-6.328H3.07L3.4-9.789h5.18v-1.484H2.039L1.406-4.766h1.6a2.373,2.373,0,0,1,.535-.672,2.283,2.283,0,0,1,.746-.43,2.76,2.76,0,0,1,.922-.148,2.258,2.258,0,0,1,1.168.3,2.071,2.071,0,0,1,.789.836,2.617,2.617,0,0,1,.285,1.242,2.758,2.758,0,0,1-.285,1.285,2.109,2.109,0,0,1-.8.859,2.3,2.3,0,0,1-1.2.309,2.559,2.559,0,0,1-1.105-.23,2.026,2.026,0,0,1-.793-.652A2.033,2.033,0,0,1,2.9-3.055H1.227a3.332,3.332,0,0,0,.566,1.727A3.5,3.5,0,0,0,3.172-.152,4.446,4.446,0,0,0,5.156.273ZM21.924-5.744v-7.12H20.5v7.12Zm.5,6.768V-.144H14.244V-1.52h7.68v-3.5H12.788v1.152H20.5v1.3H12.836v3.6Zm-8-13.424a3.32,3.32,0,0,0-3.584,3.2c0,1.9,1.616,3.088,3.584,3.088,2,0,3.568-1.232,3.568-3.1A3.293,3.293,0,0,0,14.42-12.4Zm0,1.216A1.968,1.968,0,0,1,16.6-9.216,1.978,1.978,0,0,1,14.42-7.3a2,2,0,0,1-2.192-1.92A2.044,2.044,0,0,1,14.42-11.184Z" transform="translate(545 292)"/>
      </g>
      <g id="그룹_8482-8" data-name="그룹 8482" transform="translate(0 108)">
        <rect id="사각형_16805-8" data-name="사각형 16805" class="cls-5" width="147" height="108" transform="translate(434 269)"/>
        <path id="패스_2139" data-name="패스 2139" class="cls-4" d="M5.383.266A4.343,4.343,0,0,0,7.5-.238,3.721,3.721,0,0,0,8.945-1.625a3.907,3.907,0,0,0,.523-2.031A3.877,3.877,0,0,0,8.992-5.59,3.506,3.506,0,0,0,7.676-6.926a3.73,3.73,0,0,0-1.91-.488,3.677,3.677,0,0,0-1.242.2,3.124,3.124,0,0,0-1.008.582A2.96,2.96,0,0,0,2.8-5.7H2.672a7.825,7.825,0,0,1,.359-2.4,3.112,3.112,0,0,1,.961-1.469,2.339,2.339,0,0,1,1.5-.5,2.458,2.458,0,0,1,.953.176,1.841,1.841,0,0,1,.707.512,1.884,1.884,0,0,1,.395.813H9.3a3.328,3.328,0,0,0-.645-1.566,3.424,3.424,0,0,0-1.328-1.039,4.5,4.5,0,0,0-1.879-.371,3.981,3.981,0,0,0-2.371.715A4.52,4.52,0,0,0,1.535-8.758,8.85,8.85,0,0,0,.992-5.477,8.637,8.637,0,0,0,1.32-2.969a5.214,5.214,0,0,0,.918,1.8A3.742,3.742,0,0,0,3.629-.09,4.274,4.274,0,0,0,5.383.266ZM5.367-1.2A2.283,2.283,0,0,1,4.16-1.52,2.368,2.368,0,0,1,3.313-2.4,2.5,2.5,0,0,1,3-3.648a2.427,2.427,0,0,1,.3-1.223,2.2,2.2,0,0,1,.844-.84,2.465,2.465,0,0,1,1.234-.3,2.421,2.421,0,0,1,1.227.3,2.143,2.143,0,0,1,.828.848,2.572,2.572,0,0,1,.3,1.254,2.428,2.428,0,0,1-.312,1.227,2.365,2.365,0,0,1-.844.867A2.3,2.3,0,0,1,5.367-1.2ZM22.228-5.744v-7.12H20.8v7.12Zm.5,6.768V-.144H14.548V-1.52h7.68v-3.5H13.092v1.152H20.8v1.3H13.14v3.6Zm-8-13.424A3.32,3.32,0,0,0,11.14-9.2c0,1.9,1.616,3.088,3.584,3.088,2,0,3.568-1.232,3.568-3.1A3.293,3.293,0,0,0,14.724-12.4Zm0,1.216A1.968,1.968,0,0,1,16.9-9.216,1.978,1.978,0,0,1,14.724-7.3a2,2,0,0,1-2.192-1.92A2.044,2.044,0,0,1,14.724-11.184Z" transform="translate(545 292)"/>
      </g>
      <g id="그룹_8482-9" data-name="그룹 8482" transform="translate(147 108)">
        <rect id="사각형_16805-9" data-name="사각형 16805" class="cls-3" width="147" height="108" transform="translate(434 269)"/>
        <path id="패스_2138" data-name="패스 2138" class="cls-4" d="M1.7,0H3.531L8.438-9.758v-1.516H.758V-9.8H6.664v.125ZM21.088-5.744v-7.12H19.664v7.12Zm.5,6.768V-.144H13.408V-1.52h7.68v-3.5H11.952v1.152h7.712v1.3H12v3.6Zm-8-13.424A3.32,3.32,0,0,0,10-9.2c0,1.9,1.616,3.088,3.584,3.088,2,0,3.568-1.232,3.568-3.1A3.293,3.293,0,0,0,13.584-12.4Zm0,1.216A1.968,1.968,0,0,1,15.76-9.216,1.978,1.978,0,0,1,13.584-7.3a2,2,0,0,1-2.192-1.92A2.044,2.044,0,0,1,13.584-11.184Z" transform="translate(547 292)"/>
      </g>
      <g id="그룹_8482-10" data-name="그룹 8482" transform="translate(294 108)">
        <rect id="사각형_16805-10" data-name="사각형 16805" class="cls-3" width="147" height="108" transform="translate(434 269)"/>
        <path id="패스_2137" data-name="패스 2137" class="cls-4" d="M5.266.273A5.491,5.491,0,0,0,7.48-.145,3.529,3.529,0,0,0,8.973-1.3a2.862,2.862,0,0,0,.535-1.719,2.928,2.928,0,0,0-.3-1.328,2.813,2.813,0,0,0-.836-1,2.947,2.947,0,0,0-1.262-.535v-.133A2.543,2.543,0,0,0,8.527-6.93a2.517,2.517,0,0,0,.52-1.586,2.637,2.637,0,0,0-.484-1.57,3.273,3.273,0,0,0-1.336-1.07,4.657,4.657,0,0,0-1.961-.391,4.664,4.664,0,0,0-1.957.391,3.268,3.268,0,0,0-1.34,1.07,2.637,2.637,0,0,0-.484,1.57,2.5,2.5,0,0,0,.531,1.59,2.546,2.546,0,0,0,1.406.9v.133a3.022,3.022,0,0,0-1.258.547,2.8,2.8,0,0,0-.836,1,2.935,2.935,0,0,0-.3,1.324A2.836,2.836,0,0,0,1.57-1.3,3.562,3.562,0,0,0,3.063-.145,5.442,5.442,0,0,0,5.266.273Zm0-1.391A2.926,2.926,0,0,1,4-1.379,2.122,2.122,0,0,1,3.133-2.1,1.83,1.83,0,0,1,2.82-3.156a1.83,1.83,0,0,1,.313-1.059A2.094,2.094,0,0,1,4-4.93a2.963,2.963,0,0,1,1.27-.258,2.957,2.957,0,0,1,1.273.258,2.1,2.1,0,0,1,.859.715,1.83,1.83,0,0,1,.313,1.059A1.847,1.847,0,0,1,7.4-2.1a2.093,2.093,0,0,1-.859.719A2.945,2.945,0,0,1,5.266-1.117Zm0-5.445a2.459,2.459,0,0,1-1.074-.223,1.706,1.706,0,0,1-.723-.629,1.712,1.712,0,0,1-.258-.937A1.741,1.741,0,0,1,3.469-9.3a1.732,1.732,0,0,1,.723-.633,2.423,2.423,0,0,1,1.074-.227,2.417,2.417,0,0,1,1.078.227,1.764,1.764,0,0,1,.723.633,1.721,1.721,0,0,1,.262.953,1.693,1.693,0,0,1-.262.938,1.737,1.737,0,0,1-.723.629A2.453,2.453,0,0,1,5.266-6.562Zm17.041.819v-7.12H20.883v7.12Zm.5,6.768V-.144H14.627V-1.52h7.68v-3.5H13.171v1.152h7.712v1.3H13.219v3.6ZM14.8-12.4a3.32,3.32,0,0,0-3.584,3.2c0,1.9,1.616,3.088,3.584,3.088,2,0,3.568-1.232,3.568-3.1A3.293,3.293,0,0,0,14.8-12.4Zm0,1.216a1.968,1.968,0,0,1,2.176,1.968A1.978,1.978,0,0,1,14.8-7.3a2,2,0,0,1-2.192-1.92A2.044,2.044,0,0,1,14.8-11.184Z" transform="translate(545 292)"/>
      </g>
      <g id="그룹_8482-11" data-name="그룹 8482" transform="translate(441 108)">
        <rect id="사각형_16805-11" data-name="사각형 16805" class="cls-3" width="147" height="108" transform="translate(434 269)"/>
        <path id="패스_2136" data-name="패스 2136" class="cls-4" d="M5.008.266a4.024,4.024,0,0,0,2.41-.715A4.471,4.471,0,0,0,8.945-2.523,9,9,0,0,0,9.477-5.8a8.762,8.762,0,0,0-.32-2.5,5.158,5.158,0,0,0-.906-1.8,3.815,3.815,0,0,0-1.391-1.09,4.241,4.241,0,0,0-1.781-.367,4.32,4.32,0,0,0-2.113.5A3.747,3.747,0,0,0,1.52-9.652,3.89,3.89,0,0,0,.992-7.625a3.852,3.852,0,0,0,.48,1.934,3.534,3.534,0,0,0,1.32,1.336,3.73,3.73,0,0,0,1.91.488,3.653,3.653,0,0,0,1.234-.2,3.171,3.171,0,0,0,1.012-.582,2.862,2.862,0,0,0,.707-.918h.133a8.719,8.719,0,0,1-.207,1.859A4.436,4.436,0,0,1,7.035-2.34a2.459,2.459,0,0,1-.859.844,2.3,2.3,0,0,1-1.152.285,2.274,2.274,0,0,1-1.336-.4A1.926,1.926,0,0,1,2.922-2.7H1.156a3.518,3.518,0,0,0,.7,1.57A3.584,3.584,0,0,0,3.2-.1,4.325,4.325,0,0,0,5.008.266Zm.078-5.539a2.427,2.427,0,0,1-1.223-.3,2.129,2.129,0,0,1-.832-.852,2.578,2.578,0,0,1-.3-1.25,2.424,2.424,0,0,1,.309-1.227,2.333,2.333,0,0,1,.848-.859,2.325,2.325,0,0,1,1.211-.32,2.283,2.283,0,0,1,1.207.324,2.346,2.346,0,0,1,.844.875,2.521,2.521,0,0,1,.309,1.254,2.412,2.412,0,0,1-.3,1.215,2.2,2.2,0,0,1-.84.84A2.443,2.443,0,0,1,5.086-5.273Zm17.142-.471v-7.12H20.8v7.12Zm.5,6.768V-.144H14.548V-1.52h7.68v-3.5H13.092v1.152H20.8v1.3H13.14v3.6Zm-8-13.424A3.32,3.32,0,0,0,11.14-9.2c0,1.9,1.616,3.088,3.584,3.088,2,0,3.568-1.232,3.568-3.1A3.293,3.293,0,0,0,14.724-12.4Zm0,1.216A1.968,1.968,0,0,1,16.9-9.216,1.978,1.978,0,0,1,14.724-7.3a2,2,0,0,1-2.192-1.92A2.044,2.044,0,0,1,14.724-11.184Z" transform="translate(546 292)"/>
      </g>
      <g id="그룹_8482-12" data-name="그룹 8482" transform="translate(588 108)">
        <rect id="사각형_16805-12" data-name="사각형 16805" class="cls-3" width="147" height="108" transform="translate(434 269)"/>
        <path id="패스_2135" data-name="패스 2135" class="cls-4" d="M3.922,0h1.75V-11.273H3.93q-.242.18-.543.391l-.621.438-.645.453q-.324.227-.621.438t-.539.391v1.719q.234-.18.516-.379l.59-.418q.309-.219.617-.434t.59-.418l.516-.375h.133Zm8.7.273a3.637,3.637,0,0,0,2.242-.7,4.317,4.317,0,0,0,1.422-2.016,9.151,9.151,0,0,0,.492-3.187,9.119,9.119,0,0,0-.5-3.191,4.392,4.392,0,0,0-1.426-2.027,3.6,3.6,0,0,0-2.234-.7,3.645,3.645,0,0,0-2.242.7,4.342,4.342,0,0,0-1.434,2.02,9.06,9.06,0,0,0-.5,3.18,9.145,9.145,0,0,0,.5,3.2A4.366,4.366,0,0,0,10.367-.426,3.636,3.636,0,0,0,12.617.273Zm0-1.453a1.819,1.819,0,0,1-1.3-.516,3.277,3.277,0,0,1-.82-1.508,9.1,9.1,0,0,1-.281-2.445A8.866,8.866,0,0,1,10.5-8.074a3.273,3.273,0,0,1,.824-1.5,1.817,1.817,0,0,1,1.3-.512,1.811,1.811,0,0,1,1.293.508,3.239,3.239,0,0,1,.816,1.5,9.017,9.017,0,0,1,.281,2.434A9.141,9.141,0,0,1,14.727-3.2a3.291,3.291,0,0,1-.812,1.508A1.8,1.8,0,0,1,12.617-1.18ZM29.572-5.744v-7.12H28.148v7.12Zm.5,6.768V-.144H21.892V-1.52h7.68v-3.5H20.436v1.152h7.712v1.3H20.484v3.6Zm-8-13.424a3.32,3.32,0,0,0-3.584,3.2c0,1.9,1.616,3.088,3.584,3.088,2,0,3.568-1.232,3.568-3.1A3.293,3.293,0,0,0,22.068-12.4Zm0,1.216a1.968,1.968,0,0,1,2.176,1.968A1.978,1.978,0,0,1,22.068-7.3a2,2,0,0,1-2.192-1.92A2.044,2.044,0,0,1,22.068-11.184Z" transform="translate(538 292)"/>
      </g>
      <g id="그룹_8482-13" data-name="그룹 8482" transform="translate(735 108)">
        <rect id="사각형_16805-13" data-name="사각형 16805" class="cls-3" width="147" height="108" transform="translate(434 269)"/>
        <path id="패스_2134" data-name="패스 2134" class="cls-4" d="M3.922,0h1.75V-11.273H3.93q-.242.18-.543.391l-.621.438-.645.453q-.324.227-.621.438t-.539.391v1.719q.234-.18.516-.379l.59-.418q.309-.219.617-.434t.59-.418l.516-.375h.133Zm7.414,0h1.75V-11.273H11.344q-.242.18-.543.391l-.621.438-.645.453q-.324.227-.621.438t-.539.391v1.719q.234-.18.516-.379l.59-.418q.309-.219.617-.434t.59-.418l.516-.375h.133ZM26.908-5.744v-7.12H25.484v7.12Zm.5,6.768V-.144H19.228V-1.52h7.68v-3.5H17.772v1.152h7.712v1.3H17.82v3.6ZM19.4-12.4A3.32,3.32,0,0,0,15.82-9.2c0,1.9,1.616,3.088,3.584,3.088,2,0,3.568-1.232,3.568-3.1A3.293,3.293,0,0,0,19.4-12.4Zm0,1.216A1.968,1.968,0,0,1,21.58-9.216,1.978,1.978,0,0,1,19.4-7.3a2,2,0,0,1-2.192-1.92A2.044,2.044,0,0,1,19.4-11.184Z" transform="translate(540 292)"/>
      </g>
      <g id="그룹_8482-14" data-name="그룹 8482" transform="translate(882 108)">
        <rect id="사각형_16805-14" data-name="사각형 16805" class="cls-5" width="147" height="108" transform="translate(434 269)"/>
        <path id="패스_2133" data-name="패스 2133" class="cls-4" d="M3.922,0h1.75V-11.273H3.93q-.242.18-.543.391l-.621.438-.645.453q-.324.227-.621.438t-.539.391v1.719q.234-.18.516-.379l.59-.418q.309-.219.617-.434t.59-.418l.516-.375h.133ZM8.539-8.008H10.2A2.207,2.207,0,0,1,10.457-9.1a1.872,1.872,0,0,1,.738-.734A2.241,2.241,0,0,1,12.3-10.1a2.127,2.127,0,0,1,1.07.254,1.752,1.752,0,0,1,.684.688,2.018,2.018,0,0,1,.238.988,2.333,2.333,0,0,1-.152.848,3.431,3.431,0,0,1-.547.883Q13.2-5.953,12.492-5.2L8.633-1.187V0h7.594V-1.492h-5.2v-.133l2.484-2.5a21.425,21.425,0,0,0,1.539-1.691A5.093,5.093,0,0,0,15.828-7.1a3.414,3.414,0,0,0,.227-1.242,2.974,2.974,0,0,0-.469-1.648A3.23,3.23,0,0,0,14.3-11.133a4.123,4.123,0,0,0-1.883-.414,4.335,4.335,0,0,0-2.008.449,3.406,3.406,0,0,0-1.371,1.25A3.421,3.421,0,0,0,8.539-8.008ZM29.072-5.744v-7.12H27.648v7.12Zm.5,6.768V-.144H21.392V-1.52h7.68v-3.5H19.936v1.152h7.712v1.3H19.984v3.6Zm-8-13.424a3.32,3.32,0,0,0-3.584,3.2c0,1.9,1.616,3.088,3.584,3.088,2,0,3.568-1.232,3.568-3.1A3.293,3.293,0,0,0,21.568-12.4Zm0,1.216a1.968,1.968,0,0,1,2.176,1.968A1.978,1.978,0,0,1,21.568-7.3a2,2,0,0,1-2.192-1.92A2.044,2.044,0,0,1,21.568-11.184Z" transform="translate(538 292)"/>
      </g>
      <g id="그룹_8482-15" data-name="그룹 8482" transform="translate(0 216)">
        <rect id="사각형_16805-15" data-name="사각형 16805" class="cls-5" width="147" height="108" transform="translate(434 269)"/>
        <path id="패스_2140" data-name="패스 2140" class="cls-4" d="M3.922,0h1.75V-11.273H3.93q-.242.18-.543.391l-.621.438-.645.453q-.324.227-.621.438t-.539.391v1.719q.234-.18.516-.379l.59-.418q.309-.219.617-.434t.59-.418l.516-.375h.133Zm7.2-5.1h1.406a2.657,2.657,0,0,1,1.738.523,1.752,1.752,0,0,1,.637,1.43,1.762,1.762,0,0,1-.3,1.023,2.006,2.006,0,0,1-.832.684,2.869,2.869,0,0,1-1.219.246,3.072,3.072,0,0,1-1.211-.223,2.019,2.019,0,0,1-.836-.633,1.858,1.858,0,0,1-.367-.965H8.461a3.166,3.166,0,0,0,.574,1.73A3.473,3.473,0,0,0,10.477-.137a5.086,5.086,0,0,0,2.1.41A4.934,4.934,0,0,0,14.688-.16,3.709,3.709,0,0,0,16.16-1.344,2.844,2.844,0,0,0,16.7-3.055a2.646,2.646,0,0,0-.672-1.883,2.991,2.991,0,0,0-1.8-.891v-.133a3.064,3.064,0,0,0,1.051-.512A2.462,2.462,0,0,0,16-7.344a2.727,2.727,0,0,0,.27-1.2,2.742,2.742,0,0,0-.426-1.484,3.079,3.079,0,0,0-1.238-1.1,4.28,4.28,0,0,0-1.977-.418,4.652,4.652,0,0,0-2.055.422,3.358,3.358,0,0,0-1.359,1.16,3.346,3.346,0,0,0-.547,1.7h1.656a2.107,2.107,0,0,1,.332-1,1.762,1.762,0,0,1,.754-.625,2.7,2.7,0,0,1,1.117-.215,2.305,2.305,0,0,1,1.086.238,1.7,1.7,0,0,1,.691.641,1.737,1.737,0,0,1,.238.9,1.785,1.785,0,0,1-.262.961,1.775,1.775,0,0,1-.727.656,2.355,2.355,0,0,1-1.074.234H11.125Zm18.33-.642v-7.12H28.031v7.12Zm.5,6.768V-.144H21.775V-1.52h7.68v-3.5H20.319v1.152h7.712v1.3H20.367v3.6Zm-8-13.424a3.32,3.32,0,0,0-3.584,3.2c0,1.9,1.616,3.088,3.584,3.088,2,0,3.568-1.232,3.568-3.1A3.293,3.293,0,0,0,21.951-12.4Zm0,1.216a1.968,1.968,0,0,1,2.176,1.968A1.978,1.978,0,0,1,21.951-7.3a2,2,0,0,1-2.192-1.92A2.044,2.044,0,0,1,21.951-11.184Z" transform="translate(538 292)"/>
      </g>
      <g id="그룹_8482-16" data-name="그룹 8482" transform="translate(147 216)">
        <rect id="사각형_16805-16" data-name="사각형 16805" class="cls-3" width="147" height="108" transform="translate(434 269)"/>
        <path id="패스_2141" data-name="패스 2141" class="cls-4" d="M3.922,0h1.75V-11.273H3.93q-.242.18-.543.391l-.621.438-.645.453q-.324.227-.621.438t-.539.391v1.719q.234-.18.516-.379l.59-.418q.309-.219.617-.434t.59-.418l.516-.375h.133Zm9.9,0h1.688V-2.242h1.555V-3.727H15.508v-7.547H13.016q-.469.7-.945,1.441t-.953,1.5q-.477.758-.949,1.527T9.23-5.266q-.465.773-.91,1.539v1.484h5.5ZM10-3.8q.344-.594.715-1.207t.754-1.23q.383-.617.766-1.227T13-8.664q.379-.586.746-1.133h.1v6.1H10ZM29.736-5.744v-7.12H28.312v7.12Zm.5,6.768V-.144H22.056V-1.52h7.68v-3.5H20.6v1.152h7.712v1.3H20.648v3.6Zm-8-13.424a3.32,3.32,0,0,0-3.584,3.2c0,1.9,1.616,3.088,3.584,3.088,2,0,3.568-1.232,3.568-3.1A3.293,3.293,0,0,0,22.232-12.4Zm0,1.216a1.968,1.968,0,0,1,2.176,1.968A1.978,1.978,0,0,1,22.232-7.3a2,2,0,0,1-2.192-1.92A2.044,2.044,0,0,1,22.232-11.184Z" transform="translate(538 292)"/>
      </g>
      <g id="그룹_8482-17" data-name="그룹 8482" transform="translate(294 216)">
        <rect id="사각형_16805-17" data-name="사각형 16805" class="cls-3" width="147" height="108" transform="translate(434 269)"/>
        <path id="패스_2142" data-name="패스 2142" class="cls-4" d="M3.922,0h1.75V-11.273H3.93q-.242.18-.543.391l-.621.438-.645.453q-.324.227-.621.438t-.539.391v1.719q.234-.18.516-.379l.59-.418q.309-.219.617-.434t.59-.418l.516-.375h.133ZM12.57.273a4.252,4.252,0,0,0,2.1-.5,3.582,3.582,0,0,0,1.4-1.391,4.1,4.1,0,0,0,.5-2.055,3.944,3.944,0,0,0-.469-1.961,3.385,3.385,0,0,0-1.258-1.3,3.391,3.391,0,0,0-1.742-.461,3.656,3.656,0,0,0-1.48.273,2.515,2.515,0,0,0-1.012.789h-.133l.328-3.461h5.18v-1.484H9.453L8.82-4.766h1.6a2.373,2.373,0,0,1,.535-.672,2.283,2.283,0,0,1,.746-.43,2.76,2.76,0,0,1,.922-.148,2.258,2.258,0,0,1,1.168.3,2.071,2.071,0,0,1,.789.836,2.617,2.617,0,0,1,.285,1.242,2.758,2.758,0,0,1-.285,1.285,2.109,2.109,0,0,1-.8.859,2.3,2.3,0,0,1-1.2.309,2.559,2.559,0,0,1-1.105-.23,2.026,2.026,0,0,1-.793-.652,2.033,2.033,0,0,1-.367-.984H8.641a3.332,3.332,0,0,0,.566,1.727A3.5,3.5,0,0,0,10.586-.152,4.446,4.446,0,0,0,12.57.273ZM29.338-5.744v-7.12H27.914v7.12Zm.5,6.768V-.144H21.658V-1.52h7.68v-3.5H20.2v1.152h7.712v1.3H20.25v3.6Zm-8-13.424A3.32,3.32,0,0,0,18.25-9.2c0,1.9,1.616,3.088,3.584,3.088,2,0,3.568-1.232,3.568-3.1A3.293,3.293,0,0,0,21.834-12.4Zm0,1.216A1.968,1.968,0,0,1,24.01-9.216,1.978,1.978,0,0,1,21.834-7.3a2,2,0,0,1-2.192-1.92A2.044,2.044,0,0,1,21.834-11.184Z" transform="translate(538 292)"/>
      </g>
      <g id="그룹_8482-18" data-name="그룹 8482" transform="translate(441 216)">
        <rect id="사각형_16805-18" data-name="사각형 16805" class="cls-3" width="147" height="108" transform="translate(434 269)"/>
        <path id="패스_2143" data-name="패스 2143" class="cls-4" d="M3.922,0h1.75V-11.273H3.93q-.242.18-.543.391l-.621.438-.645.453q-.324.227-.621.438t-.539.391v1.719q.234-.18.516-.379l.59-.418q.309-.219.617-.434t.59-.418l.516-.375h.133ZM12.8.266a4.343,4.343,0,0,0,2.117-.5,3.721,3.721,0,0,0,1.445-1.387,3.907,3.907,0,0,0,.523-2.031,3.877,3.877,0,0,0-.477-1.934A3.506,3.506,0,0,0,15.09-6.926a3.73,3.73,0,0,0-1.91-.488,3.677,3.677,0,0,0-1.242.2,3.124,3.124,0,0,0-1.008.582,2.96,2.96,0,0,0-.711.926h-.133a7.825,7.825,0,0,1,.359-2.4,3.112,3.112,0,0,1,.961-1.469,2.339,2.339,0,0,1,1.5-.5,2.458,2.458,0,0,1,.953.176,1.841,1.841,0,0,1,.707.512,1.884,1.884,0,0,1,.395.813h1.758a3.328,3.328,0,0,0-.645-1.566,3.424,3.424,0,0,0-1.328-1.039,4.5,4.5,0,0,0-1.879-.371,3.981,3.981,0,0,0-2.371.715A4.52,4.52,0,0,0,8.949-8.758a8.85,8.85,0,0,0-.543,3.281,8.637,8.637,0,0,0,.328,2.508,5.214,5.214,0,0,0,.918,1.8A3.742,3.742,0,0,0,11.043-.09,4.274,4.274,0,0,0,12.8.266ZM12.781-1.2a2.283,2.283,0,0,1-1.207-.324,2.368,2.368,0,0,1-.848-.879,2.5,2.5,0,0,1-.312-1.25,2.427,2.427,0,0,1,.3-1.223,2.2,2.2,0,0,1,.844-.84,2.465,2.465,0,0,1,1.234-.3,2.421,2.421,0,0,1,1.227.3,2.143,2.143,0,0,1,.828.848,2.572,2.572,0,0,1,.3,1.254,2.428,2.428,0,0,1-.312,1.227,2.365,2.365,0,0,1-.844.867A2.3,2.3,0,0,1,12.781-1.2ZM29.642-5.744v-7.12H28.219v7.12Zm.5,6.768V-.144H21.962V-1.52h7.68v-3.5H20.507v1.152h7.712v1.3H20.555v3.6Zm-8-13.424a3.32,3.32,0,0,0-3.584,3.2c0,1.9,1.616,3.088,3.584,3.088,2,0,3.568-1.232,3.568-3.1A3.293,3.293,0,0,0,22.139-12.4Zm0,1.216a1.968,1.968,0,0,1,2.176,1.968A1.978,1.978,0,0,1,22.139-7.3a2,2,0,0,1-2.192-1.92A2.044,2.044,0,0,1,22.139-11.184Z" transform="translate(539 292)"/>
      </g>
      <g id="그룹_8482-19" data-name="그룹 8482" transform="translate(588 216)">
        <rect id="사각형_16805-19" data-name="사각형 16805" class="cls-3" width="147" height="108" transform="translate(434 269)"/>
        <path id="패스_2144" data-name="패스 2144" class="cls-4" d="M3.922,0h1.75V-11.273H3.93q-.242.18-.543.391l-.621.438-.645.453q-.324.227-.621.438t-.539.391v1.719q.234-.18.516-.379l.59-.418q.309-.219.617-.434t.59-.418l.516-.375h.133ZM9.109,0h1.836l4.906-9.758v-1.516H8.172V-9.8h5.906v.125ZM28.5-5.744v-7.12H27.078v7.12ZM29,1.024V-.144H20.822V-1.52H28.5v-3.5H19.366v1.152h7.712v1.3H19.414v3.6ZM21-12.4a3.32,3.32,0,0,0-3.584,3.2c0,1.9,1.616,3.088,3.584,3.088,2,0,3.568-1.232,3.568-3.1A3.293,3.293,0,0,0,21-12.4Zm0,1.216a1.968,1.968,0,0,1,2.176,1.968A1.978,1.978,0,0,1,21-7.3a2,2,0,0,1-2.192-1.92A2.044,2.044,0,0,1,21-11.184Z" transform="translate(538 292)"/>
      </g>
      <g id="그룹_8482-20" data-name="그룹 8482" transform="translate(735 216)">
        <rect id="사각형_16805-20" data-name="사각형 16805" class="cls-3" width="147" height="108" transform="translate(434 269)"/>
        <path id="패스_2145" data-name="패스 2145" class="cls-4" d="M3.922,0h1.75V-11.273H3.93q-.242.18-.543.391l-.621.438-.645.453q-.324.227-.621.438t-.539.391v1.719q.234-.18.516-.379l.59-.418q.309-.219.617-.434t.59-.418l.516-.375h.133ZM12.68.273a5.491,5.491,0,0,0,2.215-.418A3.529,3.529,0,0,0,16.387-1.3a2.862,2.862,0,0,0,.535-1.719,2.928,2.928,0,0,0-.3-1.328,2.813,2.813,0,0,0-.836-1,2.947,2.947,0,0,0-1.262-.535v-.133a2.543,2.543,0,0,0,1.418-.906,2.517,2.517,0,0,0,.52-1.586,2.637,2.637,0,0,0-.484-1.57,3.273,3.273,0,0,0-1.336-1.07,4.657,4.657,0,0,0-1.961-.391,4.664,4.664,0,0,0-1.957.391,3.268,3.268,0,0,0-1.34,1.07A2.637,2.637,0,0,0,8.9-8.516a2.5,2.5,0,0,0,.531,1.59,2.546,2.546,0,0,0,1.406.9v.133a3.022,3.022,0,0,0-1.258.547,2.8,2.8,0,0,0-.836,1,2.935,2.935,0,0,0-.3,1.324A2.836,2.836,0,0,0,8.984-1.3a3.562,3.562,0,0,0,1.492,1.16A5.442,5.442,0,0,0,12.68.273Zm0-1.391a2.926,2.926,0,0,1-1.27-.262,2.122,2.122,0,0,1-.863-.719,1.83,1.83,0,0,1-.312-1.059,1.83,1.83,0,0,1,.313-1.059,2.094,2.094,0,0,1,.863-.715,2.963,2.963,0,0,1,1.27-.258,2.957,2.957,0,0,1,1.273.258,2.1,2.1,0,0,1,.859.715,1.83,1.83,0,0,1,.313,1.059A1.847,1.847,0,0,1,14.816-2.1a2.093,2.093,0,0,1-.859.719A2.945,2.945,0,0,1,12.68-1.117Zm0-5.445a2.459,2.459,0,0,1-1.074-.223,1.706,1.706,0,0,1-.723-.629,1.712,1.712,0,0,1-.258-.937,1.741,1.741,0,0,1,.258-.953,1.732,1.732,0,0,1,.723-.633,2.423,2.423,0,0,1,1.074-.227,2.417,2.417,0,0,1,1.078.227,1.764,1.764,0,0,1,.723.633,1.721,1.721,0,0,1,.262.953,1.693,1.693,0,0,1-.262.938,1.737,1.737,0,0,1-.723.629A2.453,2.453,0,0,1,12.68-6.562Zm17.041.819v-7.12H28.3v7.12Zm.5,6.768V-.144H22.041V-1.52h7.68v-3.5H20.585v1.152H28.3v1.3H20.633v3.6Zm-8-13.424a3.32,3.32,0,0,0-3.584,3.2c0,1.9,1.616,3.088,3.584,3.088,2,0,3.568-1.232,3.568-3.1A3.293,3.293,0,0,0,22.217-12.4Zm0,1.216a1.968,1.968,0,0,1,2.176,1.968A1.978,1.978,0,0,1,22.217-7.3a2,2,0,0,1-2.192-1.92A2.044,2.044,0,0,1,22.217-11.184Z" transform="translate(539 292)"/>
      </g>
      <g id="그룹_8482-21" data-name="그룹 8482" transform="translate(882 216)">
        <rect id="사각형_16805-21" data-name="사각형 16805" class="cls-5" width="147" height="108" transform="translate(434 269)"/>
        <path id="패스_2146" data-name="패스 2146" class="cls-4" d="M3.922,0h1.75V-11.273H3.93q-.242.18-.543.391l-.621.438-.645.453q-.324.227-.621.438t-.539.391v1.719q.234-.18.516-.379l.59-.418q.309-.219.617-.434t.59-.418l.516-.375h.133Zm8.5.266a4.024,4.024,0,0,0,2.41-.715,4.471,4.471,0,0,0,1.527-2.074A9,9,0,0,0,16.891-5.8a8.762,8.762,0,0,0-.32-2.5,5.158,5.158,0,0,0-.906-1.8,3.815,3.815,0,0,0-1.391-1.09,4.241,4.241,0,0,0-1.781-.367,4.32,4.32,0,0,0-2.113.5A3.747,3.747,0,0,0,8.934-9.652a3.89,3.89,0,0,0-.527,2.027,3.852,3.852,0,0,0,.48,1.934,3.534,3.534,0,0,0,1.32,1.336,3.73,3.73,0,0,0,1.91.488,3.653,3.653,0,0,0,1.234-.2,3.171,3.171,0,0,0,1.012-.582,2.862,2.862,0,0,0,.707-.918H15.2A8.719,8.719,0,0,1,15-3.711a4.436,4.436,0,0,1-.547,1.371,2.459,2.459,0,0,1-.859.844,2.3,2.3,0,0,1-1.152.285,2.274,2.274,0,0,1-1.336-.4A1.926,1.926,0,0,1,10.336-2.7H8.57a3.518,3.518,0,0,0,.7,1.57A3.584,3.584,0,0,0,10.613-.1,4.325,4.325,0,0,0,12.422.266ZM12.5-5.273a2.427,2.427,0,0,1-1.223-.3,2.129,2.129,0,0,1-.832-.852,2.578,2.578,0,0,1-.3-1.25,2.424,2.424,0,0,1,.309-1.227,2.333,2.333,0,0,1,.848-.859,2.325,2.325,0,0,1,1.211-.32,2.283,2.283,0,0,1,1.207.324,2.346,2.346,0,0,1,.844.875,2.521,2.521,0,0,1,.309,1.254,2.412,2.412,0,0,1-.3,1.215,2.2,2.2,0,0,1-.84.84A2.443,2.443,0,0,1,12.5-5.273Zm17.142-.471v-7.12H28.219v7.12Zm.5,6.768V-.144H21.962V-1.52h7.68v-3.5H20.507v1.152h7.712v1.3H20.555v3.6Zm-8-13.424a3.32,3.32,0,0,0-3.584,3.2c0,1.9,1.616,3.088,3.584,3.088,2,0,3.568-1.232,3.568-3.1A3.293,3.293,0,0,0,22.139-12.4Zm0,1.216a1.968,1.968,0,0,1,2.176,1.968A1.978,1.978,0,0,1,22.139-7.3a2,2,0,0,1-2.192-1.92A2.044,2.044,0,0,1,22.139-11.184Z" transform="translate(537 292)"/>
      </g>
      <g id="그룹_8482-22" data-name="그룹 8482" transform="translate(0 324)">
        <rect id="사각형_16805-22" data-name="사각형 16805" class="cls-5" width="147" height="108" transform="translate(434 269)"/>
        <path id="패스_2159" data-name="패스 2159" class="cls-4" d="M1.125-8.008H2.781A2.207,2.207,0,0,1,3.043-9.1a1.872,1.872,0,0,1,.738-.734A2.241,2.241,0,0,1,4.891-10.1a2.127,2.127,0,0,1,1.07.254,1.752,1.752,0,0,1,.684.688,2.018,2.018,0,0,1,.238.988,2.333,2.333,0,0,1-.152.848,3.431,3.431,0,0,1-.547.883Q5.789-5.953,5.078-5.2L1.219-1.187V0H8.813V-1.492h-5.2v-.133l2.484-2.5A21.425,21.425,0,0,0,7.633-5.816,5.093,5.093,0,0,0,8.414-7.1a3.414,3.414,0,0,0,.227-1.242,2.974,2.974,0,0,0-.469-1.648,3.23,3.23,0,0,0-1.289-1.141A4.123,4.123,0,0,0,5-11.547a4.335,4.335,0,0,0-2.008.449,3.406,3.406,0,0,0-1.371,1.25A3.421,3.421,0,0,0,1.125-8.008ZM14.781.273a3.637,3.637,0,0,0,2.242-.7,4.317,4.317,0,0,0,1.422-2.016,9.151,9.151,0,0,0,.492-3.187,9.119,9.119,0,0,0-.5-3.191,4.392,4.392,0,0,0-1.426-2.027,3.6,3.6,0,0,0-2.234-.7,3.645,3.645,0,0,0-2.242.7,4.342,4.342,0,0,0-1.434,2.02,9.06,9.06,0,0,0-.5,3.18,9.145,9.145,0,0,0,.5,3.2A4.366,4.366,0,0,0,12.531-.426,3.636,3.636,0,0,0,14.781.273Zm0-1.453a1.819,1.819,0,0,1-1.3-.516,3.277,3.277,0,0,1-.82-1.508,9.1,9.1,0,0,1-.281-2.445,8.866,8.866,0,0,1,.285-2.426,3.273,3.273,0,0,1,.824-1.5,1.817,1.817,0,0,1,1.3-.512,1.811,1.811,0,0,1,1.293.508,3.239,3.239,0,0,1,.816,1.5,9.017,9.017,0,0,1,.281,2.434A9.141,9.141,0,0,1,16.891-3.2a3.291,3.291,0,0,1-.812,1.508A1.8,1.8,0,0,1,14.781-1.18ZM31.736-5.744v-7.12H30.312v7.12Zm.5,6.768V-.144H24.056V-1.52h7.68v-3.5H22.6v1.152h7.712v1.3H22.648v3.6Zm-8-13.424a3.32,3.32,0,0,0-3.584,3.2c0,1.9,1.616,3.088,3.584,3.088,2,0,3.568-1.232,3.568-3.1A3.293,3.293,0,0,0,24.232-12.4Zm0,1.216a1.968,1.968,0,0,1,2.176,1.968A1.978,1.978,0,0,1,24.232-7.3a2,2,0,0,1-2.192-1.92A2.044,2.044,0,0,1,24.232-11.184Z" transform="translate(536 292)"/>
      </g>
      <g id="그룹_8482-23" data-name="그룹 8482" transform="translate(147 324)">
        <rect id="사각형_16805-23" data-name="사각형 16805" class="cls-3" width="147" height="108" transform="translate(434 269)"/>
        <path id="패스_2158" data-name="패스 2158" class="cls-4" d="M1.125-8.008H2.781A2.207,2.207,0,0,1,3.043-9.1a1.872,1.872,0,0,1,.738-.734A2.241,2.241,0,0,1,4.891-10.1a2.127,2.127,0,0,1,1.07.254,1.752,1.752,0,0,1,.684.688,2.018,2.018,0,0,1,.238.988,2.333,2.333,0,0,1-.152.848,3.431,3.431,0,0,1-.547.883Q5.789-5.953,5.078-5.2L1.219-1.187V0H8.813V-1.492h-5.2v-.133l2.484-2.5A21.425,21.425,0,0,0,7.633-5.816,5.093,5.093,0,0,0,8.414-7.1a3.414,3.414,0,0,0,.227-1.242,2.974,2.974,0,0,0-.469-1.648,3.23,3.23,0,0,0-1.289-1.141A4.123,4.123,0,0,0,5-11.547a4.335,4.335,0,0,0-2.008.449,3.406,3.406,0,0,0-1.371,1.25A3.421,3.421,0,0,0,1.125-8.008ZM13.5,0h1.75V-11.273H13.508q-.242.18-.543.391l-.621.438-.645.453q-.324.227-.621.438t-.539.391v1.719q.234-.18.516-.379l.59-.418q.309-.219.617-.434t.59-.418l.516-.375H13.5ZM29.072-5.744v-7.12H27.648v7.12Zm.5,6.768V-.144H21.392V-1.52h7.68v-3.5H19.936v1.152h7.712v1.3H19.984v3.6Zm-8-13.424a3.32,3.32,0,0,0-3.584,3.2c0,1.9,1.616,3.088,3.584,3.088,2,0,3.568-1.232,3.568-3.1A3.293,3.293,0,0,0,21.568-12.4Zm0,1.216a1.968,1.968,0,0,1,2.176,1.968A1.978,1.978,0,0,1,21.568-7.3a2,2,0,0,1-2.192-1.92A2.044,2.044,0,0,1,21.568-11.184Z" transform="translate(536 292)"/>
      </g>
      <g id="그룹_8482-24" data-name="그룹 8482" transform="translate(294 324)">
        <rect id="사각형_16805-24" data-name="사각형 16805" class="cls-3" width="147" height="108" transform="translate(434 269)"/>
        <path id="패스_2157" data-name="패스 2157" class="cls-4" d="M1.125-8.008H2.781A2.207,2.207,0,0,1,3.043-9.1a1.872,1.872,0,0,1,.738-.734A2.241,2.241,0,0,1,4.891-10.1a2.127,2.127,0,0,1,1.07.254,1.752,1.752,0,0,1,.684.688,2.018,2.018,0,0,1,.238.988,2.333,2.333,0,0,1-.152.848,3.431,3.431,0,0,1-.547.883Q5.789-5.953,5.078-5.2L1.219-1.187V0H8.813V-1.492h-5.2v-.133l2.484-2.5A21.425,21.425,0,0,0,7.633-5.816,5.093,5.093,0,0,0,8.414-7.1a3.414,3.414,0,0,0,.227-1.242,2.974,2.974,0,0,0-.469-1.648,3.23,3.23,0,0,0-1.289-1.141A4.123,4.123,0,0,0,5-11.547a4.335,4.335,0,0,0-2.008.449,3.406,3.406,0,0,0-1.371,1.25A3.421,3.421,0,0,0,1.125-8.008Zm9.578,0h1.656A2.207,2.207,0,0,1,12.621-9.1a1.872,1.872,0,0,1,.738-.734,2.241,2.241,0,0,1,1.109-.266,2.127,2.127,0,0,1,1.07.254,1.752,1.752,0,0,1,.684.688,2.018,2.018,0,0,1,.238.988,2.333,2.333,0,0,1-.152.848,3.431,3.431,0,0,1-.547.883q-.395.488-1.105,1.238L10.8-1.187V0h7.594V-1.492h-5.2v-.133l2.484-2.5a21.425,21.425,0,0,0,1.539-1.691A5.093,5.093,0,0,0,17.992-7.1a3.414,3.414,0,0,0,.227-1.242,2.974,2.974,0,0,0-.469-1.648,3.23,3.23,0,0,0-1.289-1.141,4.123,4.123,0,0,0-1.883-.414,4.335,4.335,0,0,0-2.008.449A3.406,3.406,0,0,0,11.2-9.848,3.421,3.421,0,0,0,10.7-8.008ZM31.236-5.744v-7.12H29.812v7.12Zm.5,6.768V-.144H23.556V-1.52h7.68v-3.5H22.1v1.152h7.712v1.3H22.148v3.6Zm-8-13.424a3.32,3.32,0,0,0-3.584,3.2c0,1.9,1.616,3.088,3.584,3.088,2,0,3.568-1.232,3.568-3.1A3.293,3.293,0,0,0,23.732-12.4Zm0,1.216a1.968,1.968,0,0,1,2.176,1.968A1.978,1.978,0,0,1,23.732-7.3a2,2,0,0,1-2.192-1.92A2.044,2.044,0,0,1,23.732-11.184Z" transform="translate(539 292)"/>
      </g>
      <g id="그룹_8482-25" data-name="그룹 8482" transform="translate(441 324)">
        <rect id="사각형_16805-25" data-name="사각형 16805" class="cls-3" width="147" height="108" transform="translate(434 269)"/>
        <path id="패스_2150" data-name="패스 2150" class="cls-4" d="M1.125-8.008H2.781A2.207,2.207,0,0,1,3.043-9.1a1.872,1.872,0,0,1,.738-.734A2.241,2.241,0,0,1,4.891-10.1a2.127,2.127,0,0,1,1.07.254,1.752,1.752,0,0,1,.684.688,2.018,2.018,0,0,1,.238.988,2.333,2.333,0,0,1-.152.848,3.431,3.431,0,0,1-.547.883Q5.789-5.953,5.078-5.2L1.219-1.187V0H8.813V-1.492h-5.2v-.133l2.484-2.5A21.425,21.425,0,0,0,7.633-5.816,5.093,5.093,0,0,0,8.414-7.1a3.414,3.414,0,0,0,.227-1.242,2.974,2.974,0,0,0-.469-1.648,3.23,3.23,0,0,0-1.289-1.141A4.123,4.123,0,0,0,5-11.547a4.335,4.335,0,0,0-2.008.449,3.406,3.406,0,0,0-1.371,1.25A3.421,3.421,0,0,0,1.125-8.008ZM13.289-5.1H14.7a2.657,2.657,0,0,1,1.738.523,1.752,1.752,0,0,1,.637,1.43,1.762,1.762,0,0,1-.3,1.023,2.006,2.006,0,0,1-.832.684,2.869,2.869,0,0,1-1.219.246,3.072,3.072,0,0,1-1.211-.223,2.019,2.019,0,0,1-.836-.633,1.858,1.858,0,0,1-.367-.965h-1.68a3.166,3.166,0,0,0,.574,1.73A3.473,3.473,0,0,0,12.641-.137a5.086,5.086,0,0,0,2.1.41A4.934,4.934,0,0,0,16.852-.16a3.709,3.709,0,0,0,1.473-1.184,2.844,2.844,0,0,0,.543-1.711A2.646,2.646,0,0,0,18.2-4.937a2.991,2.991,0,0,0-1.8-.891v-.133a3.064,3.064,0,0,0,1.051-.512,2.462,2.462,0,0,0,.719-.871,2.727,2.727,0,0,0,.27-1.2,2.742,2.742,0,0,0-.426-1.484,3.079,3.079,0,0,0-1.238-1.1,4.28,4.28,0,0,0-1.977-.418,4.652,4.652,0,0,0-2.055.422,3.358,3.358,0,0,0-1.359,1.16,3.346,3.346,0,0,0-.547,1.7h1.656a2.107,2.107,0,0,1,.332-1,1.762,1.762,0,0,1,.754-.625,2.7,2.7,0,0,1,1.117-.215,2.305,2.305,0,0,1,1.086.238,1.7,1.7,0,0,1,.691.641,1.737,1.737,0,0,1,.238.9,1.785,1.785,0,0,1-.262.961,1.775,1.775,0,0,1-.727.656,2.355,2.355,0,0,1-1.074.234H13.289Zm18.33-.642v-7.12H30.2v7.12Zm.5,6.768V-.144H23.939V-1.52h7.68v-3.5H22.483v1.152H30.2v1.3H22.531v3.6Zm-8-13.424a3.32,3.32,0,0,0-3.584,3.2c0,1.9,1.616,3.088,3.584,3.088,2,0,3.568-1.232,3.568-3.1A3.293,3.293,0,0,0,24.115-12.4Zm0,1.216a1.968,1.968,0,0,1,2.176,1.968A1.978,1.978,0,0,1,24.115-7.3a2,2,0,0,1-2.192-1.92A2.044,2.044,0,0,1,24.115-11.184Z" transform="translate(536 292)"/>
      </g>
      <g id="그룹_8482-26" data-name="그룹 8482" transform="translate(588 324)">
        <rect id="사각형_16805-26" data-name="사각형 16805" class="cls-3" width="147" height="108" transform="translate(434 269)"/>
        <path id="패스_2149" data-name="패스 2149" class="cls-4" d="M1.125-8.008H2.781A2.207,2.207,0,0,1,3.043-9.1a1.872,1.872,0,0,1,.738-.734A2.241,2.241,0,0,1,4.891-10.1a2.127,2.127,0,0,1,1.07.254,1.752,1.752,0,0,1,.684.688,2.018,2.018,0,0,1,.238.988,2.333,2.333,0,0,1-.152.848,3.431,3.431,0,0,1-.547.883Q5.789-5.953,5.078-5.2L1.219-1.187V0H8.813V-1.492h-5.2v-.133l2.484-2.5A21.425,21.425,0,0,0,7.633-5.816,5.093,5.093,0,0,0,8.414-7.1a3.414,3.414,0,0,0,.227-1.242,2.974,2.974,0,0,0-.469-1.648,3.23,3.23,0,0,0-1.289-1.141A4.123,4.123,0,0,0,5-11.547a4.335,4.335,0,0,0-2.008.449,3.406,3.406,0,0,0-1.371,1.25A3.421,3.421,0,0,0,1.125-8.008ZM15.789,0h1.688V-2.242h1.555V-3.727H17.477v-7.547H14.984q-.469.7-.945,1.441t-.953,1.5q-.477.758-.949,1.527T11.2-5.266q-.465.773-.91,1.539v1.484h5.5Zm-3.82-3.8q.344-.594.715-1.207t.754-1.23q.383-.617.766-1.227t.762-1.2q.379-.586.746-1.133h.1v6.1H11.969ZM31.7-5.744v-7.12H30.281v7.12Zm.5,6.768V-.144H24.025V-1.52H31.7v-3.5H22.569v1.152h7.712v1.3H22.617v3.6ZM24.2-12.4a3.32,3.32,0,0,0-3.584,3.2c0,1.9,1.616,3.088,3.584,3.088,2,0,3.568-1.232,3.568-3.1A3.293,3.293,0,0,0,24.2-12.4Zm0,1.216a1.968,1.968,0,0,1,2.176,1.968A1.978,1.978,0,0,1,24.2-7.3a2,2,0,0,1-2.192-1.92A2.044,2.044,0,0,1,24.2-11.184Z" transform="translate(536 292)"/>
      </g>
      <g id="그룹_8482-27" data-name="그룹 8482" transform="translate(735 324)">
        <rect id="사각형_16805-27" data-name="사각형 16805" class="cls-3" width="147" height="108" transform="translate(434 269)"/>
        <path id="패스_2148" data-name="패스 2148" class="cls-4" d="M1.125-8.008H2.781A2.207,2.207,0,0,1,3.043-9.1a1.872,1.872,0,0,1,.738-.734A2.241,2.241,0,0,1,4.891-10.1a2.127,2.127,0,0,1,1.07.254,1.752,1.752,0,0,1,.684.688,2.018,2.018,0,0,1,.238.988,2.333,2.333,0,0,1-.152.848,3.431,3.431,0,0,1-.547.883Q5.789-5.953,5.078-5.2L1.219-1.187V0H8.813V-1.492h-5.2v-.133l2.484-2.5A21.425,21.425,0,0,0,7.633-5.816,5.093,5.093,0,0,0,8.414-7.1a3.414,3.414,0,0,0,.227-1.242,2.974,2.974,0,0,0-.469-1.648,3.23,3.23,0,0,0-1.289-1.141A4.123,4.123,0,0,0,5-11.547a4.335,4.335,0,0,0-2.008.449,3.406,3.406,0,0,0-1.371,1.25A3.421,3.421,0,0,0,1.125-8.008ZM14.734.273a4.252,4.252,0,0,0,2.1-.5,3.582,3.582,0,0,0,1.4-1.391,4.1,4.1,0,0,0,.5-2.055,3.944,3.944,0,0,0-.469-1.961,3.385,3.385,0,0,0-1.258-1.3,3.391,3.391,0,0,0-1.742-.461,3.656,3.656,0,0,0-1.48.273,2.515,2.515,0,0,0-1.012.789h-.133l.328-3.461h5.18v-1.484H11.617l-.633,6.508h1.6a2.373,2.373,0,0,1,.535-.672,2.283,2.283,0,0,1,.746-.43,2.76,2.76,0,0,1,.922-.148,2.258,2.258,0,0,1,1.168.3,2.071,2.071,0,0,1,.789.836,2.617,2.617,0,0,1,.285,1.242,2.758,2.758,0,0,1-.285,1.285,2.109,2.109,0,0,1-.8.859,2.3,2.3,0,0,1-1.2.309,2.559,2.559,0,0,1-1.105-.23,2.026,2.026,0,0,1-.793-.652,2.033,2.033,0,0,1-.367-.984H10.8a3.332,3.332,0,0,0,.566,1.727A3.5,3.5,0,0,0,12.75-.152,4.446,4.446,0,0,0,14.734.273ZM31.5-5.744v-7.12H30.078v7.12ZM32,1.024V-.144H23.822V-1.52H31.5v-3.5H22.366v1.152h7.712v1.3H22.414v3.6ZM24-12.4a3.32,3.32,0,0,0-3.584,3.2c0,1.9,1.616,3.088,3.584,3.088,2,0,3.568-1.232,3.568-3.1A3.293,3.293,0,0,0,24-12.4Zm0,1.216a1.968,1.968,0,0,1,2.176,1.968A1.978,1.978,0,0,1,24-7.3a2,2,0,0,1-2.192-1.92A2.044,2.044,0,0,1,24-11.184Z" transform="translate(536 292)"/>
      </g>
      <g id="그룹_8482-28" data-name="그룹 8482" transform="translate(882 324)">
        <rect id="사각형_16805-28" data-name="사각형 16805" class="cls-5" width="147" height="108" transform="translate(434 269)"/>
        <path id="패스_2147" data-name="패스 2147" class="cls-4" d="M1.125-8.008H2.781A2.207,2.207,0,0,1,3.043-9.1a1.872,1.872,0,0,1,.738-.734A2.241,2.241,0,0,1,4.891-10.1a2.127,2.127,0,0,1,1.07.254,1.752,1.752,0,0,1,.684.688,2.018,2.018,0,0,1,.238.988,2.333,2.333,0,0,1-.152.848,3.431,3.431,0,0,1-.547.883Q5.789-5.953,5.078-5.2L1.219-1.187V0H8.813V-1.492h-5.2v-.133l2.484-2.5A21.425,21.425,0,0,0,7.633-5.816,5.093,5.093,0,0,0,8.414-7.1a3.414,3.414,0,0,0,.227-1.242,2.974,2.974,0,0,0-.469-1.648,3.23,3.23,0,0,0-1.289-1.141A4.123,4.123,0,0,0,5-11.547a4.335,4.335,0,0,0-2.008.449,3.406,3.406,0,0,0-1.371,1.25A3.421,3.421,0,0,0,1.125-8.008ZM14.961.266a4.343,4.343,0,0,0,2.117-.5,3.721,3.721,0,0,0,1.445-1.387,3.907,3.907,0,0,0,.523-2.031A3.877,3.877,0,0,0,18.57-5.59a3.506,3.506,0,0,0-1.316-1.336,3.73,3.73,0,0,0-1.91-.488,3.677,3.677,0,0,0-1.242.2,3.124,3.124,0,0,0-1.008.582,2.96,2.96,0,0,0-.711.926H12.25a7.825,7.825,0,0,1,.359-2.4,3.112,3.112,0,0,1,.961-1.469,2.339,2.339,0,0,1,1.5-.5,2.458,2.458,0,0,1,.953.176,1.841,1.841,0,0,1,.707.512,1.884,1.884,0,0,1,.395.813h1.758a3.328,3.328,0,0,0-.645-1.566,3.424,3.424,0,0,0-1.328-1.039,4.5,4.5,0,0,0-1.879-.371,3.981,3.981,0,0,0-2.371.715,4.52,4.52,0,0,0-1.547,2.074,8.85,8.85,0,0,0-.543,3.281A8.637,8.637,0,0,0,10.9-2.969a5.214,5.214,0,0,0,.918,1.8A3.742,3.742,0,0,0,13.207-.09,4.274,4.274,0,0,0,14.961.266ZM14.945-1.2a2.283,2.283,0,0,1-1.207-.324,2.368,2.368,0,0,1-.848-.879,2.5,2.5,0,0,1-.312-1.25,2.427,2.427,0,0,1,.3-1.223,2.2,2.2,0,0,1,.844-.84,2.465,2.465,0,0,1,1.234-.3,2.421,2.421,0,0,1,1.227.3,2.143,2.143,0,0,1,.828.848,2.572,2.572,0,0,1,.3,1.254A2.428,2.428,0,0,1,17-2.383a2.365,2.365,0,0,1-.844.867A2.3,2.3,0,0,1,14.945-1.2ZM31.807-5.744v-7.12H30.383v7.12Zm.5,6.768V-.144H24.127V-1.52h7.68v-3.5H22.671v1.152h7.712v1.3H22.719v3.6ZM24.3-12.4a3.32,3.32,0,0,0-3.584,3.2c0,1.9,1.616,3.088,3.584,3.088,2,0,3.568-1.232,3.568-3.1A3.293,3.293,0,0,0,24.3-12.4Zm0,1.216a1.968,1.968,0,0,1,2.176,1.968A1.978,1.978,0,0,1,24.3-7.3a2,2,0,0,1-2.192-1.92A2.044,2.044,0,0,1,24.3-11.184Z" transform="translate(535 292)"/>
      </g>
      <g id="그룹_8482-29" data-name="그룹 8482" transform="translate(0 432)">
        <rect id="사각형_16805-29" data-name="사각형 16805" class="cls-5" width="147" height="108" transform="translate(434 269)"/>
        <path id="패스_2160" data-name="패스 2160" class="cls-4" d="M1.125-8.008H2.781A2.207,2.207,0,0,1,3.043-9.1a1.872,1.872,0,0,1,.738-.734A2.241,2.241,0,0,1,4.891-10.1a2.127,2.127,0,0,1,1.07.254,1.752,1.752,0,0,1,.684.688,2.018,2.018,0,0,1,.238.988,2.333,2.333,0,0,1-.152.848,3.431,3.431,0,0,1-.547.883Q5.789-5.953,5.078-5.2L1.219-1.187V0H8.813V-1.492h-5.2v-.133l2.484-2.5A21.425,21.425,0,0,0,7.633-5.816,5.093,5.093,0,0,0,8.414-7.1a3.414,3.414,0,0,0,.227-1.242,2.974,2.974,0,0,0-.469-1.648,3.23,3.23,0,0,0-1.289-1.141A4.123,4.123,0,0,0,5-11.547a4.335,4.335,0,0,0-2.008.449,3.406,3.406,0,0,0-1.371,1.25A3.421,3.421,0,0,0,1.125-8.008ZM11.273,0h1.836l4.906-9.758v-1.516h-7.68V-9.8h5.906v.125ZM30.666-5.744v-7.12H29.242v7.12Zm.5,6.768V-.144H22.986V-1.52h7.68v-3.5H21.53v1.152h7.712v1.3H21.578v3.6Zm-8-13.424a3.32,3.32,0,0,0-3.584,3.2c0,1.9,1.616,3.088,3.584,3.088,2,0,3.568-1.232,3.568-3.1A3.293,3.293,0,0,0,23.162-12.4Zm0,1.216a1.968,1.968,0,0,1,2.176,1.968A1.978,1.978,0,0,1,23.162-7.3a2,2,0,0,1-2.192-1.92A2.044,2.044,0,0,1,23.162-11.184Z" transform="translate(536 292)"/>
      </g>
      <g id="그룹_8482-30" data-name="그룹 8482" transform="translate(147 432)">
        <rect id="사각형_16805-30" data-name="사각형 16805" class="cls-3" width="147" height="108" transform="translate(434 269)"/>
        <path id="패스_2161" data-name="패스 2161" class="cls-4" d="M1.125-8.008H2.781A2.207,2.207,0,0,1,3.043-9.1a1.872,1.872,0,0,1,.738-.734A2.241,2.241,0,0,1,4.891-10.1a2.127,2.127,0,0,1,1.07.254,1.752,1.752,0,0,1,.684.688,2.018,2.018,0,0,1,.238.988,2.333,2.333,0,0,1-.152.848,3.431,3.431,0,0,1-.547.883Q5.789-5.953,5.078-5.2L1.219-1.187V0H8.813V-1.492h-5.2v-.133l2.484-2.5A21.425,21.425,0,0,0,7.633-5.816,5.093,5.093,0,0,0,8.414-7.1a3.414,3.414,0,0,0,.227-1.242,2.974,2.974,0,0,0-.469-1.648,3.23,3.23,0,0,0-1.289-1.141A4.123,4.123,0,0,0,5-11.547a4.335,4.335,0,0,0-2.008.449,3.406,3.406,0,0,0-1.371,1.25A3.421,3.421,0,0,0,1.125-8.008ZM14.844.273a5.491,5.491,0,0,0,2.215-.418A3.529,3.529,0,0,0,18.551-1.3a2.862,2.862,0,0,0,.535-1.719,2.928,2.928,0,0,0-.3-1.328,2.813,2.813,0,0,0-.836-1,2.947,2.947,0,0,0-1.262-.535v-.133a2.543,2.543,0,0,0,1.418-.906,2.517,2.517,0,0,0,.52-1.586,2.637,2.637,0,0,0-.484-1.57,3.273,3.273,0,0,0-1.336-1.07,4.657,4.657,0,0,0-1.961-.391,4.664,4.664,0,0,0-1.957.391,3.268,3.268,0,0,0-1.34,1.07,2.637,2.637,0,0,0-.484,1.57,2.5,2.5,0,0,0,.531,1.59,2.546,2.546,0,0,0,1.406.9v.133a3.022,3.022,0,0,0-1.258.547,2.8,2.8,0,0,0-.836,1,2.935,2.935,0,0,0-.3,1.324A2.836,2.836,0,0,0,11.148-1.3a3.562,3.562,0,0,0,1.492,1.16A5.442,5.442,0,0,0,14.844.273Zm0-1.391a2.926,2.926,0,0,1-1.27-.262,2.122,2.122,0,0,1-.863-.719A1.83,1.83,0,0,1,12.4-3.156a1.83,1.83,0,0,1,.313-1.059,2.094,2.094,0,0,1,.863-.715,2.963,2.963,0,0,1,1.27-.258,2.957,2.957,0,0,1,1.273.258,2.1,2.1,0,0,1,.859.715,1.83,1.83,0,0,1,.313,1.059A1.847,1.847,0,0,1,16.98-2.1a2.093,2.093,0,0,1-.859.719A2.945,2.945,0,0,1,14.844-1.117Zm0-5.445a2.459,2.459,0,0,1-1.074-.223,1.706,1.706,0,0,1-.723-.629,1.712,1.712,0,0,1-.258-.937,1.741,1.741,0,0,1,.258-.953,1.732,1.732,0,0,1,.723-.633,2.423,2.423,0,0,1,1.074-.227,2.417,2.417,0,0,1,1.078.227,1.764,1.764,0,0,1,.723.633,1.721,1.721,0,0,1,.262.953,1.693,1.693,0,0,1-.262.938,1.737,1.737,0,0,1-.723.629A2.453,2.453,0,0,1,14.844-6.562Zm17.041.819v-7.12H30.461v7.12Zm.5,6.768V-.144H24.2V-1.52h7.68v-3.5H22.749v1.152h7.712v1.3H22.8v3.6Zm-8-13.424A3.32,3.32,0,0,0,20.8-9.2c0,1.9,1.616,3.088,3.584,3.088,2,0,3.568-1.232,3.568-3.1A3.293,3.293,0,0,0,24.381-12.4Zm0,1.216a1.968,1.968,0,0,1,2.176,1.968A1.978,1.978,0,0,1,24.381-7.3a2,2,0,0,1-2.192-1.92A2.044,2.044,0,0,1,24.381-11.184Z" transform="translate(535 293)"/>
      </g>
      <g id="그룹_8482-31" data-name="그룹 8482" transform="translate(294 432)">
        <rect id="사각형_16805-31" data-name="사각형 16805" class="cls-3" width="147" height="108" transform="translate(434 269)"/>
        <path id="패스_2162" data-name="패스 2162" class="cls-4" d="M1.125-8.008H2.781A2.207,2.207,0,0,1,3.043-9.1a1.872,1.872,0,0,1,.738-.734A2.241,2.241,0,0,1,4.891-10.1a2.127,2.127,0,0,1,1.07.254,1.752,1.752,0,0,1,.684.688,2.018,2.018,0,0,1,.238.988,2.333,2.333,0,0,1-.152.848,3.431,3.431,0,0,1-.547.883Q5.789-5.953,5.078-5.2L1.219-1.187V0H8.813V-1.492h-5.2v-.133l2.484-2.5A21.425,21.425,0,0,0,7.633-5.816,5.093,5.093,0,0,0,8.414-7.1a3.414,3.414,0,0,0,.227-1.242,2.974,2.974,0,0,0-.469-1.648,3.23,3.23,0,0,0-1.289-1.141A4.123,4.123,0,0,0,5-11.547a4.335,4.335,0,0,0-2.008.449,3.406,3.406,0,0,0-1.371,1.25A3.421,3.421,0,0,0,1.125-8.008ZM14.586.266A4.024,4.024,0,0,0,17-.449a4.471,4.471,0,0,0,1.527-2.074A9,9,0,0,0,19.055-5.8a8.762,8.762,0,0,0-.32-2.5,5.158,5.158,0,0,0-.906-1.8,3.815,3.815,0,0,0-1.391-1.09,4.241,4.241,0,0,0-1.781-.367,4.32,4.32,0,0,0-2.113.5A3.747,3.747,0,0,0,11.1-9.652a3.89,3.89,0,0,0-.527,2.027,3.852,3.852,0,0,0,.48,1.934,3.534,3.534,0,0,0,1.32,1.336,3.73,3.73,0,0,0,1.91.488,3.653,3.653,0,0,0,1.234-.2,3.171,3.171,0,0,0,1.012-.582,2.862,2.862,0,0,0,.707-.918h.133a8.719,8.719,0,0,1-.207,1.859,4.436,4.436,0,0,1-.547,1.371,2.459,2.459,0,0,1-.859.844,2.3,2.3,0,0,1-1.152.285,2.274,2.274,0,0,1-1.336-.4A1.926,1.926,0,0,1,12.5-2.7H10.734a3.518,3.518,0,0,0,.7,1.57A3.584,3.584,0,0,0,12.777-.1,4.325,4.325,0,0,0,14.586.266Zm.078-5.539a2.427,2.427,0,0,1-1.223-.3,2.129,2.129,0,0,1-.832-.852,2.578,2.578,0,0,1-.3-1.25,2.424,2.424,0,0,1,.309-1.227,2.333,2.333,0,0,1,.848-.859,2.325,2.325,0,0,1,1.211-.32,2.283,2.283,0,0,1,1.207.324,2.346,2.346,0,0,1,.844.875,2.521,2.521,0,0,1,.309,1.254,2.412,2.412,0,0,1-.3,1.215,2.2,2.2,0,0,1-.84.84A2.443,2.443,0,0,1,14.664-5.273Zm17.142-.471v-7.12H30.383v7.12Zm.5,6.768V-.144H24.127V-1.52h7.68v-3.5H22.671v1.152h7.712v1.3H22.719v3.6ZM24.3-12.4a3.32,3.32,0,0,0-3.584,3.2c0,1.9,1.616,3.088,3.584,3.088,2,0,3.568-1.232,3.568-3.1A3.293,3.293,0,0,0,24.3-12.4Zm0,1.216a1.968,1.968,0,0,1,2.176,1.968A1.978,1.978,0,0,1,24.3-7.3a2,2,0,0,1-2.192-1.92A2.044,2.044,0,0,1,24.3-11.184Z" transform="translate(535 293)"/>
      </g>
      <g id="그룹_8482-32" data-name="그룹 8482" transform="translate(441 432)">
        <rect id="사각형_16805-32" data-name="사각형 16805" class="cls-3" width="147" height="108" transform="translate(434 269)"/>
        <path id="패스_2163" data-name="패스 2163" class="cls-4" d="M3.711-5.1H5.117a2.657,2.657,0,0,1,1.738.523,1.752,1.752,0,0,1,.637,1.43,1.762,1.762,0,0,1-.3,1.023,2.006,2.006,0,0,1-.832.684A2.869,2.869,0,0,1,5.141-1.2,3.072,3.072,0,0,1,3.93-1.418a2.019,2.019,0,0,1-.836-.633,1.858,1.858,0,0,1-.367-.965H1.047a3.166,3.166,0,0,0,.574,1.73A3.473,3.473,0,0,0,3.063-.137a5.086,5.086,0,0,0,2.1.41A4.934,4.934,0,0,0,7.273-.16,3.709,3.709,0,0,0,8.746-1.344a2.844,2.844,0,0,0,.543-1.711,2.646,2.646,0,0,0-.672-1.883,2.991,2.991,0,0,0-1.8-.891v-.133a3.064,3.064,0,0,0,1.051-.512,2.462,2.462,0,0,0,.719-.871,2.727,2.727,0,0,0,.27-1.2,2.742,2.742,0,0,0-.426-1.484,3.079,3.079,0,0,0-1.238-1.1,4.28,4.28,0,0,0-1.977-.418,4.652,4.652,0,0,0-2.055.422A3.358,3.358,0,0,0,1.8-9.965a3.346,3.346,0,0,0-.547,1.7H2.914a2.107,2.107,0,0,1,.332-1A1.762,1.762,0,0,1,4-9.895a2.7,2.7,0,0,1,1.117-.215A2.305,2.305,0,0,1,6.2-9.871a1.7,1.7,0,0,1,.691.641,1.737,1.737,0,0,1,.238.9,1.785,1.785,0,0,1-.262.961,1.775,1.775,0,0,1-.727.656,2.355,2.355,0,0,1-1.074.234H3.711ZM15.133.273a3.637,3.637,0,0,0,2.242-.7A4.317,4.317,0,0,0,18.8-2.437a9.151,9.151,0,0,0,.492-3.187,9.119,9.119,0,0,0-.5-3.191,4.392,4.392,0,0,0-1.426-2.027,3.6,3.6,0,0,0-2.234-.7,3.645,3.645,0,0,0-2.242.7,4.342,4.342,0,0,0-1.434,2.02,9.06,9.06,0,0,0-.5,3.18,9.145,9.145,0,0,0,.5,3.2A4.366,4.366,0,0,0,12.883-.426,3.636,3.636,0,0,0,15.133.273Zm0-1.453a1.819,1.819,0,0,1-1.3-.516,3.277,3.277,0,0,1-.82-1.508,9.1,9.1,0,0,1-.281-2.445,8.866,8.866,0,0,1,.285-2.426,3.273,3.273,0,0,1,.824-1.5,1.817,1.817,0,0,1,1.3-.512,1.811,1.811,0,0,1,1.293.508,3.239,3.239,0,0,1,.816,1.5,9.017,9.017,0,0,1,.281,2.434A9.141,9.141,0,0,1,17.242-3.2a3.291,3.291,0,0,1-.812,1.508A1.8,1.8,0,0,1,15.133-1.18ZM32.088-5.744v-7.12H30.664v7.12Zm.5,6.768V-.144H24.408V-1.52h7.68v-3.5H22.952v1.152h7.712v1.3H23v3.6Zm-8-13.424A3.32,3.32,0,0,0,21-9.2c0,1.9,1.616,3.088,3.584,3.088,2,0,3.568-1.232,3.568-3.1A3.293,3.293,0,0,0,24.584-12.4Zm0,1.216A1.968,1.968,0,0,1,26.76-9.216,1.978,1.978,0,0,1,24.584-7.3a2,2,0,0,1-2.192-1.92A2.044,2.044,0,0,1,24.584-11.184Z" transform="translate(536 293)"/>
      </g>
      <g id="그룹_8482-33" data-name="그룹 8482" transform="translate(588 432)">
        <rect id="사각형_16805-33" data-name="사각형 16805" class="cls-3" width="147" height="108" transform="translate(434 269)"/>
        <path id="패스_2165" data-name="패스 2165" class="cls-4" d="M12.08-5.744v-7.12H10.656v7.12Zm.5,6.768V-.144H4.4V-1.52h7.68v-3.5H2.944v1.152h7.712v1.3H2.992v3.6Zm-8-13.424A3.32,3.32,0,0,0,.992-9.2c0,1.9,1.616,3.088,3.584,3.088,2,0,3.568-1.232,3.568-3.1A3.293,3.293,0,0,0,4.576-12.4Zm0,1.216A1.968,1.968,0,0,1,6.752-9.216,1.978,1.978,0,0,1,4.576-7.3a2,2,0,0,1-2.192-1.92A2.044,2.044,0,0,1,4.576-11.184Z" transform="translate(566 293)"/>
      </g>
      <g id="그룹_8482-34" data-name="그룹 8482" transform="translate(735 432)">
        <rect id="사각형_16805-34" data-name="사각형 16805" class="cls-3" width="147" height="108" transform="translate(434 269)"/>
        <path id="패스_2167" data-name="패스 2167" class="cls-6" d="M3.922,0h1.75V-11.273H3.93q-.242.18-.543.391l-.621.438-.645.453q-.324.227-.621.438t-.539.391v1.719q.234-.18.516-.379l.59-.418q.309-.219.617-.434t.59-.418l.516-.375h.133Zm16.2,1.1V.032h-8.64V-.944H19.59V-3.92H10.054v1.056h8.128v.944H10.054V1.1Zm-4.24-11.328c0-1.472-1.5-2.32-3.472-2.32s-3.488.88-3.488,2.3c0,1.472,1.52,2.32,3.488,2.32S15.878-8.768,15.878-10.224ZM19.59-4.48v-8.384H18.2v6.816H15.206V-5.04H18.2v.56Zm-6.544.016V-6.256c1.5-.1,3.136-.224,4.112-.352L17.03-7.664c-1.328.16-2.7.24-4.5.32-1.536.064-3.024.08-4.64.08L8.1-6.1c1.152-.016,2.272-.048,3.536-.08v1.712Zm1.408-5.76c0,.784-.88,1.184-2.048,1.184s-2.032-.4-2.032-1.184.848-1.216,2.032-1.216C13.622-11.44,14.454-11.008,14.454-10.224ZM29.238,0h1.75V-11.273H29.246q-.242.18-.543.391l-.621.438-.645.453q-.324.227-.621.438t-.539.391v1.719q.234-.18.516-.379l.59-.418q.309-.219.617-.434t.59-.418l.516-.375h.133ZM44.811-5.744v-7.12H43.387v7.12Zm.5,6.768V-.144H37.131V-1.52h7.68v-3.5H35.675v1.152h7.712v1.3H35.723v3.6Zm-8-13.424a3.32,3.32,0,0,0-3.584,3.2c0,1.9,1.616,3.088,3.584,3.088,2,0,3.568-1.232,3.568-3.1A3.293,3.293,0,0,0,37.307-12.4Zm0,1.216a1.968,1.968,0,0,1,2.176,1.968A1.978,1.978,0,0,1,37.307-7.3a2,2,0,0,1-2.192-1.92A2.044,2.044,0,0,1,37.307-11.184Z" transform="translate(522 293)"/>
      </g>
      <g id="그룹_8482-35" data-name="그룹 8482" transform="translate(882 432)">
        <rect id="사각형_16805-35" data-name="사각형 16805" class="cls-5" width="147" height="108" transform="translate(434 269)"/>
        <path id="패스_2168" data-name="패스 2168" class="cls-6" d="M1.125-8.008H2.781A2.207,2.207,0,0,1,3.043-9.1a1.872,1.872,0,0,1,.738-.734A2.241,2.241,0,0,1,4.891-10.1a2.127,2.127,0,0,1,1.07.254,1.752,1.752,0,0,1,.684.688,2.018,2.018,0,0,1,.238.988,2.333,2.333,0,0,1-.152.848,3.431,3.431,0,0,1-.547.883Q5.789-5.953,5.078-5.2L1.219-1.187V0H8.813V-1.492h-5.2v-.133l2.484-2.5A21.425,21.425,0,0,0,7.633-5.816,5.093,5.093,0,0,0,8.414-7.1a3.414,3.414,0,0,0,.227-1.242,2.974,2.974,0,0,0-.469-1.648,3.23,3.23,0,0,0-1.289-1.141A4.123,4.123,0,0,0,5-11.547a4.335,4.335,0,0,0-2.008.449,3.406,3.406,0,0,0-1.371,1.25A3.421,3.421,0,0,0,1.125-8.008ZM21.658-5.744v-7.12H20.234v7.12Zm.5,6.768V-.144H13.978V-1.52h7.68v-3.5H12.522v1.152h7.712v1.3H12.57v3.6Zm-8-13.424A3.32,3.32,0,0,0,10.57-9.2c0,1.9,1.616,3.088,3.584,3.088,2,0,3.568-1.232,3.568-3.1A3.293,3.293,0,0,0,14.154-12.4Zm0,1.216A1.968,1.968,0,0,1,16.33-9.216,1.978,1.978,0,0,1,14.154-7.3a2,2,0,0,1-2.192-1.92A2.044,2.044,0,0,1,14.154-11.184Z" transform="translate(544 293)"/>
      </g>
      <g id="그룹_8482-36" data-name="그룹 8482" transform="translate(0 540)">
        <rect id="사각형_16805-36" data-name="사각형 16805" class="cls-5" width="147" height="108" transform="translate(434 269)"/>
        <path id="패스_2175" data-name="패스 2175" class="cls-6" d="M3.711-5.1H5.117a2.657,2.657,0,0,1,1.738.523,1.752,1.752,0,0,1,.637,1.43,1.762,1.762,0,0,1-.3,1.023,2.006,2.006,0,0,1-.832.684A2.869,2.869,0,0,1,5.141-1.2,3.072,3.072,0,0,1,3.93-1.418a2.019,2.019,0,0,1-.836-.633,1.858,1.858,0,0,1-.367-.965H1.047a3.166,3.166,0,0,0,.574,1.73A3.473,3.473,0,0,0,3.063-.137a5.086,5.086,0,0,0,2.1.41A4.934,4.934,0,0,0,7.273-.16,3.709,3.709,0,0,0,8.746-1.344a2.844,2.844,0,0,0,.543-1.711,2.646,2.646,0,0,0-.672-1.883,2.991,2.991,0,0,0-1.8-.891v-.133a3.064,3.064,0,0,0,1.051-.512,2.462,2.462,0,0,0,.719-.871,2.727,2.727,0,0,0,.27-1.2,2.742,2.742,0,0,0-.426-1.484,3.079,3.079,0,0,0-1.238-1.1,4.28,4.28,0,0,0-1.977-.418,4.652,4.652,0,0,0-2.055.422A3.358,3.358,0,0,0,1.8-9.965a3.346,3.346,0,0,0-.547,1.7H2.914a2.107,2.107,0,0,1,.332-1A1.762,1.762,0,0,1,4-9.895a2.7,2.7,0,0,1,1.117-.215A2.305,2.305,0,0,1,6.2-9.871a1.7,1.7,0,0,1,.691.641,1.737,1.737,0,0,1,.238.9,1.785,1.785,0,0,1-.262.961,1.775,1.775,0,0,1-.727.656,2.355,2.355,0,0,1-1.074.234H3.711Zm18.33-.642v-7.12H20.617v7.12Zm.5,6.768V-.144H14.361V-1.52h7.68v-3.5H12.9v1.152h7.712v1.3H12.953v3.6Zm-8-13.424a3.32,3.32,0,0,0-3.584,3.2c0,1.9,1.616,3.088,3.584,3.088,2,0,3.568-1.232,3.568-3.1A3.293,3.293,0,0,0,14.537-12.4Zm0,1.216a1.968,1.968,0,0,1,2.176,1.968A1.978,1.978,0,0,1,14.537-7.3a2,2,0,0,1-2.192-1.92A2.044,2.044,0,0,1,14.537-11.184Z" transform="translate(545 294)"/>
      </g>
      <g id="그룹_8482-37" data-name="그룹 8482" transform="translate(147 540)">
        <rect id="사각형_16805-37" data-name="사각형 16805" class="cls-3" width="147" height="108" transform="translate(434 269)"/>
        <path id="패스_2174" data-name="패스 2174" class="cls-6" d="M6.406,0H8.094V-2.242H9.648V-3.727H8.094v-7.547H5.6q-.469.7-.945,1.441T3.7-8.336q-.477.758-.949,1.527T1.816-5.266q-.465.773-.91,1.539v1.484h5.5ZM2.586-3.8Q2.93-4.4,3.3-5.012t.754-1.23q.383-.617.766-1.227t.762-1.2q.379-.586.746-1.133h.1v6.1H2.586ZM22.322-5.744v-7.12H20.9v7.12Zm.5,6.768V-.144H14.642V-1.52h7.68v-3.5H13.186v1.152H20.9v1.3H13.234v3.6Zm-8-13.424a3.32,3.32,0,0,0-3.584,3.2c0,1.9,1.616,3.088,3.584,3.088,2,0,3.568-1.232,3.568-3.1A3.293,3.293,0,0,0,14.818-12.4Zm0,1.216a1.968,1.968,0,0,1,2.176,1.968A1.978,1.978,0,0,1,14.818-7.3a2,2,0,0,1-2.192-1.92A2.044,2.044,0,0,1,14.818-11.184Z" transform="translate(545 294)"/>
      </g>
      <g id="그룹_8482-38" data-name="그룹 8482" transform="translate(294 540)">
        <rect id="사각형_16805-38" data-name="사각형 16805" class="cls-3" width="147" height="108" transform="translate(434 269)"/>
        <path id="패스_2173" data-name="패스 2173" class="cls-6" d="M5.156.273a4.252,4.252,0,0,0,2.1-.5,3.582,3.582,0,0,0,1.4-1.391,4.1,4.1,0,0,0,.5-2.055A3.944,3.944,0,0,0,8.7-5.633a3.385,3.385,0,0,0-1.258-1.3A3.391,3.391,0,0,0,5.7-7.391a3.656,3.656,0,0,0-1.48.273A2.515,2.515,0,0,0,3.2-6.328H3.07L3.4-9.789h5.18v-1.484H2.039L1.406-4.766h1.6a2.373,2.373,0,0,1,.535-.672,2.283,2.283,0,0,1,.746-.43,2.76,2.76,0,0,1,.922-.148,2.258,2.258,0,0,1,1.168.3,2.071,2.071,0,0,1,.789.836,2.617,2.617,0,0,1,.285,1.242,2.758,2.758,0,0,1-.285,1.285,2.109,2.109,0,0,1-.8.859,2.3,2.3,0,0,1-1.2.309,2.559,2.559,0,0,1-1.105-.23,2.026,2.026,0,0,1-.793-.652A2.033,2.033,0,0,1,2.9-3.055H1.227a3.332,3.332,0,0,0,.566,1.727A3.5,3.5,0,0,0,3.172-.152,4.446,4.446,0,0,0,5.156.273ZM21.924-5.744v-7.12H20.5v7.12Zm.5,6.768V-.144H14.244V-1.52h7.68v-3.5H12.788v1.152H20.5v1.3H12.836v3.6Zm-8-13.424a3.32,3.32,0,0,0-3.584,3.2c0,1.9,1.616,3.088,3.584,3.088,2,0,3.568-1.232,3.568-3.1A3.293,3.293,0,0,0,14.42-12.4Zm0,1.216A1.968,1.968,0,0,1,16.6-9.216,1.978,1.978,0,0,1,14.42-7.3a2,2,0,0,1-2.192-1.92A2.044,2.044,0,0,1,14.42-11.184Z" transform="translate(546 294)"/>
      </g>
      <g id="그룹_8482-39" data-name="그룹 8482" transform="translate(441 540)">
        <rect id="사각형_16805-39" data-name="사각형 16805" class="cls-3" width="147" height="108" transform="translate(434 269)"/>
        <path id="패스_2172" data-name="패스 2172" class="cls-6" d="M5.383.266A4.343,4.343,0,0,0,7.5-.238,3.721,3.721,0,0,0,8.945-1.625a3.907,3.907,0,0,0,.523-2.031A3.877,3.877,0,0,0,8.992-5.59,3.506,3.506,0,0,0,7.676-6.926a3.73,3.73,0,0,0-1.91-.488,3.677,3.677,0,0,0-1.242.2,3.124,3.124,0,0,0-1.008.582A2.96,2.96,0,0,0,2.8-5.7H2.672a7.825,7.825,0,0,1,.359-2.4,3.112,3.112,0,0,1,.961-1.469,2.339,2.339,0,0,1,1.5-.5,2.458,2.458,0,0,1,.953.176,1.841,1.841,0,0,1,.707.512,1.884,1.884,0,0,1,.395.813H9.3a3.328,3.328,0,0,0-.645-1.566,3.424,3.424,0,0,0-1.328-1.039,4.5,4.5,0,0,0-1.879-.371,3.981,3.981,0,0,0-2.371.715A4.52,4.52,0,0,0,1.535-8.758,8.85,8.85,0,0,0,.992-5.477,8.637,8.637,0,0,0,1.32-2.969a5.214,5.214,0,0,0,.918,1.8A3.742,3.742,0,0,0,3.629-.09,4.274,4.274,0,0,0,5.383.266ZM5.367-1.2A2.283,2.283,0,0,1,4.16-1.52,2.368,2.368,0,0,1,3.313-2.4,2.5,2.5,0,0,1,3-3.648a2.427,2.427,0,0,1,.3-1.223,2.2,2.2,0,0,1,.844-.84,2.465,2.465,0,0,1,1.234-.3,2.421,2.421,0,0,1,1.227.3,2.143,2.143,0,0,1,.828.848,2.572,2.572,0,0,1,.3,1.254,2.428,2.428,0,0,1-.312,1.227,2.365,2.365,0,0,1-.844.867A2.3,2.3,0,0,1,5.367-1.2ZM22.228-5.744v-7.12H20.8v7.12Zm.5,6.768V-.144H14.548V-1.52h7.68v-3.5H13.092v1.152H20.8v1.3H13.14v3.6Zm-8-13.424A3.32,3.32,0,0,0,11.14-9.2c0,1.9,1.616,3.088,3.584,3.088,2,0,3.568-1.232,3.568-3.1A3.293,3.293,0,0,0,14.724-12.4Zm0,1.216A1.968,1.968,0,0,1,16.9-9.216,1.978,1.978,0,0,1,14.724-7.3a2,2,0,0,1-2.192-1.92A2.044,2.044,0,0,1,14.724-11.184Z" transform="translate(547 294)"/>
      </g>
      <g id="그룹_8482-40" data-name="그룹 8482" transform="translate(588 540)">
        <rect id="사각형_16805-40" data-name="사각형 16805" class="cls-3" width="147" height="108" transform="translate(434 269)"/>
        <path id="패스_2171" data-name="패스 2171" class="cls-6" d="M1.7,0H3.531L8.438-9.758v-1.516H.758V-9.8H6.664v.125ZM21.088-5.744v-7.12H19.664v7.12Zm.5,6.768V-.144H13.408V-1.52h7.68v-3.5H11.952v1.152h7.712v1.3H12v3.6Zm-8-13.424A3.32,3.32,0,0,0,10-9.2c0,1.9,1.616,3.088,3.584,3.088,2,0,3.568-1.232,3.568-3.1A3.293,3.293,0,0,0,13.584-12.4Zm0,1.216A1.968,1.968,0,0,1,15.76-9.216,1.978,1.978,0,0,1,13.584-7.3a2,2,0,0,1-2.192-1.92A2.044,2.044,0,0,1,13.584-11.184Z" transform="translate(547 294)"/>
      </g>
      <g id="그룹_8482-41" data-name="그룹 8482" transform="translate(735 540)">
        <rect id="사각형_16805-41" data-name="사각형 16805" class="cls-3" width="147" height="108" transform="translate(434 269)"/>
        <path id="패스_2170" data-name="패스 2170" class="cls-6" d="M5.266.273A5.491,5.491,0,0,0,7.48-.145,3.529,3.529,0,0,0,8.973-1.3a2.862,2.862,0,0,0,.535-1.719,2.928,2.928,0,0,0-.3-1.328,2.813,2.813,0,0,0-.836-1,2.947,2.947,0,0,0-1.262-.535v-.133A2.543,2.543,0,0,0,8.527-6.93a2.517,2.517,0,0,0,.52-1.586,2.637,2.637,0,0,0-.484-1.57,3.273,3.273,0,0,0-1.336-1.07,4.657,4.657,0,0,0-1.961-.391,4.664,4.664,0,0,0-1.957.391,3.268,3.268,0,0,0-1.34,1.07,2.637,2.637,0,0,0-.484,1.57,2.5,2.5,0,0,0,.531,1.59,2.546,2.546,0,0,0,1.406.9v.133a3.022,3.022,0,0,0-1.258.547,2.8,2.8,0,0,0-.836,1,2.935,2.935,0,0,0-.3,1.324A2.836,2.836,0,0,0,1.57-1.3,3.562,3.562,0,0,0,3.063-.145,5.442,5.442,0,0,0,5.266.273Zm0-1.391A2.926,2.926,0,0,1,4-1.379,2.122,2.122,0,0,1,3.133-2.1,1.83,1.83,0,0,1,2.82-3.156a1.83,1.83,0,0,1,.313-1.059A2.094,2.094,0,0,1,4-4.93a2.963,2.963,0,0,1,1.27-.258,2.957,2.957,0,0,1,1.273.258,2.1,2.1,0,0,1,.859.715,1.83,1.83,0,0,1,.313,1.059A1.847,1.847,0,0,1,7.4-2.1a2.093,2.093,0,0,1-.859.719A2.945,2.945,0,0,1,5.266-1.117Zm0-5.445a2.459,2.459,0,0,1-1.074-.223,1.706,1.706,0,0,1-.723-.629,1.712,1.712,0,0,1-.258-.937A1.741,1.741,0,0,1,3.469-9.3a1.732,1.732,0,0,1,.723-.633,2.423,2.423,0,0,1,1.074-.227,2.417,2.417,0,0,1,1.078.227,1.764,1.764,0,0,1,.723.633,1.721,1.721,0,0,1,.262.953,1.693,1.693,0,0,1-.262.938,1.737,1.737,0,0,1-.723.629A2.453,2.453,0,0,1,5.266-6.562Zm17.041.819v-7.12H20.883v7.12Zm.5,6.768V-.144H14.627V-1.52h7.68v-3.5H13.171v1.152h7.712v1.3H13.219v3.6ZM14.8-12.4a3.32,3.32,0,0,0-3.584,3.2c0,1.9,1.616,3.088,3.584,3.088,2,0,3.568-1.232,3.568-3.1A3.293,3.293,0,0,0,14.8-12.4Zm0,1.216a1.968,1.968,0,0,1,2.176,1.968A1.978,1.978,0,0,1,14.8-7.3a2,2,0,0,1-2.192-1.92A2.044,2.044,0,0,1,14.8-11.184Z" transform="translate(545 294)"/>
      </g>
      <g id="그룹_8482-42" data-name="그룹 8482" transform="translate(882 540)">
        <rect id="사각형_16805-42" data-name="사각형 16805" class="cls-5" width="147" height="108" transform="translate(434 269)"/>
        <path id="패스_2169" data-name="패스 2169" class="cls-6" d="M5.008.266a4.024,4.024,0,0,0,2.41-.715A4.471,4.471,0,0,0,8.945-2.523,9,9,0,0,0,9.477-5.8a8.762,8.762,0,0,0-.32-2.5,5.158,5.158,0,0,0-.906-1.8,3.815,3.815,0,0,0-1.391-1.09,4.241,4.241,0,0,0-1.781-.367,4.32,4.32,0,0,0-2.113.5A3.747,3.747,0,0,0,1.52-9.652,3.89,3.89,0,0,0,.992-7.625a3.852,3.852,0,0,0,.48,1.934,3.534,3.534,0,0,0,1.32,1.336,3.73,3.73,0,0,0,1.91.488,3.653,3.653,0,0,0,1.234-.2,3.171,3.171,0,0,0,1.012-.582,2.862,2.862,0,0,0,.707-.918h.133a8.719,8.719,0,0,1-.207,1.859A4.436,4.436,0,0,1,7.035-2.34a2.459,2.459,0,0,1-.859.844,2.3,2.3,0,0,1-1.152.285,2.274,2.274,0,0,1-1.336-.4A1.926,1.926,0,0,1,2.922-2.7H1.156a3.518,3.518,0,0,0,.7,1.57A3.584,3.584,0,0,0,3.2-.1,4.325,4.325,0,0,0,5.008.266Zm.078-5.539a2.427,2.427,0,0,1-1.223-.3,2.129,2.129,0,0,1-.832-.852,2.578,2.578,0,0,1-.3-1.25,2.424,2.424,0,0,1,.309-1.227,2.333,2.333,0,0,1,.848-.859,2.325,2.325,0,0,1,1.211-.32,2.283,2.283,0,0,1,1.207.324,2.346,2.346,0,0,1,.844.875,2.521,2.521,0,0,1,.309,1.254,2.412,2.412,0,0,1-.3,1.215,2.2,2.2,0,0,1-.84.84A2.443,2.443,0,0,1,5.086-5.273Zm17.142-.471v-7.12H20.8v7.12Zm.5,6.768V-.144H14.548V-1.52h7.68v-3.5H13.092v1.152H20.8v1.3H13.14v3.6Zm-8-13.424A3.32,3.32,0,0,0,11.14-9.2c0,1.9,1.616,3.088,3.584,3.088,2,0,3.568-1.232,3.568-3.1A3.293,3.293,0,0,0,14.724-12.4Zm0,1.216A1.968,1.968,0,0,1,16.9-9.216,1.978,1.978,0,0,1,14.724-7.3a2,2,0,0,1-2.192-1.92A2.044,2.044,0,0,1,14.724-11.184Z" transform="translate(545 294)"/>
      </g>
      <path id="패스_1985" data-name="패스 1985" class="cls-4" d="M12.08-5.744v-7.12H10.656v7.12Zm.5,6.768V-.144H4.4V-1.52h7.68v-3.5H2.944v1.152h7.712v1.3H2.992v3.6Zm-8-13.424A3.32,3.32,0,0,0,.992-9.2c0,1.9,1.616,3.088,3.584,3.088,2,0,3.568-1.232,3.568-3.1A3.293,3.293,0,0,0,4.576-12.4Zm0,1.216A1.968,1.968,0,0,1,6.752-9.216,1.978,1.978,0,0,1,4.576-7.3a2,2,0,0,1-2.192-1.92A2.044,2.044,0,0,1,4.576-11.184Z" transform="translate(557 256)"/>
      <path id="패스_1986" data-name="패스 1986" class="cls-4" d="M12.7,1.1V.032H4.064V-.944h8.112V-3.92H2.64v1.056h8.128v.944H2.64V1.1ZM8.464-10.224c0-1.472-1.5-2.32-3.472-2.32s-3.488.88-3.488,2.3c0,1.472,1.52,2.32,3.488,2.32S8.464-8.768,8.464-10.224ZM12.176-4.48v-8.384H10.784v6.816H7.792V-5.04h2.992v.56Zm-6.544.016V-6.256c1.5-.1,3.136-.224,4.112-.352L9.616-7.664c-1.328.16-2.7.24-4.5.32-1.536.064-3.024.08-4.64.08L.688-6.1c1.152-.016,2.272-.048,3.536-.08v1.712Zm1.408-5.76c0,.784-.88,1.184-2.048,1.184S2.96-9.44,2.96-10.224s.848-1.216,2.032-1.216C6.208-11.44,7.04-11.008,7.04-10.224Z" transform="translate(705 256)"/>
      <path id="패스_1987" data-name="패스 1987" class="cls-4" d="M9.328-1.632l-.144-1.12c-.912.112-2.208.224-3.728.3V-3.632C7.056-3.824,8.1-4.72,8.1-5.968c0-1.456-1.36-2.4-3.344-2.4-1.936,0-3.344.96-3.344,2.4,0,1.216,1.072,2.128,2.64,2.336v1.264C2.7-2.3,1.424-2.3.336-2.3L.544-1.12c1.152,0,2.464-.032,3.968-.112C6.176-1.328,8.16-1.472,9.328-1.632Zm4.3-3.824V-6.64h-2.16v-6.224H10.08V1.12h1.392V-5.456ZM8.976-8.944v-1.168H.672v1.168ZM6.64-5.968c0,.672-.752,1.248-1.888,1.248-1.1,0-1.872-.576-1.872-1.248,0-.7.768-1.248,1.872-1.248C5.888-7.216,6.64-6.672,6.64-5.968Zm.08-5.056v-1.152H2.736v1.152Z" transform="translate(852 256)"/>
      <path id="패스_1988" data-name="패스 1988" class="cls-4" d="M7.6,1.136V-3.888h5.632V-5.024H.608v1.136H6.176V1.136Zm5.152-8.7C10.48-7.792,7.664-9.6,7.664-11.552v-.88H6.176v.88c0,1.952-2.528,3.664-5.056,4L1.76-6.4c2.128-.4,4.528-1.792,5.152-3.344.736,1.552,3.1,2.944,5.168,3.328Z" transform="translate(1000 257)"/>
      <path id="패스_1989" data-name="패스 1989" class="cls-4" d="M13.232-4.72V-5.888H7.6V-7.552h4.032v-4.8H2.224v4.8H6.176v1.664H.608V-4.72Zm-3.04-3.952H3.632v-2.544h6.56ZM2-3.36v1.152h8.272V1.184H11.68V-3.36Z" transform="translate(1146 257)"/>
      <path id="패스_1990" data-name="패스 1990" class="cls-4" d="M11.632.928V-4.064H2.208V.928Zm-.064-12.96H2.256V-10.9h7.872a22.452,22.452,0,0,1-.4,4H.608v1.152H13.232V-6.9H11.12A27.4,27.4,0,0,0,11.568-12.032ZM10.208-.192H3.632V-2.928h6.576Z" transform="translate(1293 257)"/>
      <path id="패스_1991" data-name="패스 1991" class="cls-4" d="M11.264-7.552v-1.12H3.5V-10.5h8.224v-1.168H2.1v7.28h4.08v2.576H.608V-.656H13.232V-1.808H7.6V-4.384h4.272V-5.52H3.5V-7.552Z" transform="translate(1439 257)"/>
      <path id="패스_1992" data-name="패스 1992" class="cls-7" d="M0,0H1028" transform="translate(434.5 269.5)"/>
      <path id="패스_1993" data-name="패스 1993" class="cls-8" d="M0,0H1028" transform="translate(434.5 377.5)"/>
      <path id="패스_1994" data-name="패스 1994" class="cls-8" d="M0,0H1028" transform="translate(437.5 485.5)"/>
      <path id="패스_1995" data-name="패스 1995" class="cls-8" d="M0,0H1028" transform="translate(437.5 593.5)"/>
      <path id="패스_1996" data-name="패스 1996" class="cls-8" d="M0,0H1028" transform="translate(439.5 701.5)"/>
      <path id="패스_1997" data-name="패스 1997" class="cls-8" d="M0,0H1028" transform="translate(434.5 809.5)"/>
      <path id="패스_1998" data-name="패스 1998" class="cls-8" d="M0,0V648" transform="translate(581.5 269.5)"/>
      <path id="패스_1999" data-name="패스 1999" class="cls-8" d="M0,0V648" transform="translate(728.5 270.5)"/>
      <path id="패스_2000" data-name="패스 2000" class="cls-8" d="M0,0V648" transform="translate(875.5 270.5)"/>
      <path id="패스_2001" data-name="패스 2001" class="cls-8" d="M0,0V648" transform="translate(1022.5 269.5)"/>
      <path id="패스_2002" data-name="패스 2002" class="cls-8" d="M0,0V648" transform="translate(1169.5 270.5)"/>
      <path id="패스_2003" data-name="패스 2003" class="cls-8" d="M0,0V648" transform="translate(1316.5 270.5)"/>
      <g id="크리스마스">
        <rect id="사각형_16806" data-name="사각형 16806" class="cls-9" width="132" height="17" rx="1" transform="translate(1177 628)"/>
        <path id="패스_2156" data-name="패스 2156" class="cls-10" d="M9.438-9.2h-7.7v.819H8.411v1.17c0,.377-.026.793-.052,1.248L1.391-5.72l.195.871L8.307-5.2a23.962,23.962,0,0,1-.338,2.886l.949.13a31.524,31.524,0,0,0,.52-5.564ZM10.751-.741v-.832H.494v.832Zm9.334-9.711V.91h.988V-10.452ZM19.045-3a35.99,35.99,0,0,1-5.434.351h-.273V-5.369h4.316V-9.4H12.3v.819h4.355v2.392h-4.3v4.381h1.157a38.272,38.272,0,0,0,5.629-.377ZM32.864-4.6c-1.742-.39-4.238-2.145-4.238-4v-.9H27.6v.9c0,1.859-2.366,3.614-4.212,3.978l.52.845a6.771,6.771,0,0,0,4.186-3.328A7.321,7.321,0,0,0,32.318-3.77ZM33.241-.65v-.832H22.984V-.65ZM39.9-1.95V-9.282H34.58V-1.95Zm-.988-.819H35.568V-8.463h3.341Zm5.915-2.275v-.832H42.965v-4.576h-.988V.91h.988V-5.044Zm10.53.442c-1.742-.39-4.238-2.145-4.238-4v-.9H50.089v.9c0,1.859-2.366,3.614-4.212,3.978l.52.845a6.771,6.771,0,0,0,4.186-3.328A7.321,7.321,0,0,0,54.808-3.77ZM55.731-.65v-.832H45.474V-.65Z" transform="translate(1186 641)"/>
      </g>
      <g id="크리스마스-2" data-name="크리스마스" transform="translate(-587.86 -106)">
        <rect id="사각형_16806-2" data-name="사각형 16806" class="cls-11" width="720" height="17" rx="1" transform="translate(1176.86 628)"/>
        <path id="패스_2153" data-name="패스 2153" class="cls-10" d="M9.776.91V-10.452H8.788V.91ZM6.435-9.243H1.027v.832H5.382A7.672,7.672,0,0,1,.611-2.119l.572.78A8.849,8.849,0,0,0,6.435-9.243ZM22.2-7.1V-7.93H20.475v-2.522h-.988v5.811h.988V-7.1ZM20.891.832V.013H14.222v-1.3h6.253v-2.73H13.234V-3.2h6.253v1.144H13.234V.832ZM17.537-5.1V-9.737H12.142V-5.1Zm-.988-.819H13.13v-3h3.419ZM33.241-.728V-1.56H27.885V-5.668H26.9V-1.56H22.984v.832ZM31.863-9.269H24.037v.832h6.8v1.105a20.522,20.522,0,0,1-.4,4.277l.975.156a23.479,23.479,0,0,0,.455-4.94ZM44.8-5.031v-.832H42.965v-4.589h-.988V.91h.988V-5.031ZM40.9-2.613a5.952,5.952,0,0,1-3-4.849V-9.451H36.881v2.015a6.344,6.344,0,0,1-2.99,5.07l.637.767a7.424,7.424,0,0,0,2.847-3.8,7.783,7.783,0,0,0,2.9,3.536Z" transform="translate(1185.86 641)"/>
      </g>
      <g id="새해" transform="translate(0 108)">
        <rect id="사각형_16806-3" data-name="사각형 16806" class="cls-9" width="132" height="17" rx="1" transform="translate(1177 628)"/>
        <path id="패스_2166" data-name="패스 2166" class="cls-10" d="M10.075.91V-10.452H9.1v4.628H7.657v-4.355H6.695V.338h.962V-5.005H9.1V.91ZM6.24-2.678A5.629,5.629,0,0,1,3.8-7.358V-9.386H2.821v2.054A6.248,6.248,0,0,1,.26-2.3l.65.715A6.528,6.528,0,0,0,3.3-5.213,6.707,6.707,0,0,0,5.6-1.976ZM21.32.91V-10.452h-.975v4.641H18.98v-4.368h-.962V.338h.962V-4.979h1.365V.91ZM17.16-3.939a2.264,2.264,0,0,0-2.483-2.275,2.264,2.264,0,0,0-2.483,2.275,2.3,2.3,0,0,0,2.483,2.262A2.255,2.255,0,0,0,17.16-3.939Zm-.949,0A1.425,1.425,0,0,1,14.677-2.5a1.4,1.4,0,0,1-1.521-1.443,1.407,1.407,0,0,1,1.521-1.443A1.418,1.418,0,0,1,16.211-3.939Zm1.157-2.925v-.819H11.713v.819ZM16.146-8.723v-.858H13.039v.858Z" transform="translate(1186 641)"/>
      </g>
      <g id="그룹_8509" data-name="그룹 8509">
        <g id="그룹_8506" data-name="그룹 8506">
          <g id="사각형_16832" data-name="사각형 16832" class="cls-12" transform="translate(1355 192)">
            <rect class="cls-16" width="52" height="20" rx="4"/>
            <rect class="cls-17" x="0.5" y="0.5" width="51" height="19" rx="3.5"/>
          </g>
          <path id="패스_2123" data-name="패스 2123" class="cls-4" d="M9.1-6.084C9.1-7.836,7.548-9,5.184-9c-2.34,0-3.9,1.164-3.9,2.916,0,1.632,1.32,2.736,3.36,2.9v1.788H.456v.876H9.924v-.876H5.712V-3.168C7.764-3.324,9.1-4.452,9.1-6.084ZM8-6.084c0,1.2-1.128,2.028-2.82,2.028S2.376-4.884,2.376-6.084,3.492-8.112,5.184-8.112,8-7.272,8-6.084ZM20.3-4.512v-.864H10.836v.864ZM19.44.756V-.12H13.056v-.948h6.036V-3.612H11.976v.864h6.048v.876H11.988V.756ZM19.2-6.216v-.852H13.14V-9.384H12.084v3.168Z" transform="translate(1371 206)"/>
        </g>
        <g id="그룹_8507" data-name="그룹 8507">
          <g id="사각형_16833" data-name="사각형 16833" class="cls-12" transform="translate(1406 192)">
            <rect class="cls-16" width="20" height="20" rx="4"/>
            <rect class="cls-17" x="0.5" y="0.5" width="19" height="19" rx="3.5"/>
          </g>
          <g id="Nav_Pages" data-name="Nav Pages" transform="translate(1410 197)">
            <path id="right" class="cls-4" d="M0,6.914V5.531H5.531V0H6.913V6.914Z" transform="translate(0 4.889) rotate(-45)"/>
          </g>
        </g>
        <g id="그룹_8508" data-name="그룹 8508">
          <g id="사각형_16834" data-name="사각형 16834" class="cls-12" transform="translate(1336 192)">
            <rect class="cls-16" width="20" height="20" rx="4"/>
            <rect class="cls-17" x="0.5" y="0.5" width="19" height="19" rx="3.5"/>
          </g>
          <path id="left" class="cls-4" d="M0,6.914V5.531H5.531V0H6.913V6.914Z" transform="translate(1351.653 201.889) rotate(135)"/>
        </g>
      </g>
      <g id="그룹_8516" data-name="그룹 8516" transform="translate(-294 107)">
        <circle id="타원_1363" data-name="타원 1363" class="cls-13" cx="4" cy="4" r="4" transform="translate(1322 526)"/>
        <path id="패스_2154" data-name="패스 2154" class="cls-4" d="M9.5-1.235c0-1.313-1.391-2.132-3.926-2.132s-3.965.819-3.965,2.132S3.029.884,5.577.884,9.5.065,9.5-1.235Zm1.248-2.977v-.936H5.824V-7.514H4.68v2.366H.494v.936ZM8.333-1.235c0,.78-1.079,1.2-2.756,1.2-1.7,0-2.782-.416-2.782-1.2s1.079-1.2,2.782-1.2C7.254-2.431,8.333-2,8.333-1.235Zm1.2-8.619h-7.8v.936H8.372a12.228,12.228,0,0,1-.3,2.951c.377.052.754.1,1.118.143a15.52,15.52,0,0,0,.325-2.9C9.516-9.1,9.529-9.425,9.529-9.854ZM22-.533v-.936H17.42V-4.017h3.341V-9.438h-7.8v5.421h3.3v2.548H11.739v.936ZM19.617-4.966H14.1V-8.5h5.512ZM23.3-8.528h2.509v.559A4.332,4.332,0,0,1,22.958-4.29l.676.91A5.286,5.286,0,0,0,26.4-6.175,5.247,5.247,0,0,0,28.99-3.7l.637-.923a3.794,3.794,0,0,1-2.652-3.367v-.533h2.444v-.949H23.3Zm9.009,6.37v-8.294H31.148v3.094H28.964v.936h2.184v4.264ZM32.552.559V-.377H25.974V-2.964H24.83V.559ZM40.4,0h1.422V-9.16H40.406q-.2.146-.441.317l-.5.355-.524.368-.5.355q-.241.171-.438.317v1.4q.19-.146.419-.308l.479-.34q.251-.178.5-.352t.479-.34l.419-.3H40.4ZM50.539-2.21a4.713,4.713,0,0,1-2.8-4.342v-.273h2.509v-.936H44.026v.936h2.535v.286A5.247,5.247,0,0,1,43.623-1.9l.741.832a6.006,6.006,0,0,0,2.795-3.289,5.764,5.764,0,0,0,2.7,3.016Zm3.926-2.652v-.962H52.684v-4.628H51.54V.91h1.144V-4.862ZM48.81-8.788v-.949H45.456v.949ZM69.1-7.033v-.949h-1.69v-2.47H66.251v5.876h1.157V-7.033ZM67.811.832V-.1H61.324V-1.2h6.084V-3.965H60.089v.936h6.162v.962H60.18v2.9ZM64.366-4.953v-5.07H63.222v1.6H60.141V-10.01H59v5.057Zm-1.144-.923H60.141V-7.5h3.081ZM80.135-.533v-.936H77.4V-3.757H76.248v2.288H73.726V-3.757H72.569v2.288H69.878v.936Zm-1.04-3.783v-.936H77.431l.39-2.548L76.69-7.995l-.312,2.743h-2.73l-.182-2.769-1.157.156.247,2.613h-1.7v.936Zm.013-4.238V-9.49H70.84v.936Z" transform="translate(1336 535)"/>
        <path id="패스_2155" data-name="패스 2155" class="cls-14" d="M6.822-4.563c0-1.314-1.161-2.187-2.934-2.187C2.133-6.75.963-5.877.963-4.563c0,1.224.99,2.052,2.52,2.178v1.341H.342v.657h7.1v-.657H4.284V-2.376C5.823-2.493,6.822-3.339,6.822-4.563ZM6-4.563c0,.9-.846,1.521-2.115,1.521S1.782-3.663,1.782-4.563s.837-1.521,2.106-1.521S6-5.454,6-4.563ZM8.343-5.9H10.08v.387A3,3,0,0,1,8.109-2.97l.468.63a3.659,3.659,0,0,0,1.917-1.935,3.632,3.632,0,0,0,1.791,1.71l.441-.639A2.627,2.627,0,0,1,10.89-5.535V-5.9h1.692v-.657H8.343Zm6.237,4.41V-7.236h-.8v2.142H12.267v.648h1.512v2.952ZM14.751.387V-.261H10.2V-2.052H9.4V.387ZM20.4,0h.984V-6.341h-.98q-.136.1-.305.22l-.349.246-.363.255-.349.246q-.167.119-.3.22v.967q.132-.1.29-.213l.332-.235.347-.244q.174-.121.332-.235l.29-.211H20.4Zm5.234.154A2.046,2.046,0,0,0,26.9-.237a2.428,2.428,0,0,0,.8-1.134,5.148,5.148,0,0,0,.277-1.793,5.129,5.129,0,0,0-.279-1.8,2.47,2.47,0,0,0-.8-1.14,2.023,2.023,0,0,0-1.257-.4,2.05,2.05,0,0,0-1.261.393,2.442,2.442,0,0,0-.806,1.136,5.1,5.1,0,0,0-.279,1.789,5.144,5.144,0,0,0,.279,1.8,2.456,2.456,0,0,0,.8,1.138A2.045,2.045,0,0,0,25.638.154Zm0-.817a1.023,1.023,0,0,1-.734-.29,1.843,1.843,0,0,1-.461-.848,5.117,5.117,0,0,1-.158-1.375,4.987,4.987,0,0,1,.16-1.365,1.841,1.841,0,0,1,.464-.844,1.022,1.022,0,0,1,.729-.288,1.018,1.018,0,0,1,.727.286,1.822,1.822,0,0,1,.459.842,5.072,5.072,0,0,1,.158,1.369A5.142,5.142,0,0,1,26.824-1.8a1.851,1.851,0,0,1-.457.848A1.012,1.012,0,0,1,25.638-.664ZM35.572.63V-7.236H34.78V.63ZM33.844-1.854a3.992,3.992,0,0,1-1.971-3.384V-6.543h-.828V-5.2a4.331,4.331,0,0,1-2.016,3.564l.5.585A4.914,4.914,0,0,0,31.468-3.6a5.209,5.209,0,0,0,1.9,2.34Z" transform="translate(1423 534)"/>
      </g>
      <g id="그룹_8519" data-name="그룹 8519" transform="translate(-147 17)">
        <circle id="타원_1363-2" data-name="타원 1363" class="cls-13" cx="4" cy="4" r="4" transform="translate(1322 526)"/>
        <path id="패스_2151" data-name="패스 2151" class="cls-4" d="M9.867.91V-10.452H8.71v3.991H6.175v.975H8.71V.91ZM7.332-2.652A5.881,5.881,0,0,1,4.459-7.566V-9.477H3.276v1.963A6.237,6.237,0,0,1,.351-2.366l.728.845A7.073,7.073,0,0,0,3.874-5.2,7.523,7.523,0,0,0,6.643-1.794ZM21.086-3.744V-4.68H19.227l.481-2.912L18.59-7.787,18.148-4.68H15.574l-.221-3.133-1.17.169.3,2.964h-1.9v.936h3.679v2.275H11.739v.936H22v-.936H17.42V-3.744ZM21.1-8.372V-9.3H12.571v.923ZM24.492-2.7V-5.356h3.77v-.923h-3.77v-2.2h4.277V-9.4H23.361v7.644H24.5a29.786,29.786,0,0,0,5.187-.377l-.169-.936a24.518,24.518,0,0,1-4.745.364ZM32.292.91V-10.452H31.148v4.264h-2.21v.975h2.21V.91ZM44.122-4.2c-1.7-.3-4.16-1.885-4.16-3.731v-.3H43.55v-.923H35.165v.923h3.588v.3c0,1.872-2.366,3.419-4.147,3.705l.572.923c1.768-.442,3.679-1.7,4.173-3.068a6.717,6.717,0,0,0,4.173,3.094Zm.364,3.575V-1.56H34.229v.936ZM58.547.91V-10.452H57.442v4.693h-1.17V-10.2h-1.1V.351h1.1V-4.81h1.17V.91ZM54.374-3.965a2.238,2.238,0,0,0-2.5-2.223,2.242,2.242,0,0,0-2.509,2.223,2.287,2.287,0,0,0,2.509,2.236A2.233,2.233,0,0,0,54.374-3.965Zm-1.1,0a1.321,1.321,0,0,1-1.391,1.313,1.3,1.3,0,0,1-1.4-1.313,1.3,1.3,0,0,1,1.4-1.287A1.3,1.3,0,0,1,53.269-3.965Zm1.339-2.743v-.949H48.979v.949Zm-1.313-1.95v-.936H50.24v.936ZM70.663-6.266v-.962h-1.69v-3.224H67.816v8.229h1.157V-6.266Zm-1.3,6.8V-.39H63.019V-2.977H61.862V.533Zm-7.657-5.59V-8.5h4.056v-.949H60.575v5.33h1.144a29.61,29.61,0,0,0,5.1-.4l-.143-.91a26.435,26.435,0,0,1-4.693.377ZM80.764-3.7v-6.734H79.607V-3.7ZM78.32-5.226a4.15,4.15,0,0,1-2.821-3.7V-9.984H74.316v1.1a4.534,4.534,0,0,1-2.951,4l.7.884a5.548,5.548,0,0,0,2.847-3,5.8,5.8,0,0,0,2.73,2.652ZM80.764.923V-3.094H73.146v.936h6.461V.923Z" transform="translate(1336 535)"/>
        <path id="패스_2152" data-name="패스 2152" class="cls-14" d="M6.822-4.563c0-1.314-1.161-2.187-2.934-2.187C2.133-6.75.963-5.877.963-4.563c0,1.224.99,2.052,2.52,2.178v1.341H.342v.657h7.1v-.657H4.284V-2.376C5.823-2.493,6.822-3.339,6.822-4.563ZM6-4.563c0,.9-.846,1.521-2.115,1.521S1.782-3.663,1.782-4.563s.837-1.521,2.106-1.521S6-5.454,6-4.563Zm8.1.774c0-.81-.981-1.233-2.421-1.233S9.27-4.6,9.27-3.789s.981,1.224,2.412,1.224S14.1-2.979,14.1-3.789ZM12.069.63V-1.512h3.159V-2.16h-7.1v.648h3.141V.63Zm2.745-5.985V-6H8.559v.648Zm-1.53,1.566c0,.414-.819.594-1.6.594-.765,0-1.593-.18-1.593-.594s.828-.594,1.593-.594C12.465-4.383,13.284-4.212,13.284-3.789Zm-.252-2.673v-.657h-2.7v.657ZM20.4,0h.984V-6.341h-.98q-.136.1-.305.22l-.349.246-.363.255-.349.246q-.167.119-.3.22v.967q.132-.1.29-.213l.332-.235.347-.244q.174-.121.332-.235l.29-.211H20.4ZM29.56.63V-7.236h-.792V.63ZM27.832-1.854a3.992,3.992,0,0,1-1.971-3.384V-6.543h-.828V-5.2a4.331,4.331,0,0,1-2.016,3.564l.5.585A4.914,4.914,0,0,0,25.456-3.6a5.209,5.209,0,0,0,1.9,2.34Z" transform="translate(1427 534)"/>
      </g>
      <g id="그룹_8520" data-name="그룹 8520" transform="translate(-147 -217)">
        <circle id="타원_1363-3" data-name="타원 1363" class="cls-13" cx="4" cy="4" r="4" transform="translate(1322 526)"/>
        <path id="패스_2131" data-name="패스 2131" class="cls-4" d="M9.867.91V-10.452H8.71v3.991H6.175v.975H8.71V.91ZM7.332-2.652A5.881,5.881,0,0,1,4.459-7.566V-9.477H3.276v1.963A6.237,6.237,0,0,1,.351-2.366l.728.845A7.073,7.073,0,0,0,3.874-5.2,7.523,7.523,0,0,0,6.643-1.794ZM21.034.91V-10.452H19.89V.91Zm-3.25-2.9V-9.308H12.337v7.319ZM16.64-2.938H13.481V-8.372H16.64ZM27-7.15h2.639c-.052,1.261-1.456,2.418-3.029,2.808l.585.936a4.848,4.848,0,0,0,3.042-2.379,4.954,4.954,0,0,0,2.925,2.106L33.73-4.6c-1.378-.26-2.886-1.313-2.951-2.548H33.4V-8.1H27ZM35.875.91V-10.452H34.731V.91Zm-1.7-2.457-.1-.91c-.767.1-2.054.182-3.276.247V-4.29H29.648v2.132c-1.131.039-2.236.052-3.172.052l.195.962c.949.013,2.327-.026,3.575-.1C31.637-1.313,33.2-1.43,34.172-1.547ZM28.66-9.113h3.133v-.962H28.66Zm18.1,7.995c0-1.248-1.43-1.95-3.926-1.95s-3.913.741-3.913,1.95C38.917.13,40.347.871,42.83.871S46.756.143,46.756-1.118ZM47.5-6.643c-1.573-.117-3.64-.949-4-2.275h3.471v-.949H38.7v.949h3.5C41.855-7.6,40-6.773,38.215-6.63l.507.91c1.937-.247,3.627-1.209,4.108-2.288A6.089,6.089,0,0,0,46.99-5.72ZM47.965-3.8v-.949H43.4V-6.461H42.245v1.716H37.708V-3.8ZM42.83-2.171c1.7,0,2.756.4,2.756,1.066,0,.689-1.053,1.066-2.756,1.066-1.677,0-2.73-.377-2.73-1.066C40.1-1.768,41.153-2.171,42.83-2.171ZM58.248.91V-10.452H57.1V.91ZM55-1.989V-9.308H49.551v7.319Zm-1.144-.949H50.695V-8.372h3.159ZM66.4-5.486h1.963v3.263h1.157v-8.229H68.362v1.664H66.4v.936h1.963v1.417H66.4Zm.416.819a4.09,4.09,0,0,1-2.73-3.7V-9.8h-1.17V-8.32A4.555,4.555,0,0,1,60.068-4.3l.715.91a5.442,5.442,0,0,0,2.73-3.042A5.48,5.48,0,0,0,66.152-3.77ZM69.766.585V-.351H63.3V-2.938H62.161V.585ZM76.477.1a.91.91,0,0,0,.667-.263.879.879,0,0,0,.267-.651.879.879,0,0,0-.267-.651.91.91,0,0,0-.667-.263.91.91,0,0,0-.667.263.879.879,0,0,0-.267.651.879.879,0,0,0,.267.651A.91.91,0,0,0,76.477.1ZM80,.1a.907.907,0,0,0,.67-.263.884.884,0,0,0,.263-.651.884.884,0,0,0-.263-.651A.907.907,0,0,0,80-1.733a.91.91,0,0,0-.667.263.879.879,0,0,0-.267.651.879.879,0,0,0,.267.651A.91.91,0,0,0,80,.1ZM83.53.1A.91.91,0,0,0,84.2-.168a.879.879,0,0,0,.267-.651.879.879,0,0,0-.267-.651.91.91,0,0,0-.667-.263.91.91,0,0,0-.667.263.879.879,0,0,0-.267.651.879.879,0,0,0,.267.651A.91.91,0,0,0,83.53.1Z" transform="translate(1336 535)"/>
        <path id="패스_2132" data-name="패스 2132" class="cls-14" d="M6.822-4.563c0-1.314-1.161-2.187-2.934-2.187C2.133-6.75.963-5.877.963-4.563c0,1.224.99,2.052,2.52,2.178v1.341H.342v.657h7.1v-.657H4.284V-2.376C5.823-2.493,6.822-3.339,6.822-4.563ZM6-4.563c0,.9-.846,1.521-2.115,1.521S1.782-3.663,1.782-4.563s.837-1.521,2.106-1.521S6-5.454,6-4.563Zm8.1.774c0-.81-.981-1.233-2.421-1.233S9.27-4.6,9.27-3.789s.981,1.224,2.412,1.224S14.1-2.979,14.1-3.789ZM12.069.63V-1.512h3.159V-2.16h-7.1v.648h3.141V.63Zm2.745-5.985V-6H8.559v.648Zm-1.53,1.566c0,.414-.819.594-1.6.594-.765,0-1.593-.18-1.593-.594s.828-.594,1.593-.594C12.465-4.383,13.284-4.212,13.284-3.789Zm-.252-2.673v-.657h-2.7v.657ZM21.1.154A2.392,2.392,0,0,0,22.28-.127a2.015,2.015,0,0,0,.789-.782,2.306,2.306,0,0,0,.283-1.156,2.218,2.218,0,0,0-.264-1.1,1.9,1.9,0,0,0-.708-.729,1.907,1.907,0,0,0-.98-.259A2.057,2.057,0,0,0,20.569-4,1.415,1.415,0,0,0,20-3.56h-.075l.185-1.947h2.914v-.835H19.345l-.356,3.661h.9a1.335,1.335,0,0,1,.3-.378,1.284,1.284,0,0,1,.42-.242,1.552,1.552,0,0,1,.519-.083,1.27,1.27,0,0,1,.657.167,1.165,1.165,0,0,1,.444.47,1.472,1.472,0,0,1,.16.7,1.551,1.551,0,0,1-.16.723,1.186,1.186,0,0,1-.45.483,1.293,1.293,0,0,1-.677.174,1.44,1.44,0,0,1-.622-.13,1.14,1.14,0,0,1-.446-.367,1.143,1.143,0,0,1-.207-.554h-.94a1.874,1.874,0,0,0,.319.971,1.968,1.968,0,0,0,.776.661A2.5,2.5,0,0,0,21.1.154ZM30.927.63V-7.236h-.792V.63ZM29.2-1.854a3.992,3.992,0,0,1-1.971-3.384V-6.543H26.4V-5.2a4.331,4.331,0,0,1-2.016,3.564l.5.585A4.914,4.914,0,0,0,26.823-3.6a5.209,5.209,0,0,0,1.9,2.34Z" transform="translate(1430 534)"/>
      </g>
      <g id="그룹_8518" data-name="그룹 8518" transform="translate(588 432)">
        <circle id="타원_1358" data-name="타원 1358" class="cls-15" cx="14" cy="14" r="14" transform="translate(536 272)"/>
        <path id="패스_2164" data-name="패스 2164" class="cls-3" d="M3.711-5.1H5.117a2.657,2.657,0,0,1,1.738.523,1.752,1.752,0,0,1,.637,1.43,1.762,1.762,0,0,1-.3,1.023,2.006,2.006,0,0,1-.832.684A2.869,2.869,0,0,1,5.141-1.2,3.072,3.072,0,0,1,3.93-1.418a2.019,2.019,0,0,1-.836-.633,1.858,1.858,0,0,1-.367-.965H1.047a3.166,3.166,0,0,0,.574,1.73A3.473,3.473,0,0,0,3.063-.137a5.086,5.086,0,0,0,2.1.41A4.934,4.934,0,0,0,7.273-.16,3.709,3.709,0,0,0,8.746-1.344a2.844,2.844,0,0,0,.543-1.711,2.646,2.646,0,0,0-.672-1.883,2.991,2.991,0,0,0-1.8-.891v-.133a3.064,3.064,0,0,0,1.051-.512,2.462,2.462,0,0,0,.719-.871,2.727,2.727,0,0,0,.27-1.2,2.742,2.742,0,0,0-.426-1.484,3.079,3.079,0,0,0-1.238-1.1,4.28,4.28,0,0,0-1.977-.418,4.652,4.652,0,0,0-2.055.422A3.358,3.358,0,0,0,1.8-9.965a3.346,3.346,0,0,0-.547,1.7H2.914a2.107,2.107,0,0,1,.332-1A1.762,1.762,0,0,1,4-9.895a2.7,2.7,0,0,1,1.117-.215A2.305,2.305,0,0,1,6.2-9.871a1.7,1.7,0,0,1,.691.641,1.737,1.737,0,0,1,.238.9,1.785,1.785,0,0,1-.262.961,1.775,1.775,0,0,1-.727.656,2.355,2.355,0,0,1-1.074.234H3.711ZM13.883,0h1.75V-11.273H13.891q-.242.18-.543.391l-.621.438-.645.453q-.324.227-.621.438t-.539.391v1.719q.234-.18.516-.379l.59-.418q.309-.219.617-.434t.59-.418l.516-.375h.133Z" transform="translate(542 292)"/>
      </g>
      <g id="크리스마스-3" data-name="크리스마스" transform="translate(-441.281)">
        <rect id="사각형_16806-4" data-name="사각형 16806" class="cls-9" width="134" height="17" rx="1" transform="translate(1176.281 628)"/>
        <path id="패스_2176" data-name="패스 2176" class="cls-10" d="M10.959-6.617v-.832H9.23v-3H8.242v6.461H9.23V-6.617ZM9.659.845V.078H3.068V-.962H9.23V-3.406h-7.2v.754H8.242v.962H2.08V.845ZM5.408-9.425v-.832H2.132v.832Zm1.7,1.534V-8.7H.442v.806ZM6.448-5.733c0-1.105-1.157-1.716-2.678-1.716s-2.665.611-2.665,1.716S2.288-4,3.77-4C5.33-4,6.448-4.615,6.448-5.733Zm-.949,0c0,.637-.832.962-1.729.962S2.054-5.1,2.054-5.733s.819-.949,1.716-.949S5.5-6.37,5.5-5.733Zm14.534.351V.91h.988V-10.452h-.988v4.238H17.927v.832ZM17.407-2.028V-9.282H12.155v7.254Zm-.988-.819H13.156V-8.463h3.263Zm15.769-7.605h-.975V.91h.975ZM30.056-3.263a32.356,32.356,0,0,1-5.434.507V-9.269h-1v7.384h.507a36.31,36.31,0,0,0,6.019-.52ZM47.1.91V-10.452h-.988V.91ZM43.763-9.243H38.355v.832H42.71a7.672,7.672,0,0,1-4.771,6.292l.572.78A8.849,8.849,0,0,0,43.763-9.243ZM58.349-4.706v-5.746h-.988v5.746Zm.416,5.46V-.052H51.979v-1.3h6.37V-4.108h-7.4V-3.3h6.409v1.183h-6.37V.754ZM52.33-10.1a2.717,2.717,0,0,0-2.964,2.574A2.687,2.687,0,0,0,52.33-4.992a2.672,2.672,0,0,0,2.938-2.535A2.693,2.693,0,0,0,52.33-10.1Zm0,.858a1.766,1.766,0,0,1,1.976,1.716A1.746,1.746,0,0,1,52.33-5.85a1.8,1.8,0,0,1-2-1.69A1.816,1.816,0,0,1,52.33-9.243Z" transform="translate(1185.281 641)"/>
      </g>
    </g>
  </g>
</svg>
